<?xml version="1.0" encoding="UTF-8" standalone="no"?>
<!DOCTYPE svg PUBLIC "-//W3C//DTD SVG 20010904//EN"
              "http://www.w3.org/TR/2001/REC-SVG-20010904/DTD/svg10.dtd">

<svg xmlns="http://www.w3.org/2000/svg"
     width="11.4583in" height="19.25in"
     viewBox="0 0 825 1386">
  <path id="Selection"
        fill="pink" stroke="pink" stroke-width="1"
        d="M 0.00,58.96
           C 0.00,58.96 0.00,69.00 0.00,69.00
             0.00,69.00 17.00,68.00 17.00,68.00
             17.00,68.00 40.00,68.00 40.00,68.00
             40.00,68.00 51.00,67.04 51.00,67.04
             51.00,67.04 62.00,67.82 62.00,67.82
             62.00,67.82 71.00,67.10 71.00,67.10
             71.00,67.10 89.00,69.00 89.00,69.00
             89.00,69.00 105.00,69.00 105.00,69.00
             105.00,69.00 129.00,71.00 129.00,71.00
             129.00,71.00 156.00,68.96 156.00,68.96
             156.00,68.96 166.00,68.96 166.00,68.96
             166.00,68.96 174.00,68.08 174.00,68.08
             174.00,68.08 186.00,69.00 186.00,69.00
             186.00,69.00 212.00,69.00 212.00,69.00
             212.00,69.00 226.01,67.95 226.01,67.95
             226.01,67.95 236.00,67.95 236.00,67.95
             236.00,67.95 256.00,65.96 256.00,65.96
             256.00,65.96 270.00,65.96 270.00,65.96
             270.00,65.96 282.00,65.00 282.00,65.00
             282.00,65.00 319.00,65.00 319.00,65.00
             319.00,65.00 334.00,64.00 334.00,64.00
             334.00,64.00 361.00,63.32 361.00,63.32
             361.00,63.32 382.00,62.00 382.00,62.00
             382.00,62.00 406.00,62.00 406.00,62.00
             406.00,62.00 442.00,65.00 442.00,65.00
             442.00,65.00 461.00,65.00 461.00,65.00
             461.00,65.00 473.00,65.71 473.00,65.71
             473.00,65.71 486.00,65.71 486.00,65.71
             486.00,65.71 494.00,65.71 494.00,65.71
             494.00,65.71 514.00,65.00 514.00,65.00
             514.00,65.00 569.00,62.00 569.00,62.00
             569.00,62.00 581.00,62.00 581.00,62.00
             585.07,62.01 593.09,62.62 597.00,63.37
             597.00,63.37 603.00,64.79 603.00,64.79
             603.00,64.79 612.00,65.81 612.00,65.81
             617.66,66.93 621.98,68.73 628.00,68.89
             628.00,68.89 632.98,68.89 632.98,68.89
             637.20,68.21 640.05,65.23 636.53,61.49
             634.59,59.43 629.76,57.99 627.00,57.47
             627.00,57.47 620.00,56.61 620.00,56.61
             616.45,55.85 615.25,54.52 611.00,54.01
             611.00,54.01 602.00,54.01 602.00,54.01
             602.00,54.01 583.00,53.00 583.00,53.00
             583.00,53.00 568.00,54.00 568.00,54.00
             551.99,54.07 556.01,55.73 545.00,56.83
             545.00,56.83 521.00,58.17 521.00,58.17
             515.46,58.76 515.45,59.91 508.00,60.00
             508.00,60.00 477.00,60.00 477.00,60.00
             466.94,59.98 469.23,58.69 463.00,58.10
             463.00,58.10 435.00,57.00 435.00,57.00
             435.00,57.00 415.00,55.00 415.00,55.00
             415.00,55.00 395.00,54.00 395.00,54.00
             395.00,54.00 377.00,55.18 377.00,55.18
             370.44,55.97 373.40,56.98 363.00,57.00
             363.00,57.00 287.00,57.00 287.00,57.00
             287.00,57.00 272.00,58.09 272.00,58.09
             272.00,58.09 255.00,58.09 255.00,58.09
             248.44,58.97 251.40,59.98 241.00,60.00
             241.00,60.00 169.00,60.00 169.00,60.00
             169.00,60.00 152.00,61.00 152.00,61.00
             152.00,61.00 121.00,61.00 121.00,61.00
             121.00,61.00 104.00,60.00 104.00,60.00
             104.00,60.00 70.00,58.32 70.00,58.32
             70.00,58.32 52.00,60.00 52.00,60.00
             52.00,60.00 22.00,58.10 22.00,58.10
             22.00,58.10 13.00,58.96 13.00,58.96
             13.00,58.96 0.00,58.96 0.00,58.96 Z
           M 824.00,79.00
           C 824.00,79.00 824.00,71.00 824.00,71.00
             824.00,71.00 760.00,71.00 760.00,71.00
             760.00,71.00 735.00,70.00 735.00,70.00
             735.00,70.00 706.00,70.00 706.00,70.00
             706.00,70.00 678.00,66.99 678.00,66.99
             678.00,66.99 670.00,66.99 670.00,66.99
             666.71,66.43 660.38,63.78 658.08,67.50
             656.05,70.79 660.52,73.13 663.00,73.89
             663.00,73.89 681.00,77.96 681.00,77.96
             681.00,77.96 687.00,77.96 687.00,77.96
             687.00,77.96 701.00,77.96 701.00,77.96
             701.00,77.96 709.00,78.92 709.00,78.92
             709.00,78.92 720.00,78.01 720.00,78.01
             720.00,78.01 735.00,79.00 735.00,79.00
             735.00,79.00 760.00,79.00 760.00,79.00
             774.56,79.02 770.93,80.42 778.00,80.90
             778.00,80.90 806.00,79.00 806.00,79.00
             806.00,79.00 824.00,79.00 824.00,79.00 Z
           M 0.00,243.00
           C 0.00,243.00 0.00,251.00 0.00,251.00
             0.00,251.00 32.00,249.00 32.00,249.00
             32.00,249.00 65.00,249.00 65.00,249.00
             65.00,249.00 79.00,248.00 79.00,248.00
             79.00,248.00 84.00,248.00 84.00,248.00
             84.00,248.00 108.00,246.00 108.00,246.00
             108.00,246.00 125.00,244.74 125.00,244.74
             125.00,244.74 131.00,243.26 131.00,243.26
             131.00,243.26 155.00,242.00 155.00,242.00
             155.00,242.00 170.00,243.00 170.00,243.00
             170.00,243.00 204.00,243.00 204.00,243.00
             204.00,243.00 221.00,242.00 221.00,242.00
             221.00,242.00 274.00,242.00 274.00,242.00
             274.00,242.00 307.00,244.00 307.00,244.00
             307.00,244.00 317.00,243.10 317.00,243.10
             317.00,243.10 327.00,243.92 327.00,243.92
             327.00,243.92 334.00,243.17 334.00,243.17
             334.00,243.17 346.00,242.51 346.00,242.51
             346.00,242.51 378.00,245.00 378.00,245.00
             378.00,245.00 400.00,245.00 400.00,245.00
             400.00,245.00 412.00,245.96 412.00,245.96
             412.00,245.96 428.00,245.96 428.00,245.96
             428.00,245.96 448.00,248.04 448.00,248.04
             448.00,248.04 465.00,248.04 465.00,248.04
             465.00,248.04 475.00,249.08 475.00,249.08
             475.00,249.08 491.00,249.08 491.00,249.08
             491.00,249.08 508.00,251.04 508.00,251.04
             508.00,251.04 522.00,251.04 522.00,251.04
             522.00,251.04 534.00,252.00 534.00,252.00
             534.00,252.00 562.00,252.00 562.00,252.00
             562.00,252.00 575.00,252.89 575.00,252.89
             575.00,252.89 590.00,252.89 590.00,252.89
             590.00,252.89 607.00,252.89 607.00,252.89
             607.00,252.89 624.00,252.00 624.00,252.00
             624.00,252.00 675.00,252.00 675.00,252.00
             675.00,252.00 692.00,251.00 692.00,251.00
             692.00,251.00 714.00,251.00 714.00,251.00
             714.00,251.00 738.00,249.00 738.00,249.00
             738.00,249.00 795.00,249.00 795.00,249.00
             795.00,249.00 810.00,250.91 810.00,250.91
             810.00,250.91 825.00,250.91 825.00,250.91
             825.00,250.91 825.00,243.11 825.00,243.11
             825.00,243.11 692.00,243.11 692.00,243.11
             692.00,243.11 677.00,243.11 677.00,243.11
             677.00,243.11 666.00,244.00 666.00,244.00
             666.00,244.00 642.00,244.00 642.00,244.00
             642.00,244.00 629.00,244.91 629.00,244.91
             629.00,244.91 592.00,246.00 592.00,246.00
             592.00,246.00 555.00,246.00 555.00,246.00
             555.00,246.00 527.00,244.00 527.00,244.00
             527.00,244.00 506.00,243.00 506.00,243.00
             506.00,243.00 489.00,243.00 489.00,243.00
             489.00,243.00 458.00,240.96 458.00,240.96
             458.00,240.96 444.00,240.96 444.00,240.96
             444.00,240.96 434.00,239.92 434.00,239.92
             434.00,239.92 423.00,239.92 423.00,239.92
             423.00,239.92 392.00,237.00 392.00,237.00
             392.00,237.00 383.00,237.00 383.00,237.00
             383.00,237.00 368.00,236.08 368.00,236.08
             368.00,236.08 341.00,236.08 341.00,236.08
             341.00,236.08 328.00,234.21 328.00,234.21
             328.00,234.21 304.00,233.00 304.00,233.00
             304.00,233.00 291.00,234.00 291.00,234.00
             291.00,234.00 274.00,233.00 274.00,233.00
             274.00,233.00 252.00,233.00 252.00,233.00
             252.00,233.00 237.00,234.32 237.00,234.32
             237.00,234.32 216.00,234.32 216.00,234.32
             216.00,234.32 208.00,234.32 208.00,234.32
             208.00,234.32 195.00,236.00 195.00,236.00
             195.00,236.00 163.00,236.00 163.00,236.00
             163.00,236.00 137.00,231.80 137.00,231.80
             137.00,231.80 125.00,235.51 125.00,235.51
             125.00,235.51 105.00,237.00 105.00,237.00
             105.00,237.00 93.00,238.82 93.00,238.82
             93.00,238.82 69.00,240.09 69.00,240.09
             69.00,240.09 30.83,240.09 30.83,240.09
             30.83,240.09 21.00,241.15 21.00,241.15
             21.00,241.15 12.00,241.15 12.00,241.15
             12.00,241.15 0.00,243.00 0.00,243.00 Z
           M 0.00,530.00
           C 0.00,530.00 0.00,538.00 0.00,538.00
             0.00,538.00 27.00,538.00 27.00,538.00
             27.00,538.00 40.00,536.62 40.00,536.62
             40.00,536.62 64.00,535.00 64.00,535.00
             64.00,535.00 105.00,535.00 105.00,535.00
             105.00,535.00 121.00,534.00 121.00,534.00
             121.00,534.00 145.00,533.00 145.00,533.00
             145.00,533.00 162.00,531.81 162.00,531.81
             162.00,531.81 194.00,531.81 194.00,531.81
             194.00,531.81 203.00,531.81 203.00,531.81
             203.00,531.81 210.00,531.81 210.00,531.81
             210.00,531.81 232.00,530.00 232.00,530.00
             232.00,530.00 262.00,529.00 262.00,529.00
             262.00,529.00 286.00,526.29 286.00,526.29
             286.00,526.29 307.00,524.91 307.00,524.91
             307.00,524.91 315.00,523.32 315.00,523.32
             315.00,523.32 334.00,522.00 334.00,522.00
             334.00,522.00 359.00,522.00 359.00,522.00
             359.00,522.00 374.00,523.00 374.00,523.00
             374.00,523.00 400.00,523.00 400.00,523.00
             400.00,523.00 427.00,519.46 427.00,519.46
             427.00,519.46 435.00,518.38 435.00,518.38
             435.00,518.38 444.00,516.02 444.00,516.02
             444.00,516.02 452.00,516.02 452.00,516.02
             452.00,516.02 498.00,515.00 498.00,515.00
             498.00,515.00 527.00,512.00 527.00,512.00
             527.00,512.00 578.00,512.00 578.00,512.00
             578.00,512.00 602.00,511.00 602.00,511.00
             602.00,511.00 617.00,512.00 617.00,512.00
             617.00,512.00 638.00,510.70 638.00,510.70
             638.00,510.70 649.00,509.01 649.00,509.01
             649.00,509.01 667.00,510.95 667.00,510.95
             667.00,510.95 686.00,510.95 686.00,510.95
             686.00,510.95 701.00,509.00 701.00,509.00
             701.00,509.00 725.00,509.00 725.00,509.00
             725.00,509.00 751.00,506.04 751.00,506.04
             751.00,506.04 761.00,506.91 761.00,506.91
             761.00,506.91 769.00,506.32 769.00,506.32
             769.00,506.32 778.00,506.96 778.00,506.96
             778.00,506.96 789.00,506.18 789.00,506.18
             789.00,506.18 811.00,508.00 811.00,508.00
             811.00,508.00 825.00,508.00 825.00,508.00
             825.00,508.00 825.00,500.96 825.00,500.96
             825.00,500.96 812.00,500.96 812.00,500.96
             812.00,500.96 800.00,500.00 800.00,500.00
             800.00,500.00 738.00,500.00 738.00,500.00
             738.00,500.00 722.00,501.00 722.00,501.00
             722.00,501.00 706.00,501.00 706.00,501.00
             706.00,501.00 692.00,502.82 692.00,502.82
             692.00,502.82 667.00,504.00 667.00,504.00
             667.00,504.00 654.00,503.00 654.00,503.00
             654.00,503.00 625.00,504.68 625.00,504.68
             625.00,504.68 588.00,504.00 588.00,504.00
             588.00,504.00 565.00,506.96 565.00,506.96
             565.00,506.96 550.00,506.96 550.00,506.96
             550.00,506.96 540.00,506.00 540.00,506.00
             540.00,506.00 524.00,506.00 524.00,506.00
             524.00,506.00 504.00,507.00 504.00,507.00
             504.00,507.00 487.00,507.96 487.00,507.96
             487.00,507.96 473.00,507.96 473.00,507.96
             473.00,507.96 459.00,507.17 459.00,507.17
             459.00,507.17 441.00,510.02 441.00,510.02
             441.00,510.02 431.00,510.02 431.00,510.02
             431.00,510.02 422.00,512.79 422.00,512.79
             422.00,512.79 386.00,516.00 386.00,516.00
             386.00,516.00 370.00,516.00 370.00,516.00
             370.00,516.00 359.00,515.05 359.00,515.05
             359.00,515.05 343.00,515.05 343.00,515.05
             343.00,515.05 300.00,517.00 300.00,517.00
             300.00,517.00 286.00,518.90 286.00,518.90
             286.00,518.90 254.00,521.09 254.00,521.09
             254.00,521.09 235.00,523.00 235.00,523.00
             235.00,523.00 180.00,523.00 180.00,523.00
             180.00,523.00 152.00,524.17 152.00,524.17
             152.00,524.17 137.00,526.00 137.00,526.00
             137.00,526.00 118.00,526.00 118.00,526.00
             118.00,526.00 103.00,527.00 103.00,527.00
             103.00,527.00 64.00,527.00 64.00,527.00
             64.00,527.00 40.00,528.91 40.00,528.91
             40.00,528.91 0.00,530.00 0.00,530.00 Z
           M 0.00,572.00
           C 0.00,572.00 0.00,582.00 0.00,582.00
             0.00,582.00 38.00,582.00 38.00,582.00
             38.00,582.00 54.00,581.00 54.00,581.00
             54.00,581.00 70.00,581.00 70.00,581.00
             70.00,581.00 95.00,579.00 95.00,579.00
             95.00,579.00 114.00,578.00 114.00,578.00
             114.00,578.00 163.00,578.00 163.00,578.00
             163.00,578.00 192.00,576.00 192.00,576.00
             192.00,576.00 212.00,575.00 212.00,575.00
             212.00,575.00 264.00,575.00 264.00,575.00
             264.00,575.00 281.00,574.00 281.00,574.00
             281.00,574.00 320.00,570.79 320.00,570.79
             320.00,570.79 327.00,569.21 327.00,569.21
             327.00,569.21 341.00,567.96 341.00,567.96
             341.00,567.96 351.00,567.96 351.00,567.96
             351.00,567.96 375.00,565.99 375.00,565.99
             375.00,565.99 402.00,565.99 402.00,565.99
             402.00,565.99 416.00,565.00 416.00,565.00
             416.00,565.00 441.00,565.00 441.00,565.00
             441.00,565.00 462.00,562.12 462.00,562.12
             462.00,562.12 473.00,562.12 473.00,562.12
             473.00,562.12 481.00,561.09 481.00,561.09
             481.00,561.09 495.00,562.00 495.00,562.00
             495.00,562.00 519.00,562.00 519.00,562.00
             542.26,561.96 547.16,556.66 576.00,558.49
             576.00,558.49 599.00,557.79 599.00,557.79
             605.90,556.80 603.04,555.02 615.00,555.00
             615.00,555.00 660.00,555.00 660.00,555.00
             660.00,555.00 674.00,554.01 674.00,554.01
             674.00,554.01 689.00,555.00 689.00,555.00
             689.00,555.00 710.00,555.00 710.00,555.00
             710.00,555.00 720.00,554.34 720.00,554.34
             720.00,554.34 729.00,555.00 729.00,555.00
             729.00,555.00 802.00,555.00 802.00,555.00
             802.00,555.00 825.00,554.00 825.00,554.00
             825.00,554.00 825.00,543.00 825.00,543.00
             825.00,543.00 759.00,543.00 759.00,543.00
             759.00,543.00 743.00,545.00 743.00,545.00
             743.00,545.00 720.00,543.32 720.00,543.32
             720.00,543.32 699.00,545.00 699.00,545.00
             699.00,545.00 668.00,543.00 668.00,543.00
             668.00,543.00 649.00,544.00 649.00,544.00
             649.00,544.00 624.00,544.00 624.00,544.00
             624.00,544.00 611.00,543.12 611.00,543.12
             611.00,543.12 601.00,545.91 601.00,545.91
             601.00,545.91 592.00,545.91 592.00,545.91
             592.00,545.91 584.00,546.96 584.00,546.96
             584.00,546.96 567.00,546.96 567.00,546.96
             567.00,546.96 557.00,546.32 557.00,546.32
             557.00,546.32 550.00,547.00 550.00,547.00
             550.00,547.00 542.00,547.00 542.00,547.00
             542.00,547.00 527.00,549.68 527.00,549.68
             527.00,549.68 499.00,551.00 499.00,551.00
             499.00,551.00 481.00,550.00 481.00,550.00
             481.00,550.00 451.00,553.00 451.00,553.00
             451.00,553.00 424.00,556.00 424.00,556.00
             424.00,556.00 348.00,556.00 348.00,556.00
             348.00,556.00 331.00,557.21 331.00,557.21
             331.00,557.21 324.00,558.79 324.00,558.79
             324.00,558.79 309.00,560.18 309.00,560.18
             309.00,560.18 302.00,561.68 302.00,561.68
             302.00,561.68 285.00,563.04 285.00,563.04
             285.00,563.04 268.00,563.04 268.00,563.04
             268.00,563.04 250.00,565.04 250.00,565.04
             250.00,565.04 236.00,565.04 236.00,565.04
             236.00,565.04 226.00,566.00 226.00,566.00
             226.00,566.00 178.00,566.00 178.00,566.00
             178.00,566.00 152.00,567.68 152.00,567.68
             152.00,567.68 140.00,567.09 140.00,567.09
             140.00,567.09 126.00,568.96 126.00,568.96
             126.00,568.96 114.00,568.96 114.00,568.96
             114.00,568.96 102.00,570.00 102.00,570.00
             102.00,570.00 62.00,570.00 62.00,570.00
             62.00,570.00 51.00,570.66 51.00,570.66
             51.00,570.66 44.00,570.08 44.00,570.08
             44.00,570.08 31.00,571.26 31.00,571.26
             31.00,571.26 0.00,572.00 0.00,572.00 Z
           M 819.00,703.00
           C 821.83,704.09 822.90,704.34 825.00,702.00
             825.00,702.00 819.00,703.00 819.00,703.00 Z
           M 791.00,705.00
           C 796.30,706.50 806.29,707.04 811.00,704.00
             805.70,702.50 795.71,701.96 791.00,705.00 Z
           M 813.00,703.00
           C 813.00,703.00 813.00,704.00 813.00,704.00
             813.00,704.00 814.00,703.00 814.00,703.00
             814.00,703.00 813.00,703.00 813.00,703.00 Z
           M 695.00,709.00
           C 699.34,712.17 704.86,710.06 710.00,710.00
             710.00,710.00 734.00,710.00 734.00,710.00
             734.00,710.00 769.00,707.00 769.00,707.00
             776.96,706.99 777.05,707.05 785.00,705.88
             779.33,701.82 762.97,704.62 756.00,705.88
             742.10,708.01 728.06,707.98 714.00,708.00
             714.00,708.00 695.00,709.00 695.00,709.00 Z
           M 667.00,712.00
           C 671.61,713.83 683.10,713.19 688.00,712.00
             682.69,709.89 672.71,711.25 667.00,712.00 Z
           M 602.00,719.00
           C 605.76,720.49 610.00,720.00 614.00,720.00
             620.11,719.99 628.02,719.67 634.00,718.68
             634.00,718.68 644.00,716.60 644.00,716.60
             651.48,715.60 652.00,718.25 662.00,714.07
             662.00,714.07 653.00,714.07 653.00,714.07
             653.00,714.07 644.00,714.07 644.00,714.07
             644.00,714.07 631.00,716.70 631.00,716.70
             631.00,716.70 602.00,719.00 602.00,719.00 Z
           M 576.00,719.00
           C 576.00,719.00 583.00,720.00 583.00,720.00
             583.00,720.00 576.00,719.00 576.00,719.00 Z
           M 506.00,721.00
           C 510.46,724.28 518.56,723.00 524.00,723.00
             537.75,723.00 559.31,724.12 572.00,720.95
             565.67,718.49 551.08,720.51 544.00,720.95
             544.00,720.95 533.00,720.04 533.00,720.04
             533.00,720.04 506.00,721.00 506.00,721.00 Z
           M 502.00,721.00
           C 502.00,721.00 502.00,722.00 502.00,722.00
             502.00,722.00 503.00,721.00 503.00,721.00
             503.00,721.00 502.00,721.00 502.00,721.00 Z
           M 429.00,731.00
           C 429.00,731.00 429.00,732.00 429.00,732.00
             429.00,732.00 430.00,731.00 430.00,731.00
             430.00,731.00 429.00,731.00 429.00,731.00 Z
           M 334.00,736.00
           C 334.00,736.00 342.00,737.00 342.00,737.00
             342.00,737.00 334.00,736.00 334.00,736.00 Z
           M 347.00,735.00
           C 347.00,735.00 355.00,736.00 355.00,736.00
             355.00,736.00 347.00,735.00 347.00,735.00 Z
           M 197.00,742.00
           C 197.00,742.00 207.00,743.17 207.00,743.17
             207.00,743.17 232.00,745.00 232.00,745.00
             232.00,745.00 251.00,743.09 251.00,743.09
             251.00,743.09 310.00,739.00 310.00,739.00
             303.89,735.45 300.17,737.66 294.00,737.66
             294.00,737.66 288.00,737.09 288.00,737.09
             288.00,737.09 272.00,738.21 272.00,738.21
             272.00,738.21 263.00,740.79 263.00,740.79
             263.00,740.79 238.00,742.26 238.00,742.26
             238.00,742.26 218.00,741.00 218.00,741.00
             218.00,741.00 197.00,742.00 197.00,742.00 Z
           M 183.00,742.00
           C 183.00,742.00 188.00,743.00 188.00,743.00
             188.00,743.00 183.00,742.00 183.00,742.00 Z
           M 0.00,754.00
           C 0.00,754.00 0.00,756.00 0.00,756.00
             0.00,756.00 43.00,756.00 43.00,756.00
             43.00,756.00 64.00,753.07 64.00,753.07
             64.00,753.07 73.00,753.07 73.00,753.07
             73.00,753.07 80.00,752.22 80.00,752.22
             80.00,752.22 87.00,752.22 87.00,752.22
             87.00,752.22 95.00,750.78 95.00,750.78
             95.00,750.78 101.00,750.78 101.00,750.78
             101.00,750.78 116.00,748.82 116.00,748.82
             116.00,748.82 132.00,746.00 132.00,746.00
             132.00,746.00 174.00,745.00 174.00,745.00
             167.00,740.93 156.74,743.91 149.00,744.00
             149.00,744.00 133.00,744.00 133.00,744.00
             124.20,744.01 115.67,745.54 107.00,746.71
             107.00,746.71 91.00,748.17 91.00,748.17
             91.00,748.17 70.00,750.00 70.00,750.00
             70.00,750.00 54.00,751.37 54.00,751.37
             46.14,752.85 44.74,753.99 36.00,754.00
             36.00,754.00 0.00,754.00 0.00,754.00 Z
           M 825.00,812.00
           C 825.00,812.00 825.00,801.00 825.00,801.00
             825.00,801.00 793.00,803.00 793.00,803.00
             793.00,803.00 750.00,807.00 750.00,807.00
             750.00,807.00 734.00,807.00 734.00,807.00
             734.00,807.00 707.00,809.00 707.00,809.00
             707.00,809.00 691.00,809.00 691.00,809.00
             691.00,809.00 675.00,810.08 675.00,810.08
             675.00,810.08 661.00,810.08 661.00,810.08
             661.00,810.08 640.00,813.00 640.00,813.00
             640.00,813.00 624.00,813.00 624.00,813.00
             624.00,813.00 611.00,814.16 611.00,814.16
             611.00,814.16 589.00,814.16 589.00,814.16
             589.00,814.16 564.00,819.00 564.00,819.00
             564.00,819.00 539.00,817.00 539.00,817.00
             518.63,816.77 527.38,818.02 516.00,819.70
             516.00,819.70 505.00,820.38 505.00,820.38
             505.00,820.38 497.00,822.67 497.00,822.67
             497.00,822.67 487.00,823.30 487.00,823.30
             487.00,823.30 476.00,825.90 476.00,825.90
             476.00,825.90 457.00,827.17 457.00,827.17
             457.00,827.17 449.00,828.70 449.00,828.70
             449.00,828.70 429.00,830.00 429.00,830.00
             429.00,830.00 386.00,830.00 386.00,830.00
             386.00,830.00 368.00,831.83 368.00,831.83
             368.00,831.83 343.00,833.00 343.00,833.00
             343.00,833.00 308.00,835.00 308.00,835.00
             308.00,835.00 294.00,834.09 294.00,834.09
             294.00,834.09 271.00,836.92 271.00,836.92
             271.00,836.92 262.00,838.81 262.00,838.81
             262.00,838.81 250.00,838.10 250.00,838.10
             250.00,838.10 240.00,839.04 240.00,839.04
             240.00,839.04 228.00,839.04 228.00,839.04
             228.00,839.04 218.00,840.00 218.00,840.00
             218.00,840.00 197.00,840.00 197.00,840.00
             197.00,840.00 174.00,842.04 174.00,842.04
             174.00,842.04 157.00,842.04 157.00,842.04
             157.00,842.04 147.00,843.10 147.00,843.10
             147.00,843.10 94.00,843.10 94.00,843.10
             92.23,843.00 89.69,842.95 88.00,843.10
             88.00,843.10 75.06,847.57 75.06,847.57
             73.61,848.33 72.18,849.39 71.74,851.05
             70.54,855.59 77.43,855.00 80.00,855.00
             80.00,855.00 100.00,853.18 100.00,853.18
             100.00,853.18 110.00,854.00 110.00,854.00
             110.00,854.00 128.00,854.00 128.00,854.00
             128.00,854.00 153.00,851.96 153.00,851.96
             153.00,851.96 165.00,851.96 165.00,851.96
             165.00,851.96 173.00,851.08 173.00,851.08
             173.00,851.08 182.00,851.79 182.00,851.79
             182.00,851.79 207.00,849.04 207.00,849.04
             207.00,849.04 215.00,849.87 215.00,849.87
             215.00,849.87 223.00,849.37 223.00,849.37
             223.00,849.37 231.00,849.91 231.00,849.91
             231.00,849.91 238.00,848.92 238.00,848.92
             238.00,848.92 253.00,848.92 253.00,848.92
             253.00,848.92 277.00,848.92 277.00,848.92
             277.00,848.92 291.00,847.55 291.00,847.55
             291.00,847.55 297.00,846.02 297.00,846.02
             297.00,846.02 305.00,846.02 305.00,846.02
             305.00,846.02 327.00,845.00 327.00,845.00
             333.14,844.92 334.59,843.99 340.00,843.29
             340.00,843.29 359.00,842.00 359.00,842.00
             359.00,842.00 416.00,842.00 416.00,842.00
             416.00,842.00 447.00,839.00 447.00,839.00
             454.52,838.99 464.67,838.96 472.00,837.74
             472.00,837.74 482.00,835.04 482.00,835.04
             482.00,835.04 493.00,835.04 493.00,835.04
             500.29,833.69 495.89,832.03 509.00,832.00
             519.45,831.98 518.72,830.48 525.00,830.09
             525.00,830.09 542.00,831.79 542.00,831.79
             542.00,831.79 556.00,830.09 556.00,830.09
             556.00,830.09 612.00,825.83 612.00,825.83
             626.12,824.40 616.14,823.26 639.00,823.00
             639.00,823.00 653.00,822.00 653.00,822.00
             653.00,822.00 677.00,820.83 677.00,820.83
             677.00,820.83 698.00,818.79 698.00,818.79
             698.00,818.79 721.00,818.79 721.00,818.79
             721.00,818.79 731.00,818.79 731.00,818.79
             731.00,818.79 739.00,818.79 739.00,818.79
             739.00,818.79 764.00,816.00 764.00,816.00
             764.00,816.00 790.00,814.91 790.00,814.91
             790.00,814.91 799.00,813.18 799.00,813.18
             799.00,813.18 825.00,812.00 825.00,812.00 Z
           M 0.00,848.96
           C 0.00,848.96 0.00,859.00 0.00,859.00
             0.00,859.00 11.00,857.93 11.00,857.93
             11.00,857.93 27.00,857.93 27.00,857.93
             27.00,857.93 52.00,857.93 52.00,857.93
             52.00,857.93 59.00,855.00 59.00,855.00
             59.00,855.00 56.58,851.02 56.58,851.02
             56.58,851.02 39.00,849.00 39.00,849.00
             39.00,849.00 23.00,848.01 23.00,848.01
             23.00,848.01 13.00,848.96 13.00,848.96
             13.00,848.96 0.00,848.96 0.00,848.96 Z
           M 824.00,935.00
           C 824.00,935.00 824.00,925.00 824.00,925.00
             817.31,923.95 812.85,926.20 807.00,929.40
             804.70,930.65 801.84,933.15 799.17,933.09
             797.16,933.04 795.40,931.28 791.99,930.35
             791.99,930.35 777.00,928.21 777.00,928.21
             772.51,928.03 761.69,931.21 757.00,932.39
             757.00,932.39 735.00,934.96 735.00,934.96
             735.00,934.96 719.00,933.79 719.00,933.79
             712.56,932.90 708.04,931.09 701.00,931.00
             691.57,930.89 685.13,932.13 676.28,935.46
             676.28,935.46 671.91,937.46 671.91,937.46
             667.71,938.88 652.51,941.19 648.00,940.96
             648.00,940.96 638.00,939.10 638.00,939.10
             638.00,939.10 615.00,938.00 615.00,938.00
             615.00,938.00 592.00,936.09 592.00,936.09
             592.00,936.09 566.00,938.00 566.00,938.00
             566.00,938.00 557.00,938.00 557.00,938.00
             549.28,938.11 550.85,939.41 545.00,940.77
             545.00,940.77 513.00,946.91 513.00,946.91
             504.42,948.52 501.54,947.64 498.00,948.22
             498.00,948.22 490.00,950.86 490.00,950.86
             490.00,950.86 473.00,950.86 473.00,950.86
             473.00,950.86 450.00,953.92 450.00,953.92
             450.00,953.92 439.00,953.92 439.00,953.92
             439.00,953.92 430.00,954.87 430.00,954.87
             430.00,954.87 407.00,954.87 407.00,954.87
             407.00,954.87 388.00,957.00 388.00,957.00
             388.00,957.00 368.00,958.00 368.00,958.00
             368.00,958.00 267.00,958.00 267.00,958.00
             267.00,958.00 236.00,961.00 236.00,961.00
             236.00,961.00 218.00,962.06 218.00,962.06
             218.00,962.06 211.00,962.06 211.00,962.06
             211.00,962.06 193.00,964.99 193.00,964.99
             193.00,964.99 173.00,963.70 173.00,963.70
             173.00,963.70 167.00,961.54 167.00,961.54
             167.00,961.54 151.00,959.00 151.00,959.00
             141.80,958.88 132.11,960.12 123.00,961.43
             114.37,962.67 113.38,963.99 104.00,964.00
             104.00,964.00 78.00,964.00 78.00,964.00
             78.00,964.00 42.00,968.00 42.00,968.00
             42.00,968.00 25.00,968.00 25.00,968.00
             19.37,968.01 7.78,970.24 3.14,973.36
             -0.80,976.02 -0.97,981.41 3.14,982.55
             6.51,983.49 9.82,981.33 13.00,980.55
             16.10,979.80 19.79,980.04 23.00,980.00
             32.61,979.87 30.86,977.13 41.00,977.00
             41.00,977.00 63.00,977.00 63.00,977.00
             70.29,977.10 70.69,978.65 75.00,978.86
             78.54,979.03 81.59,977.79 85.00,977.30
             85.00,977.30 96.00,976.68 96.00,976.68
             96.00,976.68 105.00,974.46 105.00,974.46
             105.00,974.46 114.00,973.45 114.00,973.45
             120.58,971.84 122.25,970.38 130.00,970.04
             145.42,969.37 154.84,975.33 170.00,974.99
             170.00,974.99 198.00,972.68 198.00,972.68
             204.26,971.65 209.46,970.08 216.00,969.91
             216.00,969.91 226.00,969.91 226.00,969.91
             234.00,968.86 233.76,967.02 245.00,967.00
             245.00,967.00 275.00,967.00 275.00,967.00
             275.00,967.00 289.00,967.95 289.00,967.95
             289.00,967.95 308.00,967.95 308.00,967.95
             308.00,967.95 320.00,967.00 320.00,967.00
             320.00,967.00 351.00,967.00 351.00,967.00
             351.00,967.00 375.00,965.83 375.00,965.83
             382.01,965.08 380.07,964.02 390.00,964.00
             390.00,964.00 409.00,964.00 409.00,964.00
             409.00,964.00 421.00,963.04 421.00,963.04
             421.00,963.04 435.00,963.04 435.00,963.04
             443.30,962.89 441.69,961.12 450.00,961.00
             450.00,961.00 490.00,960.00 490.00,960.00
             490.00,960.00 516.00,956.85 516.00,956.85
             516.00,956.85 535.00,956.85 535.00,956.85
             535.00,956.85 546.00,954.30 546.00,954.30
             546.00,954.30 561.00,952.68 561.00,952.68
             566.17,951.71 568.35,949.52 572.00,948.49
             578.22,946.75 598.95,944.49 606.00,944.09
             613.75,943.65 621.40,945.91 629.00,946.82
             629.00,946.82 649.00,948.10 649.00,948.10
             649.00,948.10 659.00,948.10 659.00,948.10
             659.00,948.10 665.00,949.62 665.00,949.62
             667.38,950.04 677.23,949.10 680.00,948.70
             680.00,948.70 692.00,946.46 692.00,946.46
             692.00,946.46 698.00,943.87 698.00,943.87
             698.00,943.87 709.00,941.19 709.00,941.19
             709.00,941.19 725.00,941.19 725.00,941.19
             731.41,941.08 730.79,941.83 736.00,942.68
             736.00,942.68 747.00,943.26 747.00,943.26
             749.78,943.36 760.62,943.01 763.00,942.39
             771.22,940.27 768.85,938.18 779.83,937.87
             786.94,937.67 787.90,940.25 795.00,939.95
             800.12,939.74 801.66,938.08 806.00,937.33
             806.00,937.33 815.00,936.82 815.00,936.82
             815.00,936.82 824.00,935.00 824.00,935.00 Z
           M 793.00,1124.00
           C 795.98,1128.27 802.32,1127.00 807.00,1127.00
             802.29,1122.21 799.10,1123.21 793.00,1124.00 Z
           M 752.00,1131.00
           C 757.43,1131.00 771.86,1130.05 776.00,1127.00
             776.00,1127.00 755.14,1127.74 755.14,1127.74
             755.14,1127.74 752.00,1131.00 752.00,1131.00 Z
           M 482.00,1140.00
           C 486.45,1141.82 492.21,1141.99 497.00,1142.00
             497.00,1142.00 519.00,1142.00 519.00,1142.00
             519.00,1142.00 535.00,1141.00 535.00,1141.00
             549.82,1140.83 543.08,1139.76 551.00,1138.09
             551.00,1138.09 565.00,1138.09 565.00,1138.09
             565.00,1138.09 587.00,1138.09 587.00,1138.09
             587.00,1138.09 597.00,1137.20 597.00,1137.20
             597.00,1137.20 609.00,1137.20 609.00,1137.20
             609.00,1137.20 618.00,1137.20 618.00,1137.20
             618.00,1137.20 627.00,1136.25 627.00,1136.25
             627.00,1136.25 652.00,1138.00 652.00,1138.00
             672.85,1138.24 663.81,1136.89 676.00,1135.06
             676.00,1135.06 686.00,1135.06 686.00,1135.06
             686.00,1135.06 709.00,1132.18 709.00,1132.18
             709.00,1132.18 717.00,1132.96 717.00,1132.96
             717.00,1132.96 728.00,1132.04 728.00,1132.04
             728.00,1132.04 739.00,1132.04 739.00,1132.04
             743.30,1131.99 747.15,1132.67 750.00,1129.00
             750.00,1129.00 703.00,1129.00 703.00,1129.00
             703.00,1129.00 654.00,1133.00 654.00,1133.00
             654.00,1133.00 646.00,1132.32 646.00,1132.32
             646.00,1132.32 635.00,1133.00 635.00,1133.00
             635.00,1133.00 590.00,1133.00 590.00,1133.00
             590.00,1133.00 578.42,1134.69 578.42,1134.69
             578.42,1134.69 563.00,1134.00 563.00,1134.00
             563.00,1134.00 545.00,1136.09 545.00,1136.09
             545.00,1136.09 533.00,1136.09 533.00,1136.09
             533.00,1136.09 524.00,1137.89 524.00,1137.89
             524.00,1137.89 514.00,1137.08 514.00,1137.08
             514.00,1137.08 506.00,1137.91 506.00,1137.91
             506.00,1137.91 482.00,1140.00 482.00,1140.00 Z
           M 185.00,1160.00
           C 188.49,1165.37 192.72,1163.33 198.00,1163.34
             198.00,1163.34 206.00,1163.99 206.00,1163.99
             206.00,1163.99 245.00,1161.00 245.00,1161.00
             245.00,1161.00 264.00,1161.00 264.00,1161.00
             273.96,1160.98 271.93,1159.94 279.00,1159.17
             279.00,1159.17 318.00,1155.70 318.00,1155.70
             318.00,1155.70 333.00,1154.72 333.00,1154.72
             333.00,1154.72 355.00,1151.28 355.00,1151.28
             355.00,1151.28 365.00,1150.68 365.00,1150.68
             373.03,1149.37 373.58,1148.01 383.00,1148.00
             383.00,1148.00 426.00,1148.00 426.00,1148.00
             436.65,1147.95 435.86,1145.92 441.00,1145.34
             445.76,1144.81 444.37,1146.55 454.00,1144.00
             447.52,1140.23 438.41,1142.99 431.00,1143.00
             431.00,1143.00 393.00,1143.00 393.00,1143.00
             382.95,1143.02 385.19,1144.32 379.00,1144.90
             379.00,1144.90 357.00,1146.18 357.00,1146.18
             357.00,1146.18 349.00,1147.83 349.00,1147.83
             349.00,1147.83 334.00,1149.17 334.00,1149.17
             323.38,1150.20 325.86,1151.84 312.00,1152.00
             312.00,1152.00 294.00,1153.18 294.00,1153.18
             294.00,1153.18 287.00,1154.68 287.00,1154.68
             287.00,1154.68 270.00,1156.08 270.00,1156.08
             270.00,1156.08 248.00,1156.08 248.00,1156.08
             248.00,1156.08 223.00,1159.00 223.00,1159.00
             212.11,1159.02 195.11,1158.19 185.00,1160.00 Z
           M 46.00,1167.00
           C 48.23,1172.53 57.97,1171.09 63.00,1170.99
             71.62,1170.80 77.73,1169.48 86.00,1168.30
             86.00,1168.30 94.00,1167.72 94.00,1167.72
             94.00,1167.72 105.00,1166.21 105.00,1166.21
             105.00,1166.21 125.00,1168.00 125.00,1168.00
             125.00,1168.00 154.00,1168.00 154.00,1168.00
             157.10,1167.96 171.26,1164.82 173.71,1163.49
             175.27,1162.65 175.15,1162.28 176.00,1161.00
             176.00,1161.00 169.00,1160.47 169.00,1160.47
             169.00,1160.47 161.00,1162.02 161.00,1162.02
             161.00,1162.02 149.00,1162.02 149.00,1162.02
             149.00,1162.02 138.83,1164.06 138.83,1164.06
             138.83,1164.06 120.00,1162.00 120.00,1162.00
             120.00,1162.00 104.00,1162.00 104.00,1162.00
             104.00,1162.00 85.00,1164.68 85.00,1164.68
             85.00,1164.68 56.00,1167.91 56.00,1167.91
             56.00,1167.91 46.00,1167.00 46.00,1167.00 Z
           M 0.00,1174.00
           C 0.00,1174.00 17.00,1171.44 17.00,1171.44
             17.00,1171.44 25.00,1170.83 25.00,1170.83
             25.00,1170.83 39.00,1168.98 39.00,1168.98
             32.54,1164.24 18.66,1168.63 11.00,1168.98
             5.41,1169.21 1.18,1167.32 0.00,1174.00 Z" />
</svg>
