<?xml version="1.0" encoding="UTF-8" standalone="no"?>
<!DOCTYPE svg PUBLIC "-//W3C//DTD SVG 20010904//EN"
              "http://www.w3.org/TR/2001/REC-SVG-20010904/DTD/svg10.dtd">

<svg xmlns="http://www.w3.org/2000/svg"
     width="11.3333in" height="8.80556in"
     viewBox="0 0 816 634">
  <path id="Selection"
        fill="pink" stroke="pink" stroke-width="1"
        d="M 0.00,20.00
           C 0.00,20.00 0.00,33.00 0.00,33.00
             0.00,33.00 62.00,32.00 62.00,32.00
             62.00,32.00 78.00,33.00 78.00,33.00
             78.00,33.00 95.00,33.00 95.00,33.00
             95.00,33.00 114.00,35.00 114.00,35.00
             114.00,35.00 136.00,35.00 136.00,35.00
             136.00,35.00 162.00,33.00 162.00,33.00
             162.00,33.00 221.00,33.00 221.00,33.00
             221.00,33.00 265.00,30.00 265.00,30.00
             265.00,30.00 282.00,29.00 282.00,29.00
             282.00,29.00 343.00,29.00 343.00,29.00
             343.00,29.00 354.00,28.04 354.00,28.04
             356.52,28.08 357.64,28.96 361.00,28.66
             361.00,28.66 382.00,26.00 382.00,26.00
             382.00,26.00 396.00,26.00 396.00,26.00
             396.00,26.00 426.00,29.00 426.00,29.00
             426.00,29.00 441.00,29.66 441.00,29.66
             441.00,29.66 447.00,29.09 447.00,29.09
             451.35,28.85 453.10,29.64 457.00,29.96
             457.00,29.96 472.00,29.96 472.00,29.96
             482.50,30.02 480.96,31.49 487.00,31.90
             487.00,31.90 504.00,30.04 504.00,30.04
             504.00,30.04 514.00,30.04 514.00,30.04
             514.00,30.04 530.00,29.00 530.00,29.00
             530.00,29.00 547.00,26.96 547.00,26.96
             547.00,26.96 560.00,26.96 560.00,26.96
             560.00,26.96 569.00,26.03 569.00,26.03
             569.00,26.03 581.00,27.00 581.00,27.00
             600.97,27.23 616.58,36.90 637.00,31.00
             636.37,28.73 635.90,26.20 634.42,24.30
             629.60,18.16 620.03,20.12 613.00,17.69
             604.95,14.91 604.42,16.63 597.00,15.71
             597.00,15.71 587.00,14.51 587.00,14.51
             587.00,14.51 579.00,14.51 579.00,14.51
             579.00,14.51 573.00,14.51 573.00,14.51
             573.00,14.51 555.00,16.00 555.00,16.00
             555.00,16.00 524.00,19.00 524.00,19.00
             524.00,19.00 494.00,21.00 494.00,21.00
             494.00,21.00 473.00,21.00 473.00,21.00
             473.00,21.00 448.00,19.00 448.00,19.00
             448.00,19.00 432.00,19.00 432.00,19.00
             422.34,18.98 425.45,18.10 419.00,17.21
             419.00,17.21 401.00,16.09 401.00,16.09
             401.00,16.09 371.00,16.09 371.00,16.09
             363.58,17.08 365.85,18.98 354.00,19.00
             354.00,19.00 258.00,19.00 258.00,19.00
             258.00,19.00 235.00,21.08 235.00,21.08
             235.00,21.08 224.00,21.08 224.00,21.08
             224.00,21.08 217.00,22.22 217.00,22.22
             212.96,22.52 211.31,21.57 208.00,21.46
             208.00,21.46 196.00,22.00 196.00,22.00
             196.00,22.00 175.00,21.00 175.00,21.00
             175.00,21.00 149.00,22.00 149.00,22.00
             149.00,22.00 136.00,23.00 136.00,23.00
             136.00,23.00 117.00,23.00 117.00,23.00
             117.00,23.00 86.00,20.10 86.00,20.10
             86.00,20.10 56.00,20.10 56.00,20.10
             56.00,20.10 41.00,21.42 41.00,21.42
             37.03,21.33 35.70,20.01 27.00,20.00
             27.00,20.00 0.00,20.00 0.00,20.00 Z
           M 816.00,43.08
           C 816.00,43.08 816.00,33.00 816.00,33.00
             816.00,33.00 753.00,33.00 753.00,33.00
             753.00,33.00 734.00,32.00 734.00,32.00
             734.00,32.00 706.00,32.00 706.00,32.00
             706.00,32.00 688.00,30.09 688.00,30.09
             688.00,30.09 666.00,28.70 666.00,28.70
             661.88,28.22 654.13,25.04 650.60,28.70
             647.17,32.05 650.64,36.45 654.02,38.08
             661.89,41.88 670.46,41.96 679.00,42.00
             679.00,42.00 695.00,43.00 695.00,43.00
             695.00,43.00 755.00,43.00 755.00,43.00
             766.04,43.02 763.30,44.88 772.00,45.00
             772.00,45.00 788.00,45.00 788.00,45.00
             788.00,45.00 802.00,43.08 802.00,43.08
             802.00,43.08 816.00,43.08 816.00,43.08 Z
           M 0.00,105.00
           C 0.00,105.00 0.00,116.92 0.00,116.92
             0.00,116.92 11.00,116.92 11.00,116.92
             11.00,116.92 27.00,115.00 27.00,115.00
             27.00,115.00 100.00,112.91 100.00,112.91
             100.00,112.91 111.00,111.29 111.00,111.29
             111.00,111.29 140.00,108.91 140.00,108.91
             140.00,108.91 146.00,108.26 146.00,108.26
             146.00,108.26 162.00,110.00 162.00,110.00
             162.00,110.00 192.00,110.00 192.00,110.00
             192.00,110.00 217.00,108.00 217.00,108.00
             217.00,108.00 258.00,108.00 258.00,108.00
             258.00,108.00 299.00,111.00 299.00,111.00
             299.00,111.00 309.00,110.18 309.00,110.18
             309.00,110.18 319.00,110.83 319.00,110.83
             319.00,110.83 336.00,109.01 336.00,109.01
             336.00,109.01 359.00,111.00 359.00,111.00
             359.00,111.00 387.00,111.00 387.00,111.00
             387.00,111.00 402.00,112.00 402.00,112.00
             402.00,112.00 416.00,112.00 416.00,112.00
             416.00,112.00 435.00,114.04 435.00,114.04
             435.00,114.04 449.00,114.04 449.00,114.04
             449.00,114.04 460.00,115.09 460.00,115.09
             460.00,115.09 477.00,115.09 477.00,115.09
             477.00,115.09 492.00,117.00 492.00,117.00
             492.00,117.00 514.00,118.13 514.00,118.13
             514.00,118.13 534.00,118.13 534.00,118.13
             534.00,118.13 544.00,118.13 544.00,118.13
             544.00,118.13 552.00,118.13 552.00,118.13
             552.00,118.13 563.00,119.41 563.00,119.41
             563.00,119.41 598.00,120.00 598.00,120.00
             598.00,120.00 626.00,118.17 626.00,118.17
             626.00,118.17 636.00,118.17 636.00,118.17
             636.00,118.17 669.00,118.17 669.00,118.17
             669.00,118.17 686.00,117.00 686.00,117.00
             686.00,117.00 712.00,117.00 712.00,117.00
             712.00,117.00 732.00,115.00 732.00,115.00
             732.00,115.00 749.00,115.00 749.00,115.00
             749.00,115.00 762.00,115.95 762.00,115.95
             762.00,115.95 774.00,115.95 774.00,115.95
             774.00,115.95 781.00,115.37 781.00,115.37
             781.00,115.37 800.00,117.00 800.00,117.00
             800.00,117.00 816.00,117.00 816.00,117.00
             816.00,117.00 816.00,107.00 816.00,107.00
             816.00,107.00 796.00,107.00 796.00,107.00
             796.00,107.00 783.00,106.15 783.00,106.15
             783.00,106.15 772.00,106.15 772.00,106.15
             772.00,106.15 762.00,106.15 762.00,106.15
             762.00,106.15 750.00,107.00 750.00,107.00
             750.00,107.00 733.00,106.09 733.00,106.09
             733.00,106.09 724.00,106.97 724.00,106.97
             724.00,106.97 715.00,106.18 715.00,106.18
             715.00,106.18 703.00,107.00 703.00,107.00
             703.00,107.00 661.00,107.00 661.00,107.00
             661.00,107.00 644.00,108.04 644.00,108.04
             644.00,108.04 605.00,108.04 605.00,108.04
             605.00,108.04 591.00,108.04 591.00,108.04
             591.00,108.04 579.00,109.00 579.00,109.00
             579.00,109.00 557.00,109.00 557.00,109.00
             557.00,109.00 545.00,109.74 545.00,109.74
             545.00,109.74 530.00,108.00 530.00,108.00
             530.00,108.00 513.00,108.00 513.00,108.00
             513.00,108.00 494.00,107.00 494.00,107.00
             494.00,107.00 477.00,105.92 477.00,105.92
             477.00,105.92 465.00,105.92 465.00,105.92
             465.00,105.92 446.00,104.00 446.00,104.00
             446.00,104.00 414.00,102.83 414.00,102.83
             414.00,102.83 393.00,101.00 393.00,101.00
             393.00,101.00 376.00,101.00 376.00,101.00
             376.00,101.00 354.00,99.00 354.00,99.00
             354.00,99.00 338.00,100.00 338.00,100.00
             338.00,100.00 321.00,98.21 321.00,98.21
             321.00,98.21 299.00,96.51 299.00,96.51
             299.00,96.51 284.00,97.96 284.00,97.96
             284.00,97.96 270.00,97.00 270.00,97.00
             270.00,97.00 224.00,97.00 224.00,97.00
             224.00,97.00 196.00,98.18 196.00,98.18
             196.00,98.18 184.00,100.00 184.00,100.00
             184.00,100.00 153.00,100.00 153.00,100.00
             153.00,100.00 128.00,95.02 128.00,95.02
             128.00,95.02 111.00,99.38 111.00,99.38
             111.00,99.38 84.00,101.96 84.00,101.96
             84.00,101.96 75.00,101.96 75.00,101.96
             75.00,101.96 60.00,103.00 60.00,103.00
             60.00,103.00 44.00,104.00 44.00,104.00
             44.00,104.00 0.00,105.00 0.00,105.00 Z
           M 0.00,204.00
           C 0.00,204.00 0.00,214.22 0.00,214.22
             0.00,214.22 17.00,214.22 17.00,214.22
             17.00,214.22 39.00,213.26 39.00,213.26
             39.00,213.26 60.00,211.00 60.00,211.00
             60.00,211.00 105.00,211.00 105.00,211.00
             105.00,211.00 121.00,210.00 121.00,210.00
             121.00,210.00 144.00,208.96 144.00,208.96
             144.00,208.96 157.00,208.96 157.00,208.96
             157.00,208.96 166.00,208.15 166.00,208.15
             166.00,208.15 176.00,208.15 176.00,208.15
             176.00,208.15 205.00,208.15 205.00,208.15
             205.00,208.15 217.00,207.04 217.00,207.04
             217.00,207.04 232.00,207.04 232.00,207.04
             232.00,207.04 256.00,205.00 256.00,205.00
             256.00,205.00 276.00,203.83 276.00,203.83
             276.00,203.83 287.00,202.68 287.00,202.68
             292.23,201.82 291.58,201.08 298.00,201.00
             298.00,201.00 331.00,198.00 331.00,198.00
             331.00,198.00 350.00,198.00 350.00,198.00
             350.00,198.00 377.00,200.00 377.00,200.00
             389.90,200.15 393.74,199.36 406.00,198.17
             406.00,198.17 414.00,197.56 414.00,197.56
             414.00,197.56 423.00,195.37 423.00,195.37
             423.00,195.37 432.00,194.16 432.00,194.16
             432.00,194.16 440.00,192.13 440.00,192.13
             457.71,190.06 478.88,191.03 497.00,191.00
             497.00,191.00 521.00,188.00 521.00,188.00
             521.00,188.00 543.00,188.00 543.00,188.00
             543.00,188.00 556.00,189.00 556.00,189.00
             556.00,189.00 575.00,187.88 575.00,187.88
             575.00,187.88 590.00,187.88 590.00,187.88
             590.00,187.88 602.00,187.88 602.00,187.88
             602.00,187.88 623.00,187.88 623.00,187.88
             634.97,187.98 635.05,185.57 642.00,185.10
             647.59,184.72 649.44,186.27 654.00,186.82
             654.00,186.82 677.01,187.97 677.01,187.97
             685.53,187.89 684.70,185.02 697.00,185.00
             697.00,185.00 723.00,185.00 723.00,185.00
             723.00,185.00 749.00,183.04 749.00,183.04
             749.00,183.04 764.00,183.04 764.00,183.04
             764.00,183.04 771.00,183.91 771.00,183.91
             771.00,183.91 783.00,182.91 783.00,182.91
             783.00,182.91 795.00,184.00 795.00,184.00
             795.00,184.00 816.00,184.00 816.00,184.00
             816.00,184.00 816.00,175.00 816.00,175.00
             816.00,175.00 766.00,174.00 766.00,174.00
             766.00,174.00 732.00,174.00 732.00,174.00
             732.00,174.00 716.00,175.00 716.00,175.00
             716.00,175.00 698.00,175.00 698.00,175.00
             698.00,175.00 684.00,176.70 684.00,176.70
             684.00,176.70 664.00,178.00 664.00,178.00
             664.00,178.00 654.00,177.04 654.00,177.04
             654.00,177.04 641.00,177.04 641.00,177.04
             641.00,177.04 624.00,178.00 624.00,178.00
             624.00,178.00 578.00,178.00 578.00,178.00
             578.00,178.00 562.00,180.80 562.00,180.80
             562.00,180.80 549.00,179.96 549.00,179.96
             549.00,179.96 537.00,179.96 537.00,179.96
             537.00,179.96 527.00,179.00 527.00,179.00
             527.00,179.00 497.00,181.00 497.00,181.00
             497.00,181.00 453.00,181.00 453.00,181.00
             453.00,181.00 431.00,183.83 431.00,183.83
             431.00,183.83 423.00,184.34 423.00,184.34
             423.00,184.34 416.00,186.53 416.00,186.53
             416.00,186.53 402.00,188.08 402.00,188.08
             402.00,188.08 392.00,188.08 392.00,188.08
             392.00,188.08 374.00,190.26 374.00,190.26
             374.00,190.26 346.00,188.04 346.00,188.04
             346.00,188.04 335.00,189.08 335.00,189.08
             335.00,189.08 323.00,189.08 323.00,189.08
             323.00,189.08 303.00,191.04 303.00,191.04
             303.00,191.04 288.00,191.04 288.00,191.04
             288.00,191.04 279.00,192.70 279.00,192.70
             279.00,192.70 266.00,193.83 266.00,193.83
             266.00,193.83 242.00,195.17 242.00,195.17
             242.00,195.17 218.00,197.00 218.00,197.00
             218.00,197.00 172.00,197.00 172.00,197.00
             172.00,197.00 155.00,198.08 155.00,198.08
             155.00,198.08 142.00,198.08 142.00,198.08
             142.00,198.08 126.00,200.00 126.00,200.00
             126.00,200.00 113.00,200.00 113.00,200.00
             113.00,200.00 96.00,201.00 96.00,201.00
             96.00,201.00 48.00,201.00 48.00,201.00
             48.00,201.00 28.00,203.00 28.00,203.00
             28.00,203.00 0.00,204.00 0.00,204.00 Z
           M 0.00,245.00
           C 0.00,245.00 0.00,259.00 0.00,259.00
             0.00,259.00 51.00,258.00 51.00,258.00
             51.00,258.00 64.00,257.00 64.00,257.00
             64.00,257.00 74.00,257.00 74.00,257.00
             74.00,257.00 88.00,255.10 88.00,255.10
             88.00,255.10 98.00,255.10 98.00,255.10
             98.00,255.10 105.00,254.09 105.00,254.09
             105.00,254.09 114.00,254.66 114.00,254.66
             114.00,254.66 125.00,254.00 125.00,254.00
             125.00,254.00 162.00,254.00 162.00,254.00
             162.00,254.00 192.00,251.71 192.00,251.71
             192.00,251.71 204.00,251.71 204.00,251.71
             204.00,251.71 211.00,251.71 211.00,251.71
             211.00,251.71 220.00,251.00 220.00,251.00
             220.00,251.00 264.00,251.00 264.00,251.00
             264.00,251.00 280.00,250.00 280.00,250.00
             280.00,250.00 289.00,250.00 289.00,250.00
             289.00,250.00 302.00,248.30 302.00,248.30
             302.00,248.30 312.00,247.57 312.00,247.57
             312.00,247.57 341.00,244.00 341.00,244.00
             341.00,244.00 361.00,242.89 361.00,242.89
             361.00,242.89 376.00,242.89 376.00,242.89
             376.00,242.89 394.00,242.89 394.00,242.89
             394.00,242.89 412.00,241.00 412.00,241.00
             412.00,241.00 435.00,241.00 435.00,241.00
             435.00,241.00 465.00,238.00 465.00,238.00
             465.00,238.00 512.00,238.00 512.00,238.00
             512.00,238.00 531.00,237.00 531.00,237.00
             531.00,237.00 542.00,235.21 542.00,235.21
             542.00,235.21 561.00,234.17 561.00,234.17
             561.00,234.17 570.00,234.17 570.00,234.17
             570.00,234.17 589.00,234.17 589.00,234.17
             589.00,234.17 608.00,231.00 608.00,231.00
             608.00,231.00 658.00,231.00 658.00,231.00
             658.00,231.00 669.00,230.18 669.00,230.18
             669.00,230.18 679.00,231.00 679.00,231.00
             679.00,231.00 732.00,231.00 732.00,231.00
             732.00,231.00 743.00,231.66 743.00,231.66
             743.00,231.66 752.00,231.00 752.00,231.00
             752.00,231.00 816.00,231.00 816.00,231.00
             816.00,231.00 816.00,217.00 816.00,217.00
             816.00,217.00 755.00,217.00 755.00,217.00
             755.00,217.00 740.00,217.95 740.00,217.95
             740.00,217.95 725.00,217.95 725.00,217.95
             725.00,217.95 712.00,217.01 712.00,217.01
             712.00,217.01 700.00,218.00 700.00,218.00
             700.00,218.00 656.00,217.00 656.00,217.00
             656.00,217.00 641.00,218.00 641.00,218.00
             641.00,218.00 621.00,218.00 621.00,218.00
             621.00,218.00 605.00,217.04 605.00,217.04
             605.00,217.04 594.00,219.62 594.00,219.62
             594.00,219.62 575.00,221.00 575.00,221.00
             575.00,221.00 534.00,221.00 534.00,221.00
             534.00,221.00 507.00,224.00 507.00,224.00
             507.00,224.00 468.00,224.00 468.00,224.00
             468.00,224.00 448.00,226.94 448.00,226.94
             448.00,226.94 437.00,226.94 437.00,226.94
             437.00,226.94 409.00,230.00 409.00,230.00
             409.00,230.00 339.00,230.00 339.00,230.00
             339.00,230.00 323.00,231.37 323.00,231.37
             323.00,231.37 317.00,232.80 317.00,232.80
             317.00,232.80 301.00,234.17 301.00,234.17
             301.00,234.17 277.00,237.00 277.00,237.00
             277.00,237.00 238.00,238.00 238.00,238.00
             238.00,238.00 203.00,240.00 203.00,240.00
             203.00,240.00 182.00,240.00 182.00,240.00
             182.00,240.00 163.00,241.00 163.00,241.00
             163.00,241.00 134.00,241.00 134.00,241.00
             134.00,241.00 96.00,244.00 96.00,244.00
             96.00,244.00 38.00,244.00 38.00,244.00
             38.00,244.00 23.99,244.58 23.99,244.58
             23.99,244.58 17.00,244.58 17.00,244.58
             17.00,244.58 9.00,245.82 9.00,245.82
             9.00,245.82 0.00,245.00 0.00,245.00 Z
           M 0.00,344.00
           C 0.00,344.00 0.00,348.00 0.00,348.00
             0.00,348.00 21.00,349.90 21.00,349.90
             21.00,349.90 48.00,347.67 48.00,347.67
             48.00,347.67 61.00,345.00 61.00,345.00
             61.00,345.00 91.00,343.82 91.00,343.82
             91.00,343.82 102.00,341.44 102.00,341.44
             102.00,341.44 112.00,340.79 112.00,340.79
             112.00,340.79 121.00,338.33 121.00,338.33
             121.00,338.33 138.00,338.33 138.00,338.33
             138.00,338.33 147.00,338.33 147.00,338.33
             147.00,338.33 174.00,337.00 174.00,337.00
             174.00,337.00 205.00,337.00 205.00,337.00
             205.00,337.00 219.00,338.00 219.00,338.00
             219.00,338.00 245.00,336.82 245.00,336.82
             245.00,336.82 253.00,335.18 253.00,335.18
             253.00,335.18 269.00,333.82 269.00,333.82
             269.00,333.82 285.00,332.00 285.00,332.00
             285.00,332.00 300.00,331.00 300.00,331.00
             300.00,331.00 327.00,331.00 327.00,331.00
             327.00,331.00 358.00,325.97 358.00,325.97
             358.00,325.97 371.00,328.00 371.00,328.00
             371.00,328.00 394.00,328.00 394.00,328.00
             394.00,328.00 412.00,325.18 412.00,325.18
             412.00,325.18 439.00,322.84 439.00,322.84
             439.00,322.84 457.00,319.21 457.00,319.21
             457.00,319.21 477.00,317.83 477.00,317.83
             477.00,317.83 494.00,315.17 494.00,315.17
             494.00,315.17 500.00,315.17 500.00,315.17
             500.00,315.17 512.00,315.17 512.00,315.17
             512.00,315.17 564.00,315.17 564.00,315.17
             564.00,315.17 581.00,314.00 581.00,314.00
             581.00,314.00 614.00,311.86 614.00,311.86
             614.00,311.86 622.00,311.86 622.00,311.86
             622.00,311.86 636.00,309.21 636.00,309.21
             636.00,309.21 657.00,307.87 657.00,307.87
             657.00,307.87 668.00,305.08 668.00,305.08
             668.00,305.08 688.00,305.08 688.00,305.08
             688.00,305.08 718.00,302.00 718.00,302.00
             718.00,302.00 736.00,302.00 736.00,302.00
             736.00,302.00 752.00,300.63 752.00,300.63
             752.00,300.63 758.00,299.10 758.00,299.10
             758.00,299.10 767.00,299.10 767.00,299.10
             767.00,299.10 782.00,298.00 782.00,298.00
             782.00,298.00 816.00,298.00 816.00,298.00
             816.00,298.00 816.00,291.86 816.00,291.86
             816.00,291.86 804.00,291.86 804.00,291.86
             804.00,291.86 781.00,291.86 781.00,291.86
             781.00,291.86 764.00,294.00 764.00,294.00
             764.00,294.00 755.00,294.00 755.00,294.00
             755.00,294.00 741.00,295.00 741.00,295.00
             741.00,295.00 720.00,297.00 720.00,297.00
             720.00,297.00 703.00,298.00 703.00,298.00
             703.00,298.00 686.00,298.00 686.00,298.00
             686.00,298.00 666.00,301.00 666.00,301.00
             666.00,301.00 647.00,302.32 647.00,302.32
             647.00,302.32 640.00,303.82 640.00,303.82
             640.00,303.82 618.00,305.18 618.00,305.18
             618.00,305.18 603.00,307.78 603.00,307.78
             603.00,307.78 594.00,307.78 594.00,307.78
             594.00,307.78 562.00,307.78 562.00,307.78
             562.00,307.78 534.00,309.96 534.00,309.96
             534.00,309.96 521.00,309.16 521.00,309.16
             521.00,309.16 510.00,309.16 510.00,309.16
             510.00,309.16 503.00,310.73 503.00,310.73
             503.00,310.73 495.00,309.78 495.00,309.78
             495.00,309.78 484.00,310.91 484.00,310.91
             484.00,310.91 463.00,312.13 463.00,312.13
             463.00,312.13 453.00,314.93 453.00,314.93
             453.00,314.93 443.00,314.93 443.00,314.93
             443.00,314.93 432.00,317.54 432.00,317.54
             432.00,317.54 424.00,318.22 424.00,318.22
             424.00,318.22 415.00,321.02 415.00,321.02
             415.00,321.02 406.00,321.02 406.00,321.02
             406.00,321.02 376.00,324.00 376.00,324.00
             376.00,324.00 353.00,322.01 353.00,322.01
             353.00,322.01 329.00,325.14 329.00,325.14
             329.00,325.14 310.00,325.14 310.00,325.14
             310.00,325.14 295.00,327.04 295.00,327.04
             295.00,327.04 277.00,327.04 277.00,327.04
             277.00,327.04 270.00,328.01 270.00,328.01
             270.00,328.01 261.00,328.01 261.00,328.01
             261.00,328.01 253.00,329.79 253.00,329.79
             253.00,329.79 234.00,331.00 234.00,331.00
             234.00,331.00 195.00,331.00 195.00,331.00
             195.00,331.00 184.00,330.34 184.00,330.34
             184.00,330.34 174.00,331.00 174.00,331.00
             174.00,331.00 161.00,332.00 161.00,332.00
             161.00,332.00 152.00,332.00 152.00,332.00
             152.00,332.00 129.00,333.75 129.00,333.75
             129.00,333.75 119.00,333.75 119.00,333.75
             119.00,333.75 101.00,335.21 101.00,335.21
             101.00,335.21 83.00,338.08 83.00,338.08
             83.00,338.08 69.00,338.08 69.00,338.08
             69.00,338.08 50.00,341.06 50.00,341.06
             50.00,341.06 42.00,341.06 42.00,341.06
             42.00,341.06 22.00,344.00 22.00,344.00
             22.00,344.00 0.00,344.00 0.00,344.00 Z
           M 58.00,434.00
           C 68.18,436.89 81.52,434.13 92.00,434.00
             92.00,434.00 112.00,435.00 112.00,435.00
             112.00,435.00 126.00,433.96 126.00,433.96
             126.00,433.96 134.00,433.96 134.00,433.96
             141.10,433.12 141.04,432.01 150.00,432.00
             150.00,432.00 173.00,432.00 173.00,432.00
             173.00,432.00 200.00,430.00 200.00,430.00
             200.00,430.00 209.00,430.00 209.00,430.00
             209.00,430.00 223.00,430.90 223.00,430.90
             223.00,430.90 238.00,429.00 238.00,429.00
             238.00,429.00 254.00,428.32 254.00,428.32
             254.00,428.32 273.00,429.00 273.00,429.00
             283.59,428.98 285.67,427.06 294.00,426.17
             294.00,426.17 323.00,425.00 323.00,425.00
             323.00,425.00 348.00,422.57 348.00,422.57
             348.00,422.57 362.17,422.57 362.17,422.57
             362.17,422.57 374.00,422.00 374.00,422.00
             374.00,422.00 415.00,422.00 415.00,422.00
             415.00,422.00 444.00,419.00 444.00,419.00
             449.48,418.99 461.96,418.63 467.00,417.62
             467.00,417.62 475.00,415.33 475.00,415.33
             475.00,415.33 487.00,414.79 487.00,414.79
             487.00,414.79 496.00,412.21 496.00,412.21
             496.00,412.21 517.00,411.04 517.00,411.04
             517.00,411.04 536.00,412.00 536.00,412.00
             536.00,412.00 556.00,410.82 556.00,410.82
             556.00,410.82 563.00,409.32 563.00,409.32
             563.00,409.32 580.00,407.90 580.00,407.90
             580.00,407.90 595.00,407.90 595.00,407.90
             595.00,407.90 606.00,405.17 606.00,405.17
             606.00,405.17 626.00,404.00 626.00,404.00
             626.00,404.00 650.00,402.00 650.00,402.00
             650.00,402.00 663.00,402.00 663.00,402.00
             663.00,402.00 681.00,400.71 681.00,400.71
             686.41,400.01 687.86,399.08 694.00,399.00
             694.00,399.00 729.00,399.00 729.00,399.00
             729.00,399.00 762.00,396.00 762.00,396.00
             762.00,396.00 779.00,395.00 779.00,395.00
             779.00,395.00 816.00,392.00 816.00,392.00
             816.00,392.00 816.00,378.00 816.00,378.00
             808.02,379.05 809.05,378.96 801.00,379.00
             792.57,379.04 793.24,380.16 787.00,380.83
             787.00,380.83 763.00,382.09 763.00,382.09
             757.10,382.56 752.83,384.95 742.00,385.00
             742.00,385.00 719.00,385.00 719.00,385.00
             719.00,385.00 706.00,386.00 706.00,386.00
             706.00,386.00 685.00,386.00 685.00,386.00
             685.00,386.00 666.00,388.22 666.00,388.22
             666.00,388.22 647.00,388.22 647.00,388.22
             639.66,389.08 642.23,390.98 631.00,391.00
             631.00,391.00 586.00,392.00 586.00,392.00
             586.00,392.00 558.00,396.00 558.00,396.00
             558.00,396.00 541.00,395.00 541.00,395.00
             541.00,395.00 523.00,395.00 523.00,395.00
             512.97,395.02 515.80,396.08 508.00,397.53
             508.00,397.53 497.00,398.21 497.00,398.21
             497.00,398.21 487.00,400.56 487.00,400.56
             487.00,400.56 478.00,401.44 478.00,401.44
             478.00,401.44 469.00,403.63 469.00,403.63
             469.00,403.63 458.00,405.00 458.00,405.00
             458.00,405.00 447.00,405.00 447.00,405.00
             447.00,405.00 438.00,406.83 438.00,406.83
             438.00,406.83 415.00,408.00 415.00,408.00
             415.00,408.00 373.00,408.00 373.00,408.00
             373.00,408.00 342.00,411.04 342.00,411.04
             342.00,411.04 330.00,411.04 330.00,411.04
             330.00,411.04 320.00,412.00 320.00,412.00
             320.00,412.00 300.00,412.00 300.00,412.00
             300.00,412.00 287.00,411.21 287.00,411.21
             287.00,411.21 274.00,413.54 274.00,413.54
             274.00,413.54 255.00,415.83 255.00,415.83
             255.00,415.83 242.00,415.09 242.00,415.09
             242.00,415.09 234.00,416.31 234.00,416.31
             234.00,416.31 228.00,416.31 228.00,416.31
             228.00,416.31 213.00,417.00 213.00,417.00
             213.00,417.00 197.00,418.00 197.00,418.00
             197.00,418.00 184.00,418.00 184.00,418.00
             184.00,418.00 168.00,419.25 168.00,419.25
             168.00,419.25 161.00,419.25 161.00,419.25
             145.87,418.83 147.16,420.89 138.00,421.00
             138.00,421.00 100.00,421.00 100.00,421.00
             90.95,421.00 84.61,419.96 76.00,423.14
             76.00,423.14 64.21,426.17 64.21,426.17
             61.66,427.69 59.54,431.50 58.00,434.00 Z
           M 0.00,439.00
           C 0.00,439.00 11.00,438.00 11.00,438.00
             11.00,438.00 40.00,438.00 40.00,438.00
             43.07,438.00 56.88,437.43 54.12,431.49
             51.98,426.86 40.47,427.17 36.00,426.58
             28.20,425.54 16.68,424.52 9.00,425.58
             6.76,425.88 2.47,425.91 0.99,427.74
             -0.45,429.53 0.00,436.52 0.00,439.00 Z
           M 696.00,463.00
           C 696.00,463.00 697.00,467.00 697.00,467.00
             697.00,467.00 696.00,463.00 696.00,463.00 Z
           M 0.00,514.00
           C 0.00,514.00 0.00,528.00 0.00,528.00
             0.00,528.00 12.00,525.04 12.00,525.04
             12.00,525.04 23.00,525.04 23.00,525.04
             23.00,525.04 30.00,522.78 30.00,522.78
             34.25,521.63 41.39,521.99 46.00,522.00
             46.00,522.00 71.00,524.81 71.00,524.81
             71.00,524.81 84.00,522.42 84.00,522.42
             84.00,522.42 105.00,519.88 105.00,519.88
             113.41,518.10 116.49,515.08 128.00,515.08
             128.00,515.08 161.00,520.99 161.00,520.99
             161.00,520.99 188.00,517.98 188.00,517.98
             188.00,517.98 195.00,517.98 195.00,517.98
             195.00,517.98 214.00,514.85 214.00,514.85
             214.00,514.85 224.00,514.85 224.00,514.85
             231.86,513.58 235.35,512.01 244.00,512.00
             244.00,512.00 261.00,512.00 261.00,512.00
             261.00,512.00 285.00,513.95 285.00,513.95
             285.00,513.95 301.00,513.95 301.00,513.95
             301.00,513.95 313.00,512.96 313.00,512.96
             313.00,512.96 328.00,512.96 328.00,512.96
             328.00,512.96 340.00,512.00 340.00,512.00
             340.00,512.00 362.00,512.00 362.00,512.00
             362.00,512.00 390.00,509.00 390.00,509.00
             390.00,509.00 413.00,509.00 413.00,509.00
             413.00,509.00 435.00,507.83 435.00,507.83
             441.24,507.16 440.57,506.04 449.00,506.00
             449.00,506.00 463.00,506.00 463.00,506.00
             463.00,506.00 475.00,505.04 475.00,505.04
             475.00,505.04 488.00,505.04 488.00,505.04
             496.15,504.96 496.56,503.81 503.00,503.17
             503.00,503.17 525.00,502.00 525.00,502.00
             529.66,501.99 536.41,501.44 541.00,500.68
             541.00,500.68 548.00,499.18 548.00,499.18
             548.00,499.18 556.00,498.67 556.00,498.67
             560.76,497.82 562.82,495.57 567.00,494.38
             570.71,493.32 586.56,490.05 590.00,490.00
             590.00,490.00 600.00,490.00 600.00,490.00
             607.61,490.09 608.31,491.49 614.00,491.91
             614.00,491.91 631.00,492.68 631.00,492.68
             631.00,492.68 641.00,493.73 641.00,493.73
             641.00,493.73 651.00,493.73 651.00,493.73
             654.69,493.57 655.19,494.91 662.00,495.00
             662.00,495.00 670.00,495.00 670.00,495.00
             673.78,494.95 683.19,492.71 686.83,491.47
             686.83,491.47 691.17,489.54 691.17,489.54
             691.17,489.54 698.00,488.67 698.00,488.67
             704.50,487.53 703.00,485.79 713.00,486.01
             713.00,486.01 741.00,489.00 741.00,489.00
             745.40,489.02 753.02,489.34 757.00,488.21
             762.03,486.78 765.49,483.59 770.00,483.14
             774.61,482.69 782.45,485.96 789.00,485.63
             795.37,485.30 805.30,481.78 810.83,483.54
             810.83,483.54 816.00,486.00 816.00,486.00
             816.00,486.00 816.00,466.00 816.00,466.00
             810.26,465.04 808.24,465.45 803.00,468.26
             799.81,469.97 797.74,472.47 794.00,472.69
             794.00,472.69 769.00,470.18 769.00,470.18
             765.90,470.22 763.89,471.21 761.00,471.68
             761.00,471.68 753.00,472.49 753.00,472.49
             753.00,472.49 748.00,474.32 748.00,474.32
             748.00,474.32 734.00,476.89 734.00,476.89
             734.00,476.89 704.00,474.00 704.00,474.00
             696.90,473.99 685.66,473.51 679.09,474.95
             679.09,474.95 663.96,480.59 663.96,480.59
             663.96,480.59 645.00,482.82 645.00,482.82
             645.00,482.82 626.00,480.92 626.00,480.92
             626.00,480.92 610.00,480.92 610.00,480.92
             610.00,480.92 596.00,479.00 596.00,479.00
             596.00,479.00 574.00,478.18 574.00,478.18
             574.00,478.18 564.00,479.83 564.00,479.83
             564.00,479.83 544.00,481.34 544.00,481.34
             544.00,481.34 532.00,484.37 532.00,484.37
             532.00,484.37 524.00,485.26 524.00,485.26
             524.00,485.26 515.00,487.56 515.00,487.56
             515.00,487.56 490.00,491.26 490.00,491.26
             481.97,492.61 481.53,493.99 472.00,494.00
             472.00,494.00 461.00,494.00 461.00,494.00
             461.00,494.00 441.00,495.17 441.00,495.17
             433.99,495.92 435.93,496.98 426.00,497.00
             426.00,497.00 396.00,498.00 396.00,498.00
             396.00,498.00 359.00,501.00 359.00,501.00
             359.00,501.00 253.00,501.00 253.00,501.00
             253.00,501.00 234.00,502.91 234.00,502.91
             234.00,502.91 207.42,504.32 207.42,504.32
             196.42,505.59 196.41,507.86 180.00,507.26
             180.00,507.26 169.00,506.70 169.00,506.70
             169.00,506.70 163.00,504.53 163.00,504.53
             159.56,503.47 148.46,501.05 145.00,501.00
             145.00,501.00 96.00,506.76 96.00,506.76
             96.00,506.76 71.00,506.76 71.00,506.76
             71.00,506.76 43.00,510.00 43.00,510.00
             43.00,510.00 17.00,511.00 17.00,511.00
             5.21,511.02 8.83,513.06 0.00,514.00 Z
           M 0.00,613.00
           C 0.00,613.00 0.00,620.00 0.00,620.00
             0.00,620.00 24.00,617.00 24.00,617.00
             24.00,617.00 45.00,617.68 45.00,617.68
             45.00,617.68 56.00,616.90 56.00,616.90
             56.00,616.90 75.00,616.90 75.00,616.90
             83.62,615.49 76.42,614.18 93.00,613.78
             93.00,613.78 101.00,613.78 101.00,613.78
             101.00,613.78 123.00,614.91 123.00,614.91
             123.00,614.91 136.00,614.00 136.00,614.00
             136.00,614.00 149.00,614.00 149.00,614.00
             161.68,613.98 157.28,611.17 167.00,611.00
             167.00,611.00 194.00,610.00 194.00,610.00
             194.00,610.00 209.00,610.83 209.00,610.83
             209.00,610.83 224.00,609.68 224.00,609.68
             231.75,608.42 235.65,607.01 244.00,607.00
             244.00,607.00 268.00,607.00 268.00,607.00
             268.00,607.00 290.00,604.09 290.00,604.09
             290.00,604.09 315.00,602.83 315.00,602.83
             315.00,602.83 324.00,601.17 324.00,601.17
             324.00,601.17 336.00,600.24 336.00,600.24
             336.00,600.24 345.00,598.20 345.00,598.20
             345.00,598.20 364.00,596.82 364.00,596.82
             364.00,596.82 371.00,595.41 371.00,595.41
             371.00,595.41 385.00,595.96 385.00,595.96
             385.00,595.96 402.00,594.00 402.00,594.00
             402.00,594.00 425.00,594.00 425.00,594.00
             425.00,594.00 436.00,593.33 436.00,593.33
             436.00,593.33 442.00,593.33 442.00,593.33
             442.00,593.33 458.00,591.72 458.00,591.72
             458.00,591.72 476.00,589.24 476.00,589.24
             476.00,589.24 494.00,587.98 494.00,587.98
             494.00,587.98 534.00,587.98 534.00,587.98
             539.46,587.74 542.96,586.31 548.00,585.37
             548.00,585.37 568.00,584.00 568.00,584.00
             568.00,584.00 621.00,584.00 621.00,584.00
             621.00,584.00 643.91,586.90 643.91,586.90
             643.91,586.90 672.00,582.17 672.00,582.17
             672.00,582.17 700.00,580.00 700.00,580.00
             700.00,580.00 723.00,580.00 723.00,580.00
             723.00,580.00 748.00,578.82 748.00,578.82
             748.00,578.82 755.00,577.16 755.00,577.16
             755.00,577.16 768.00,577.16 768.00,577.16
             775.68,577.05 773.84,578.26 780.00,580.00
             784.45,565.37 808.95,582.21 814.98,570.96
             816.32,568.44 816.00,563.88 816.00,561.00
             807.41,563.42 802.60,566.19 793.00,566.44
             787.57,566.87 788.59,564.75 773.91,566.44
             773.91,566.44 762.00,569.47 762.00,569.47
             762.00,569.47 752.00,569.47 752.00,569.47
             752.00,569.47 742.00,570.92 742.00,570.92
             742.00,570.92 736.00,572.58 736.00,572.58
             732.49,573.06 729.45,571.41 726.00,571.10
             721.60,570.72 719.04,571.66 716.00,571.66
             716.00,571.66 708.00,571.01 708.00,571.01
             708.00,571.01 682.00,574.07 682.00,574.07
             682.00,574.07 674.00,574.07 674.00,574.07
             666.91,575.31 668.61,575.99 660.00,575.91
             660.00,575.91 646.00,575.91 646.00,575.91
             646.00,575.91 638.00,574.35 638.00,574.35
             638.00,574.35 621.00,576.00 621.00,576.00
             621.00,576.00 603.00,576.00 603.00,576.00
             603.00,576.00 588.00,577.07 588.00,577.07
             588.00,577.07 562.00,577.07 562.00,577.07
             562.00,577.07 546.00,577.07 546.00,577.07
             539.24,578.23 542.39,579.98 531.00,580.00
             531.00,580.00 511.00,580.00 511.00,580.00
             511.00,580.00 485.83,581.10 485.83,581.10
             485.83,581.10 468.00,582.17 468.00,582.17
             468.00,582.17 460.00,583.35 460.00,583.35
             453.88,583.66 452.15,582.06 449.00,582.37
             449.00,582.37 442.00,584.34 442.00,584.34
             433.25,585.74 423.88,586.99 415.00,587.07
             415.00,587.07 375.00,587.07 375.00,587.07
             362.63,587.33 367.49,588.66 360.00,589.79
             360.00,589.79 347.00,590.37 347.00,590.37
             340.63,591.59 341.33,592.90 333.00,593.00
             315.41,593.20 318.45,595.95 308.00,596.14
             308.00,596.14 289.00,596.14 289.00,596.14
             289.00,596.14 277.00,598.90 277.00,598.90
             277.00,598.90 239.00,600.00 239.00,600.00
             239.00,600.00 214.00,603.00 214.00,603.00
             214.00,603.00 200.00,602.04 200.00,602.04
             200.00,602.04 186.00,603.09 186.00,603.09
             186.00,603.09 165.00,603.09 165.00,603.09
             158.38,604.01 159.84,605.95 150.00,606.12
             150.00,606.12 139.00,606.12 139.00,606.12
             139.00,606.12 129.00,606.12 129.00,606.12
             129.00,606.12 94.00,606.12 94.00,606.12
             81.30,606.02 82.52,608.14 76.00,608.87
             76.00,608.87 39.00,610.10 39.00,610.10
             27.77,609.95 27.76,608.17 14.00,610.10
             7.89,611.11 9.03,612.80 0.00,613.00 Z" />
</svg>
