<?xml version="1.0" encoding="UTF-8" standalone="no"?>
<!DOCTYPE svg PUBLIC "-//W3C//DTD SVG 20010904//EN"
              "http://www.w3.org/TR/2001/REC-SVG-20010904/DTD/svg10.dtd">

<svg xmlns="http://www.w3.org/2000/svg"
     width="3.72222in" height="10.7222in"
     viewBox="0 0 268 772">
  <path id="Selection"
        fill="pink" stroke="pink" stroke-width="1"
        d="M 135.00,65.00
           C 140.14,64.93 142.28,65.37 144.00,60.00
             151.98,58.66 148.47,55.28 151.31,50.04
             152.91,47.11 155.88,45.39 157.91,42.80
             159.19,41.16 161.15,37.44 163.54,37.42
             167.48,37.39 165.25,43.30 164.18,45.00
             161.30,49.56 154.56,52.23 156.31,58.77
             156.85,60.81 158.11,61.40 160.05,61.83
             161.08,61.97 162.95,61.98 164.00,61.83
             169.95,61.39 177.49,55.64 179.42,50.00
             180.10,47.97 180.03,40.14 179.42,38.02
             177.94,32.90 175.17,34.20 174.00,27.00
             174.00,27.00 179.00,26.00 179.00,26.00
             182.36,31.42 186.62,28.01 189.66,23.98
             193.13,19.39 191.82,13.03 186.71,10.20
             185.02,9.26 182.89,9.15 181.00,9.37
             173.86,10.16 167.55,17.46 161.17,20.96
             161.17,20.96 142.30,29.89 142.30,29.89
             140.18,31.46 137.79,34.77 135.87,36.83
             133.13,39.78 130.75,41.57 130.31,45.91
             129.99,48.99 133.89,61.66 135.00,65.00 Z
           M 26.00,14.00
           C 26.29,22.21 22.04,21.54 21.00,27.01
             20.41,30.10 22.29,33.96 23.08,37.00
             24.84,43.83 22.00,50.02 32.00,49.92
             33.35,49.90 34.70,49.74 35.99,49.30
             39.85,47.97 40.89,45.41 46.00,43.00
             46.00,43.00 43.00,34.00 43.00,34.00
             39.71,34.43 31.80,36.26 30.34,31.82
             29.40,28.98 33.24,27.66 34.31,24.88
             36.44,19.35 30.54,15.14 26.00,14.00 Z
           M 113.00,18.00
           C 112.28,20.42 111.79,22.40 109.70,24.08
             107.65,25.72 103.05,25.87 101.76,30.09
             100.70,33.53 103.33,36.75 104.00,40.00
             105.83,40.85 106.92,41.49 109.00,41.74
             111.02,41.99 121.11,40.88 122.83,40.02
             124.33,39.26 126.74,37.00 128.04,35.80
             130.04,33.96 131.65,32.65 132.42,29.93
             133.96,24.48 130.00,13.08 123.00,14.47
             118.93,15.28 118.64,17.50 113.00,18.00 Z
           M 73.00,31.00
           C 73.00,31.00 79.00,33.00 79.00,33.00
             77.03,43.43 82.51,49.18 90.82,43.27
             92.63,41.98 94.46,40.02 95.08,37.83
             96.20,33.83 91.82,22.18 88.73,19.56
             84.86,16.30 72.52,16.70 68.00,18.40
             63.55,20.09 51.08,29.57 50.50,34.04
             50.08,37.27 53.06,41.90 54.19,45.00
             55.22,47.82 55.79,52.53 58.30,54.31
             61.56,56.63 69.55,52.67 70.92,49.46
             72.61,46.57 70.75,43.01 70.92,40.00
             70.60,37.13 72.19,33.87 73.00,31.00 Z
           M 188.00,48.00
           C 188.00,48.00 193.13,49.54 193.13,49.54
             193.13,49.54 208.00,47.00 208.00,47.00
             207.99,44.45 208.26,35.30 206.97,33.50
             205.55,31.52 196.35,29.36 193.92,29.65
             191.96,29.88 190.04,30.98 188.83,32.53
             185.50,36.79 189.12,40.98 188.00,48.00 Z
           M 101.00,51.00
           C 99.33,52.10 98.03,53.12 95.96,53.41
             93.43,53.77 90.71,52.58 88.00,52.47
             81.08,52.18 73.21,55.69 72.00,63.00
             72.00,63.00 89.00,67.00 89.00,67.00
             89.13,63.66 92.44,56.70 96.70,57.99
             100.04,59.01 104.93,65.89 106.00,69.00
             111.70,69.00 121.85,68.14 127.00,66.00
             126.21,57.48 126.31,51.13 116.00,50.05
             116.00,50.05 111.04,50.05 111.04,50.05
             106.15,50.45 105.95,55.06 101.00,51.00 Z
           M 53.00,58.00
           C 51.27,56.69 48.99,54.55 46.91,54.02
             43.03,53.04 39.60,55.55 36.17,56.64
             30.94,58.29 24.98,54.52 22.63,62.02
             22.23,63.39 22.01,65.34 22.63,66.69
             23.70,69.12 28.56,69.84 31.00,70.62
             36.96,72.53 46.14,72.47 50.28,66.87
             52.14,64.35 52.57,61.01 53.00,58.00 Z
           M 173.00,67.00
           C 173.00,67.00 177.10,73.32 177.10,73.32
             177.10,73.32 182.88,77.28 182.88,77.28
             182.88,77.28 182.88,85.00 182.88,85.00
             182.88,85.00 182.88,93.97 182.88,93.97
             184.87,94.24 188.82,95.14 190.60,93.97
             192.14,92.56 191.03,89.55 190.60,87.67
             190.45,83.90 190.38,78.36 193.30,75.64
             195.57,73.52 210.26,68.10 213.42,67.97
             216.30,67.85 222.00,70.29 223.60,66.69
             225.81,61.74 216.62,53.38 212.00,53.20
             212.00,53.20 199.96,54.71 199.96,54.71
             199.96,54.71 194.00,56.73 194.00,56.73
             190.53,57.39 188.72,56.50 185.01,58.28
             185.01,58.28 173.00,67.00 173.00,67.00 Z
           M 67.00,64.00
           C 65.37,64.10 63.66,64.07 62.13,64.74
             58.74,66.22 56.44,71.46 58.22,74.86
             59.08,76.51 69.97,82.46 72.09,83.02
             73.60,83.43 74.50,83.32 76.00,83.02
             79.92,82.19 87.19,80.70 84.39,75.22
             80.90,68.38 71.91,73.10 69.47,71.36
             67.58,70.02 67.35,66.15 67.00,64.00 Z
           M 146.00,86.00
           C 146.00,86.00 130.94,91.12 130.94,91.12
             130.02,91.67 129.40,92.25 128.78,93.12
             125.29,97.97 128.38,101.65 133.01,103.64
             138.21,105.87 145.91,106.76 149.93,101.52
             154.38,95.54 149.90,89.10 149.93,83.00
             155.93,82.94 160.04,81.71 164.80,77.97
             167.85,75.61 168.52,71.43 164.80,69.58
             162.40,68.23 151.65,68.85 149.00,69.58
             149.00,69.58 143.00,72.31 143.00,72.31
             140.72,73.09 136.82,72.93 136.54,76.10
             136.22,79.69 141.06,80.63 146.00,86.00 Z
           M 108.06,86.00
           C 108.06,86.00 105.78,93.00 105.78,93.00
             104.27,100.14 110.71,101.66 115.94,99.30
             121.33,96.87 119.98,91.41 121.54,87.17
             121.54,87.17 124.84,80.97 124.84,80.97
             125.57,78.88 125.83,76.67 123.67,75.35
             120.76,73.57 110.77,75.82 108.06,77.73
             104.33,80.46 104.13,83.51 108.06,86.00 Z
           M 198.00,79.00
           C 197.49,83.15 196.40,90.27 202.11,91.40
             205.62,92.10 218.78,89.62 220.74,86.47
             222.02,84.42 221.72,71.21 211.00,74.81
             204.94,76.85 205.51,77.58 198.00,79.00 Z
           M 30.00,78.00
           C 30.00,78.00 20.00,75.61 20.00,75.61
             9.33,73.61 8.99,87.55 10.26,89.43
             11.57,91.36 15.69,91.06 17.72,90.74
             20.24,90.34 21.52,89.50 23.73,88.37
             29.41,85.45 29.15,84.25 30.00,78.00 Z
           M 45.00,101.00
           C 45.00,101.00 45.99,90.13 45.99,90.13
             47.58,87.05 51.75,86.57 52.30,82.91
             53.44,75.19 39.15,79.47 38.40,80.02
             35.57,82.13 37.81,86.05 37.83,88.83
             37.86,91.99 35.72,93.51 35.74,95.91
             35.77,100.32 41.80,100.82 45.00,101.00 Z
           M 159.00,98.00
           C 171.17,97.72 179.06,90.74 176.00,78.00
             172.83,79.35 161.03,87.30 159.76,90.20
             159.09,91.74 159.14,96.04 159.00,98.00 Z
           M 92.42,82.88
           C 88.85,85.02 82.88,87.76 81.91,92.04
             81.20,95.14 82.59,97.20 83.55,100.00
             85.17,104.70 86.43,109.61 92.96,106.76
             99.61,103.86 99.36,96.23 99.63,90.00
             99.86,84.61 98.22,81.21 92.42,82.88 Z
           M 71.00,99.00
           C 70.86,96.92 70.86,93.90 70.21,92.00
             69.67,90.45 68.88,89.10 67.55,88.09
             55.42,78.89 49.73,103.81 63.42,101.44
             63.42,101.44 71.00,99.00 71.00,99.00 Z
           M 225.96,94.58
           C 217.69,95.49 214.08,96.53 206.17,99.17
             206.17,99.17 199.96,101.96 199.96,101.96
             197.41,102.46 186.59,99.90 183.14,101.06
             180.02,102.11 179.26,106.00 179.71,108.91
             180.16,111.83 182.10,113.24 181.73,115.46
             181.14,118.93 173.96,125.70 172.18,129.28
             171.18,131.29 171.15,134.14 173.97,134.44
             175.34,134.58 177.22,133.43 178.66,133.07
             178.66,133.07 184.00,132.10 184.00,132.10
             187.01,130.95 194.41,124.25 196.40,121.56
             201.44,114.76 199.02,109.86 208.09,109.94
             218.09,110.03 215.10,107.85 222.01,106.31
             224.89,105.67 229.20,105.96 231.21,103.41
             233.64,100.32 230.96,95.26 225.96,94.58 Z
           M 19.00,97.85
           C 14.36,98.73 10.30,100.59 10.16,106.00
             10.12,107.64 10.45,109.20 11.60,110.44
             14.12,113.16 26.30,114.96 29.85,114.40
             34.00,113.75 32.47,108.65 31.39,106.00
             29.02,100.23 24.97,98.22 19.00,97.85 Z
           M 155.00,133.00
           C 156.70,132.52 159.11,132.01 160.55,131.02
             161.93,130.06 163.80,127.46 165.11,126.08
             168.96,122.04 174.96,118.64 172.77,112.04
             170.59,105.47 161.40,102.66 158.03,108.22
             156.10,111.40 158.29,114.67 156.26,121.17
             154.46,126.93 152.78,126.91 155.00,133.00 Z
           M 66.00,127.00
           C 71.30,126.08 73.73,121.88 75.00,117.00
             75.00,117.00 73.00,117.00 73.00,117.00
             74.78,113.97 75.51,112.07 79.00,111.00
             77.26,101.11 66.69,108.54 61.01,109.15
             57.29,109.55 55.99,106.98 52.93,106.52
             48.55,105.86 41.98,110.62 41.43,115.01
             40.55,122.11 50.49,125.79 55.72,128.55
             59.76,130.68 63.92,132.32 66.00,127.00 Z
           M 101.00,119.00
           C 95.54,116.72 89.68,114.69 84.85,119.81
             84.85,119.81 81.44,125.73 81.44,125.73
             79.45,128.08 77.55,128.03 74.00,132.00
             74.00,132.00 88.42,138.93 88.42,138.93
             88.42,138.93 94.00,144.00 94.00,144.00
             106.23,142.99 94.42,137.71 102.64,128.22
             105.40,125.04 115.32,121.60 119.58,121.92
             119.58,121.92 128.00,124.00 128.00,124.00
             127.95,120.58 127.27,115.50 131.00,114.00
             128.46,106.71 116.19,108.11 110.00,108.97
             107.97,109.25 105.16,109.29 103.60,110.76
             102.02,112.24 101.55,116.75 101.00,119.00 Z
           M 130.00,136.00
           C 133.71,137.51 139.84,139.16 142.35,134.72
             143.78,132.18 143.26,128.97 144.85,126.45
             146.52,123.82 151.91,120.09 149.94,114.15
             148.28,109.13 141.25,111.70 139.18,115.21
             137.02,118.86 139.30,122.56 137.05,125.79
             134.37,129.66 133.52,125.98 130.00,136.00 Z
           M 207.00,118.00
           C 207.00,118.00 207.00,123.00 207.00,123.00
             217.25,123.74 213.52,123.46 223.00,121.03
             224.97,120.53 227.68,120.19 228.98,118.44
             229.95,117.13 229.87,115.52 230.00,114.00
             216.15,112.22 219.26,117.32 207.00,118.00 Z
           M 18.00,134.00
           C 20.86,135.79 27.67,140.56 28.48,143.90
             29.09,146.44 25.12,151.97 29.77,156.40
             35.24,161.63 43.53,154.61 48.04,151.87
             49.82,150.79 52.99,149.10 54.26,147.53
             55.72,145.73 56.12,143.26 55.48,141.05
             52.22,129.90 38.84,144.53 33.42,139.40
             28.23,134.49 40.14,134.09 37.94,128.04
             36.06,122.89 25.00,121.84 21.23,124.63
             18.21,126.87 18.25,130.63 18.00,134.00 Z
           M 221.00,128.00
           C 219.70,134.77 222.99,133.67 217.00,139.00
             217.00,139.00 212.00,130.22 212.00,130.22
             212.00,130.22 201.04,130.22 201.04,130.22
             199.23,130.91 191.53,136.66 189.00,138.26
             185.50,140.49 180.52,143.96 185.00,148.00
             185.00,148.00 184.00,151.00 184.00,151.00
             186.31,153.37 187.83,156.93 191.05,157.67
             194.05,158.35 201.44,155.34 204.93,154.41
             204.93,154.41 222.00,151.69 222.00,151.69
             222.00,151.69 230.00,149.37 230.00,149.37
             233.99,148.51 237.31,149.12 240.70,146.07
             243.33,143.71 243.00,141.20 242.57,138.00
             242.32,136.05 241.96,132.36 240.71,130.87
             238.04,127.67 225.27,128.32 221.00,128.00 Z
           M 111.00,138.00
           C 115.86,135.98 116.53,134.49 119.00,130.00
             112.07,129.24 107.27,129.51 111.00,138.00 Z
           M 67.00,139.00
           C 67.00,139.00 63.83,150.00 63.83,150.00
             63.83,150.00 57.00,168.00 57.00,168.00
             60.70,170.06 72.94,179.85 74.27,170.00
             74.81,165.91 69.98,164.00 72.65,160.26
             74.74,157.35 79.42,157.21 81.57,155.73
             83.61,154.32 83.86,151.76 86.00,149.00
             81.69,139.99 75.92,140.01 67.00,139.00 Z
           M 152.00,151.00
           C 152.00,151.00 157.00,151.00 157.00,151.00
             157.00,151.00 161.00,145.00 161.00,145.00
             167.19,150.90 163.76,150.05 165.00,158.00
             154.58,160.90 147.41,155.18 143.00,169.00
             147.73,168.99 152.32,168.50 157.00,167.83
             157.00,167.83 171.77,164.35 171.77,164.35
             176.14,161.93 174.05,157.63 172.75,154.00
             171.34,150.03 170.54,145.47 166.89,143.06
             163.44,140.44 153.74,138.19 151.44,143.06
             150.47,145.35 151.57,148.74 152.00,151.00 Z
           M 126.00,164.00
           C 134.02,165.24 136.24,165.22 140.84,157.99
             142.92,154.72 143.42,153.81 144.00,150.00
             138.28,148.11 130.78,144.87 125.26,149.15
             123.94,150.17 123.04,151.37 122.97,153.09
             122.83,156.56 125.69,157.58 126.00,164.00 Z
           M 77.00,182.00
           C 77.00,182.00 82.00,179.00 82.00,179.00
             84.66,181.45 90.79,186.81 93.18,180.78
             94.24,178.21 92.57,175.95 93.18,172.85
             94.40,166.13 101.02,163.93 107.00,165.00
             106.17,166.96 104.29,170.80 104.52,172.85
             104.86,175.72 108.09,176.72 110.28,172.85
             114.40,165.56 108.35,165.25 114.00,154.00
             111.63,152.90 108.58,151.44 106.00,151.05
             99.36,150.05 91.21,154.35 89.36,161.00
             88.07,164.67 90.98,167.27 89.36,170.01
             88.63,171.72 84.75,173.66 83.05,174.85
             79.48,177.34 78.98,178.24 77.00,182.00 Z
           M 192.00,167.00
           C 192.00,167.00 196.48,177.00 196.48,177.00
             196.48,177.00 191.16,187.16 191.16,187.16
             191.16,187.16 191.16,195.00 191.16,195.00
             199.41,194.97 200.99,195.36 205.75,188.08
             205.75,188.08 208.02,184.58 208.02,184.58
             209.42,181.48 207.53,178.06 211.16,176.54
             213.71,175.44 216.52,177.17 220.00,176.54
             223.43,175.97 226.12,173.54 229.00,172.86
             231.93,171.91 235.76,172.96 239.00,172.86
             241.82,173.00 246.93,172.57 245.34,168.25
             244.53,166.03 241.02,164.70 239.13,163.20
             239.13,163.20 233.74,158.06 233.74,158.06
             231.22,156.72 221.71,158.56 219.13,159.84
             215.19,161.79 215.82,165.65 212.78,166.44
             210.99,166.90 208.69,165.32 205.00,165.06
             199.61,164.68 196.98,165.74 192.00,167.00 Z
           M 23.00,166.00
           C 21.80,170.62 22.39,171.58 23.83,176.00
             24.63,178.43 26.71,187.89 28.52,188.89
             30.72,190.11 35.59,187.83 38.00,187.15
             41.85,186.05 49.23,185.55 51.85,183.86
             57.23,180.41 54.78,173.25 47.00,171.30
             41.67,169.67 39.66,172.06 36.04,171.30
             36.04,171.30 23.00,166.00 23.00,166.00 Z
           M 75.00,166.00
           C 75.00,166.00 75.00,167.00 75.00,167.00
             75.00,167.00 76.00,166.00 76.00,166.00
             76.00,166.00 75.00,166.00 75.00,166.00 Z
           M 92.00,169.00
           C 92.00,169.00 92.00,170.00 92.00,170.00
             92.00,170.00 91.00,169.00 91.00,169.00
             91.00,169.00 92.00,169.00 92.00,169.00 Z
           M 186.00,175.12
           C 184.96,173.35 184.72,172.76 182.88,171.73
             176.42,168.11 173.41,175.61 181.02,175.12
             181.02,175.12 186.00,175.12 186.00,175.12 Z
           M 131.00,175.00
           C 131.00,175.00 133.00,179.00 133.00,179.00
             133.00,179.00 133.00,175.00 133.00,175.00
             133.00,175.00 131.00,175.00 131.00,175.00 Z
           M 168.00,177.00
           C 158.49,172.60 149.62,177.58 143.92,185.58
             142.00,188.28 138.87,192.12 140.60,195.85
             142.30,199.18 148.14,196.66 151.00,195.85
             157.58,194.51 165.49,191.22 167.40,183.91
             167.40,183.91 168.00,177.00 168.00,177.00 Z
           M 121.00,183.00
           C 121.00,183.00 120.00,189.00 120.00,189.00
             120.00,189.00 124.00,184.00 124.00,184.00
             124.00,184.00 121.00,183.00 121.00,183.00 Z
           M 59.00,189.00
           C 54.86,192.79 52.24,192.57 53.00,199.00
             53.00,199.00 47.00,201.00 47.00,201.00
             46.25,191.89 42.55,195.33 37.28,196.78
             35.31,197.32 32.29,197.01 31.01,198.74
             29.59,200.66 31.59,206.94 32.54,208.94
             34.65,213.37 43.62,213.92 48.00,213.23
             50.39,212.85 52.78,211.79 55.00,210.85
             59.00,209.15 61.95,208.82 62.00,204.00
             62.00,204.00 65.00,206.00 65.00,206.00
             66.25,204.14 69.33,199.87 69.98,198.00
             71.30,194.24 69.60,188.02 64.92,187.70
             63.12,187.58 60.86,188.68 59.00,189.00 Z
           M 112.00,196.00
           C 112.00,196.00 104.00,187.00 104.00,187.00
             104.00,187.00 93.00,190.66 93.00,190.66
             89.73,191.79 80.62,193.63 80.74,197.93
             80.89,202.98 89.85,201.66 93.00,202.15
             97.75,202.88 98.61,205.61 101.28,206.32
             106.56,207.74 110.69,199.95 112.00,196.00 Z
           M 165.00,200.00
           C 173.87,203.04 182.19,199.48 178.00,189.00
             171.36,190.43 167.90,193.86 165.00,200.00 Z
           M 239.00,217.00
           C 239.15,214.27 239.58,211.60 238.46,209.00
             237.72,207.31 236.27,205.46 234.90,204.24
             229.99,199.91 222.12,202.19 220.12,207.21
             218.31,211.76 217.86,218.53 224.02,219.42
             226.17,219.73 228.29,219.11 230.42,218.90
             235.16,218.43 234.49,218.40 239.00,217.00 Z
           M 128.00,207.00
           C 123.01,206.88 113.18,209.01 111.13,214.21
             106.84,225.09 116.68,229.32 121.49,225.98
             124.13,224.14 124.36,218.95 128.70,215.01
             133.44,210.71 134.14,213.68 136.00,204.00
             136.00,204.00 135.00,203.00 135.00,203.00
             130.92,203.43 130.06,203.24 128.00,207.00 Z
           M 173.00,214.00
           C 173.00,214.00 183.00,219.23 183.00,219.23
             183.00,219.23 194.96,215.12 194.96,215.12
             194.96,215.12 207.00,220.00 207.00,220.00
             207.00,220.00 211.42,215.74 211.42,215.74
             213.74,212.52 213.65,206.17 209.85,203.90
             207.32,202.61 203.79,203.75 201.00,203.90
             201.00,203.90 193.00,203.90 193.00,203.90
             193.00,203.90 186.00,205.83 186.00,205.83
             179.38,207.72 176.10,206.88 173.00,214.00 Z
           M 146.00,205.00
           C 143.81,208.28 143.33,209.11 142.53,213.00
             142.53,213.00 140.00,222.82 140.00,222.82
             140.69,227.65 146.55,227.86 149.66,225.34
             149.66,225.34 159.01,212.96 159.01,212.96
             159.78,211.14 159.81,208.95 160.00,207.00
             160.00,207.00 146.00,205.00 146.00,205.00 Z
           M 158.00,231.00
           C 160.52,231.37 170.18,233.43 171.77,232.96
             174.24,232.25 175.15,229.49 174.36,227.20
             173.78,225.51 171.83,223.95 170.57,222.67
             165.73,217.73 162.77,218.43 159.45,225.00
             158.36,227.17 158.25,228.67 158.00,231.00 Z
           M 192.00,233.00
           C 193.66,232.76 195.38,232.60 196.96,231.97
             197.92,231.59 198.80,231.17 199.55,230.44
             206.54,223.68 191.20,220.04 189.89,226.14
             189.63,227.37 191.53,231.33 192.00,233.00 Z
           M 218.00,226.00
           C 211.80,226.44 209.65,227.78 208.39,234.00
             207.66,236.00 207.00,238.58 208.39,240.24
             210.65,242.28 218.80,243.28 218.92,233.00
             218.95,230.65 218.41,228.30 218.00,226.00 Z
           M 243.00,227.04
           C 238.34,225.92 238.74,226.82 234.58,227.04
             232.63,227.20 229.11,226.71 227.45,227.57
             223.95,229.38 226.68,234.82 229.17,236.27
             232.77,238.38 238.04,235.93 240.55,233.10
             242.27,231.17 242.48,229.40 243.00,227.04 Z
           M 236.00,235.00
           C 236.00,235.00 236.00,236.00 236.00,236.00
             236.00,236.00 235.00,235.00 235.00,235.00
             235.00,235.00 236.00,235.00 236.00,235.00 Z
           M 115.00,236.17
           C 114.17,240.48 116.39,248.81 122.09,249.04
             125.02,249.16 128.86,246.28 131.72,245.37
             131.72,245.37 141.00,244.00 141.00,244.00
             141.00,244.00 140.45,241.09 140.45,241.09
             137.92,233.29 131.62,238.74 128.00,238.35
             128.00,238.35 122.00,236.17 122.00,236.17
             122.00,236.17 115.00,236.17 115.00,236.17 Z
           M 156.00,255.00
           C 156.00,255.00 163.00,257.00 163.00,257.00
             162.83,246.58 167.80,252.34 171.00,244.00
             169.08,243.46 167.24,242.83 165.21,243.31
             161.26,244.23 157.21,251.41 156.00,255.00 Z
           M 188.00,252.00
           C 188.00,252.00 195.00,252.00 195.00,252.00
             192.96,246.51 189.86,246.19 188.00,252.00 Z
           M 203.00,249.00
           C 201.94,257.74 205.01,254.88 209.43,259.01
             213.35,262.68 210.99,267.26 214.50,269.66
             217.29,271.57 221.96,270.67 222.52,266.89
             222.87,264.46 219.74,254.44 218.18,252.56
             214.76,248.41 207.83,249.00 203.00,249.00 Z
           M 133.00,258.00
           C 136.46,263.17 138.78,262.74 140.07,265.22
             141.28,267.94 138.97,270.22 140.07,272.58
             141.99,276.21 151.17,276.86 153.39,270.94
             156.88,261.62 142.45,254.63 138.00,255.37
             135.83,255.73 134.69,256.81 133.00,258.00 Z
           M 232.00,258.00
           C 232.00,258.00 232.00,259.00 232.00,259.00
             232.00,259.00 233.00,258.00 233.00,258.00
             233.00,258.00 232.00,258.00 232.00,258.00 Z
           M 234.00,258.00
           C 234.00,258.00 234.00,259.00 234.00,259.00
             234.00,259.00 235.00,258.00 235.00,258.00
             235.00,258.00 234.00,258.00 234.00,258.00 Z
           M 187.00,271.00
           C 191.77,274.68 200.14,277.52 202.97,269.96
             204.41,266.09 203.13,261.77 198.98,263.15
             198.98,263.15 187.00,271.00 187.00,271.00 Z
           M 165.00,263.00
           C 165.00,263.00 164.00,267.00 164.00,267.00
             164.00,267.00 173.00,269.00 173.00,269.00
             170.99,264.98 168.99,264.65 165.00,263.00 Z
           M 235.00,292.00
           C 235.00,292.00 236.00,277.00 236.00,277.00
             233.60,275.74 230.95,274.29 228.31,276.03
             225.20,278.07 225.09,287.89 227.60,290.40
             229.40,292.21 232.64,291.97 235.00,292.00 Z
           M 174.00,301.00
           C 170.46,301.51 170.48,302.68 170.00,306.00
             173.82,306.47 183.44,307.16 183.14,300.91
             183.03,298.54 180.21,295.62 180.48,292.00
             180.68,289.40 182.45,287.35 182.94,285.02
             183.99,280.02 179.15,278.33 175.00,278.74
             170.92,279.14 169.42,282.25 166.42,282.71
             166.42,282.71 160.00,281.84 160.00,281.84
             155.96,281.96 146.36,284.62 144.17,288.22
             143.03,290.12 143.00,292.84 143.01,295.00
             143.02,296.67 143.00,299.20 144.02,300.60
             145.27,302.31 147.16,302.16 149.00,302.57
             151.76,303.17 156.02,305.30 158.61,303.89
             161.57,302.27 162.08,296.40 167.02,294.99
             171.54,293.69 173.38,297.33 174.00,301.00 Z
           M 214.00,287.00
           C 214.00,287.00 213.00,290.00 213.00,290.00
             219.18,288.91 218.75,284.45 219.00,279.00
             215.15,278.86 208.56,278.02 205.30,280.31
             198.38,285.16 211.07,287.21 214.00,287.00 Z
           M 192.00,282.00
           C 189.46,285.59 186.93,289.38 187.75,294.00
             187.75,294.00 188.87,297.83 188.87,297.83
             188.87,297.83 188.87,304.00 188.87,304.00
             197.01,301.58 196.65,298.38 195.38,291.17
             194.50,286.18 195.82,286.33 192.00,282.00 Z
           M 213.00,291.00
           C 213.00,291.00 213.00,298.00 213.00,298.00
             214.85,295.02 214.53,294.09 213.00,291.00 Z
           M 215.00,324.00
           C 215.00,324.00 218.00,323.00 218.00,323.00
             218.47,328.80 220.10,329.09 223.00,334.00
             224.66,333.66 226.37,333.39 227.95,332.75
             235.24,329.77 232.24,321.07 233.73,317.15
             235.98,311.22 242.18,318.71 244.24,311.93
             248.07,299.29 230.30,298.21 223.02,302.90
             216.06,307.37 220.89,310.33 219.84,313.83
             219.03,316.53 217.53,314.94 215.00,324.00 Z
           M 188.00,313.00
           C 188.00,313.00 192.70,324.91 192.70,324.91
             192.70,324.91 189.00,333.00 189.00,333.00
             199.44,332.64 196.81,328.59 201.02,323.55
             202.42,321.87 206.86,319.41 204.95,316.72
             203.23,314.30 199.73,316.19 198.00,315.96
             194.68,315.50 195.94,313.28 188.00,313.00 Z
           M 170.00,316.00
           C 172.93,320.01 175.29,319.56 180.00,320.00
             180.00,320.00 181.00,315.00 181.00,315.00
             181.00,315.00 170.00,316.00 170.00,316.00 Z
           M 149.00,316.00
           C 148.94,319.02 148.59,328.51 147.13,330.89
             145.64,333.32 139.31,336.43 141.23,340.68
             143.16,344.96 147.78,340.34 150.18,339.49
             153.66,338.27 162.47,337.68 163.31,330.00
             163.50,328.30 162.57,325.80 162.25,324.00
             161.75,321.18 162.21,317.96 158.85,316.87
             158.85,316.87 149.00,316.00 149.00,316.00 Z
           M 149.00,367.00
           C 149.00,367.00 154.00,367.00 154.00,367.00
             154.00,367.00 150.00,368.20 150.00,368.20
             153.66,369.86 159.11,371.08 162.70,368.20
             167.28,364.97 170.50,351.93 178.74,354.44
             178.74,354.44 183.00,357.00 183.00,357.00
             180.79,361.42 180.24,362.26 182.00,367.00
             184.79,366.30 190.32,365.81 191.98,363.49
             193.06,361.97 193.05,358.87 193.28,357.00
             194.01,351.24 196.40,343.90 188.00,345.00
             187.36,343.22 187.15,342.05 185.58,340.74
             182.65,338.28 171.36,337.65 168.00,339.43
             162.21,342.50 153.55,350.81 151.14,357.00
             151.14,357.00 149.00,367.00 149.00,367.00 Z
           M 209.00,339.88
           C 209.33,345.71 211.06,348.19 214.00,353.00
             214.00,353.00 202.00,353.00 202.00,353.00
             203.22,360.28 211.48,368.31 218.85,363.15
             222.60,360.52 222.85,355.24 218.00,354.00
             218.51,347.97 222.23,340.36 213.00,339.88
             213.00,339.88 209.00,339.88 209.00,339.88 Z
           M 99.00,353.00
           C 103.21,354.73 103.62,354.54 108.00,354.93
             115.47,355.60 116.51,354.19 119.00,347.00
             111.87,343.59 106.50,339.12 101.00,348.00
             99.90,349.78 99.57,351.06 99.00,353.00 Z
           M 124.00,366.00
           C 124.00,366.00 121.00,365.00 121.00,365.00
             121.00,365.00 120.00,371.00 120.00,371.00
             120.00,371.00 126.00,369.00 126.00,369.00
             126.00,369.00 125.00,372.00 125.00,372.00
             131.47,372.52 135.01,375.07 138.00,368.00
             138.00,368.00 132.00,368.00 132.00,368.00
             132.00,368.00 133.00,371.00 133.00,371.00
             133.00,371.00 129.00,370.00 129.00,370.00
             129.39,364.35 126.49,362.08 130.21,359.16
             132.25,357.79 133.00,358.11 135.00,359.16
             138.22,357.33 141.44,354.07 136.77,351.43
             135.17,350.53 132.79,350.30 131.00,350.64
             123.68,352.04 123.37,359.98 124.00,366.00 Z
           M 112.00,365.00
           C 109.03,364.47 108.09,364.22 105.00,364.16
             105.00,364.16 101.00,364.16 101.00,364.16
             97.83,364.28 92.39,366.36 95.83,370.27
             97.69,372.38 107.29,372.92 109.44,371.17
             111.20,369.75 111.55,367.07 112.00,365.00 Z
           M 209.00,374.00
           C 211.55,377.82 214.51,376.90 219.00,378.00
             219.00,378.00 219.00,374.00 219.00,374.00
             219.00,374.00 209.00,374.00 209.00,374.00 Z
           M 171.00,380.00
           C 173.00,381.57 174.72,383.15 177.09,384.16
             180.95,385.82 195.32,387.00 198.94,385.31
             201.39,384.16 201.80,383.20 203.00,381.00
             201.43,379.40 199.82,377.09 197.87,376.02
             193.05,373.38 187.34,376.70 183.00,376.81
             177.47,376.94 174.44,373.90 171.00,380.00 Z
           M 140.00,383.00
           C 140.00,383.00 141.00,388.00 141.00,388.00
             141.00,388.00 144.00,387.00 144.00,387.00
             144.00,387.00 144.00,384.00 144.00,384.00
             144.00,384.00 148.00,387.00 148.00,387.00
             148.00,387.00 152.00,394.00 152.00,394.00
             152.00,394.00 142.00,405.00 142.00,405.00
             142.00,405.00 143.00,411.00 143.00,411.00
             148.26,410.89 150.93,412.27 155.74,408.81
             159.60,406.04 158.50,403.86 164.00,401.00
             162.43,394.80 163.86,394.98 165.00,389.00
             159.65,386.24 160.36,384.40 161.00,379.00
             153.12,377.33 147.70,382.00 140.00,383.00 Z
           M 117.00,380.00
           C 115.38,386.83 116.92,394.84 123.00,399.00
             128.00,390.26 128.25,396.66 131.00,383.00
             131.00,383.00 117.00,380.00 117.00,380.00 Z
           M 96.00,381.00
           C 96.00,381.00 92.51,398.00 92.51,398.00
             92.29,399.83 92.25,402.50 94.34,403.31
             96.45,404.14 102.93,400.07 105.00,399.00
             105.00,399.00 106.00,393.00 106.00,393.00
             106.00,393.00 100.00,391.00 100.00,391.00
             102.83,387.56 102.79,386.36 103.00,382.00
             103.00,382.00 96.00,381.00 96.00,381.00 Z
           M 203.10,398.00
           C 203.10,398.00 213.00,397.14 213.00,397.14
             213.00,397.14 223.00,394.05 223.00,394.05
             221.04,382.60 205.32,389.27 203.10,394.05
             202.52,395.67 202.88,396.49 203.10,398.00 Z
           M 102.00,395.00
           C 102.00,395.00 100.00,394.00 100.00,394.00
             100.00,394.00 101.00,396.00 101.00,396.00
             101.00,396.00 99.00,393.00 99.00,393.00
             99.00,393.00 102.00,395.00 102.00,395.00 Z
           M 180.00,399.00
           C 180.00,399.00 192.00,400.00 192.00,400.00
             190.96,391.27 182.98,392.68 180.00,399.00 Z
           M 115.00,407.00
           C 115.00,407.00 116.00,411.00 116.00,411.00
             116.00,411.00 113.00,408.00 113.00,408.00
             107.84,410.33 105.12,407.52 102.00,412.00
             102.00,412.00 94.00,414.00 94.00,414.00
             95.16,419.41 95.65,419.71 99.00,424.00
             99.00,424.00 106.05,418.46 106.05,418.46
             106.05,418.46 121.00,417.00 121.00,417.00
             121.29,418.27 121.34,419.40 122.17,420.51
             126.67,426.54 134.66,415.08 128.69,411.02
             127.47,410.20 126.34,410.22 125.00,410.00
             125.00,410.00 128.00,412.00 128.00,412.00
             128.00,412.00 115.00,407.00 115.00,407.00 Z
           M 189.00,430.00
           C 189.00,430.00 190.00,435.00 190.00,435.00
             191.90,433.09 195.91,429.10 196.91,426.79
             200.62,418.29 196.66,409.57 187.00,409.00
             185.31,416.52 185.30,420.83 177.00,423.00
             177.19,415.85 176.41,418.01 180.00,411.00
             180.00,411.00 179.00,409.00 179.00,409.00
             175.24,408.90 171.16,409.76 168.30,412.42
             166.24,414.34 165.70,416.79 163.70,417.94
             161.08,419.45 157.95,417.61 155.40,419.21
             153.18,420.71 152.47,424.73 155.40,426.49
             155.40,426.49 159.83,428.25 159.83,428.25
             162.73,429.61 170.15,434.35 172.96,433.84
             177.00,433.11 179.44,426.57 183.87,427.03
             185.29,427.18 187.64,429.19 189.00,430.00 Z
           M 143.00,444.00
           C 143.00,444.00 146.00,446.00 146.00,446.00
             146.00,446.00 146.00,443.00 146.00,443.00
             148.43,444.40 153.36,448.32 155.88,448.18
             159.50,447.98 161.08,441.94 157.70,438.68
             151.82,433.02 145.89,436.58 139.00,436.08
             133.26,435.67 133.85,432.36 131.46,431.15
             128.80,429.79 118.53,435.13 117.04,437.49
             113.96,442.36 124.78,450.63 128.91,450.87
             132.62,451.09 133.30,446.88 136.26,445.37
             138.89,444.01 140.57,445.66 143.00,444.00 Z
           M 98.00,465.00
           C 101.75,463.54 103.25,464.13 107.00,461.89
             109.12,460.63 115.70,456.93 116.28,454.67
             117.14,451.32 110.46,444.04 107.00,444.45
             103.98,444.81 102.47,448.40 100.82,450.54
             96.29,456.39 89.00,458.63 98.00,465.00 Z
           M 192.00,446.00
           C 194.69,450.13 197.49,452.12 202.00,454.00
             203.79,445.84 199.06,444.35 192.00,446.00 Z
           M 190.00,448.00
           C 190.00,448.00 190.00,449.00 190.00,449.00
             190.00,449.00 191.00,448.00 191.00,448.00
             191.00,448.00 190.00,448.00 190.00,448.00 Z
           M 187.00,449.00
           C 187.00,449.00 184.00,452.00 184.00,452.00
             184.00,452.00 184.00,458.00 184.00,458.00
             188.42,456.34 191.68,452.71 187.00,449.00 Z
           M 190.00,450.00
           C 190.00,450.00 190.00,451.00 190.00,451.00
             190.00,451.00 191.00,450.00 191.00,450.00
             191.00,450.00 190.00,450.00 190.00,450.00 Z
           M 160.00,460.00
           C 160.00,460.00 161.00,468.00 161.00,468.00
             161.00,468.00 163.00,467.00 163.00,467.00
             163.00,467.00 164.00,472.00 164.00,472.00
             164.00,472.00 168.00,475.00 168.00,475.00
             174.36,471.89 177.33,465.65 169.96,461.43
             166.89,459.67 163.40,460.00 160.00,460.00 Z
           M 127.00,461.00
           C 123.93,461.31 122.84,461.33 119.96,462.73
             118.76,463.32 115.36,465.26 114.40,466.08
             107.31,472.09 120.02,481.68 126.44,472.94
             127.50,471.50 128.16,469.78 128.34,468.00
             128.58,465.54 127.72,463.30 127.00,461.00 Z
           M 206.10,464.00
           C 206.10,464.00 196.04,462.51 196.04,462.51
             190.67,462.73 179.76,472.97 184.61,478.16
             184.61,478.16 188.72,480.76 188.72,480.76
             195.04,484.58 194.10,481.94 200.00,479.42
             202.63,478.30 204.68,478.68 206.10,475.76
             208.15,472.03 206.76,467.84 206.10,464.00 Z
           M 78.00,466.00
           C 75.98,468.81 69.17,476.36 68.71,479.01
             67.97,483.20 75.15,488.55 79.01,488.15
             82.82,487.75 91.22,480.09 91.08,476.00
             91.00,473.81 88.13,469.14 87.00,467.00
             87.00,467.00 78.00,466.00 78.00,466.00 Z
           M 140.00,472.92
           C 140.54,475.14 140.95,476.98 142.22,478.86
             144.10,481.64 151.58,486.73 155.00,486.28
             156.87,486.04 158.42,484.92 160.00,484.00
             160.00,484.00 155.91,477.83 155.91,477.83
             155.06,476.21 154.84,474.23 153.72,472.92
             150.03,468.24 144.10,470.77 140.00,472.92 Z
           M 130.00,483.00
           C 130.00,483.00 128.00,482.00 128.00,482.00
             128.00,482.00 126.00,495.00 126.00,495.00
             126.00,495.00 127.00,496.00 127.00,496.00
             131.88,493.95 134.39,489.34 134.74,484.04
             134.99,480.27 132.69,478.45 130.00,483.00 Z
           M 205.00,491.00
           C 209.76,493.52 212.49,496.25 218.00,495.92
             218.00,495.92 228.00,495.92 228.00,495.92
             229.80,495.71 236.39,494.53 237.63,493.69
             240.80,491.66 240.45,486.24 237.63,484.16
             236.01,483.03 228.05,480.80 226.17,481.09
             226.17,481.09 220.91,483.47 220.91,483.47
             218.12,484.07 216.28,483.20 214.00,483.47
             210.01,484.51 207.27,487.90 205.00,491.00 Z
           M 118.00,485.05
           C 116.00,485.09 111.77,485.59 110.10,485.05
             106.70,484.09 106.45,481.03 101.97,481.16
             96.65,481.31 91.66,488.77 88.21,492.58
             86.55,494.41 84.46,497.03 86.64,499.40
             90.16,503.24 95.71,498.02 99.00,496.55
             104.39,494.41 106.65,497.01 109.91,496.55
             115.29,495.51 117.33,489.61 118.00,485.05 Z
           M 211.00,527.00
           C 211.00,527.00 215.00,524.00 215.00,524.00
             215.16,517.33 218.78,513.71 216.08,509.09
             213.34,504.41 201.71,494.90 196.00,495.98
             188.34,497.44 187.65,508.54 186.12,515.00
             185.62,517.08 184.42,520.73 185.32,522.72
             186.45,525.24 190.29,526.25 192.62,524.94
             195.49,523.33 198.68,514.87 203.99,514.74
             209.86,514.60 209.87,523.06 211.00,527.00 Z
           M 227.00,508.00
           C 227.00,508.00 228.00,511.00 228.00,511.00
             222.78,514.13 221.63,523.82 225.29,525.08
             227.16,525.72 229.87,524.58 231.72,524.12
             236.82,522.85 239.73,523.06 244.94,520.24
             255.10,514.75 240.86,504.02 239.79,503.61
             233.83,501.31 229.61,507.05 227.00,508.00 Z
           M 174.00,511.00
           C 177.07,509.93 176.93,510.07 178.00,506.87
             174.70,505.69 169.78,503.95 166.72,506.87
             165.17,508.16 164.80,510.68 162.70,512.41
             160.22,514.44 156.55,513.92 155.40,516.41
             154.22,518.96 156.90,520.84 159.04,521.28
             161.28,521.97 163.74,521.40 166.00,521.28
             173.17,520.42 177.04,519.30 174.00,511.00 Z
           M 157.00,512.00
           C 157.00,512.00 157.00,513.00 157.00,513.00
             157.00,513.00 158.00,512.00 158.00,512.00
             158.00,512.00 157.00,512.00 157.00,512.00 Z
           M 195.00,538.00
           C 196.66,545.66 198.11,544.46 205.00,545.00
             206.15,542.85 208.89,545.10 211.00,545.59
             211.00,545.59 216.96,546.41 216.96,546.41
             216.96,546.41 225.00,550.00 225.00,550.00
             226.33,547.92 227.24,546.28 229.21,544.68
             231.47,542.86 237.58,540.86 236.95,537.19
             236.25,533.10 227.98,534.15 225.00,534.12
             215.98,534.02 216.05,536.02 209.00,536.97
             202.01,537.92 201.61,535.57 195.00,538.00 Z
           M 153.00,544.00
           C 156.87,543.28 161.45,542.14 164.00,539.00
             159.26,539.55 154.87,538.81 153.00,544.00 Z
           M 244.00,548.00
           C 235.93,546.61 230.46,552.54 229.08,560.00
             228.48,562.07 227.92,565.59 229.08,567.42
             231.77,570.89 240.58,565.94 242.83,558.00
             243.82,554.48 243.80,551.59 244.00,548.00 Z
           M 161.00,566.00
           C 169.11,569.55 169.91,568.70 178.00,566.00
             178.00,566.00 167.59,551.44 167.59,551.44
             165.72,550.11 160.52,549.31 159.16,551.44
             157.96,553.61 161.15,558.75 161.00,566.00 Z
           M 190.00,566.00
           C 198.75,571.92 196.50,568.64 203.00,570.80
             206.34,571.91 209.17,574.10 212.98,573.52
             214.54,573.28 216.05,572.61 217.05,571.35
             218.31,569.76 220.36,561.15 219.96,559.17
             219.61,557.47 217.99,555.45 217.00,554.00
             208.45,554.20 214.05,553.28 204.00,554.80
             195.22,556.12 192.30,556.33 190.00,566.00 Z
           M 126.00,556.00
           C 126.00,556.00 125.00,559.00 125.00,559.00
             125.00,559.00 130.00,563.00 130.00,563.00
             130.00,563.00 136.00,559.00 136.00,559.00
             136.00,559.00 126.00,556.00 126.00,556.00 Z
           M 91.00,575.10
           C 92.90,574.82 95.10,574.39 96.91,575.10
             102.30,577.57 102.04,586.01 108.03,588.25
             113.92,590.44 118.97,581.04 118.29,576.11
             118.29,576.11 114.00,568.00 114.00,568.00
             114.00,568.00 111.00,569.00 111.00,569.00
             110.30,566.71 109.75,563.68 107.57,562.48
             104.45,560.42 98.52,562.01 95.09,562.48
             86.68,564.08 80.45,559.11 77.77,571.00
             77.50,572.58 77.20,574.38 77.77,575.96
             78.46,578.49 83.71,584.13 86.66,583.28
             89.72,582.41 90.64,577.64 91.00,575.10 Z
           M 248.00,577.00
           C 250.58,577.21 251.47,577.35 254.00,576.36
             255.14,575.91 256.77,575.05 257.70,574.24
             258.58,573.48 259.03,572.90 259.57,571.87
             265.06,561.36 249.04,563.82 247.43,569.06
             247.43,569.06 248.00,577.00 248.00,577.00 Z
           M 137.00,568.00
           C 134.95,569.65 128.04,574.53 127.15,576.21
             126.48,577.48 126.35,579.56 126.29,580.99
             125.96,588.99 133.69,589.86 140.00,590.00
             140.00,590.00 139.10,582.00 139.10,582.00
             138.82,575.70 141.23,573.95 137.00,568.00 Z
           M 139.00,568.00
           C 139.00,568.00 139.00,569.00 139.00,569.00
             139.00,569.00 140.00,568.00 140.00,568.00
             140.00,568.00 139.00,568.00 139.00,568.00 Z
           M 184.98,572.97
           C 180.85,573.17 166.32,577.92 163.98,581.30
             161.46,584.94 158.65,601.31 161.98,605.26
             163.22,606.74 170.06,608.27 171.98,608.17
             176.61,607.94 176.81,603.51 178.67,600.32
             178.67,600.32 182.57,594.82 182.57,594.82
             182.57,594.82 187.58,584.00 187.58,584.00
             190.05,578.99 191.72,575.04 184.98,572.97 Z
           M 227.00,596.00
           C 227.00,596.00 226.00,606.00 226.00,606.00
             230.44,606.00 236.15,606.54 239.69,603.35
             246.11,597.56 244.02,581.01 232.00,577.86
             225.53,576.17 219.63,578.71 216.81,584.86
             215.75,587.35 214.83,590.20 216.81,592.57
             218.82,595.11 223.93,595.58 227.00,596.00 Z
           M 189.00,615.00
           C 189.41,615.43 189.34,615.96 190.54,616.36
             192.36,616.95 201.96,614.23 203.43,612.91
             205.64,610.93 204.75,606.90 205.26,604.00
             206.13,599.03 212.37,585.94 208.40,581.51
             205.54,578.65 198.57,578.15 195.65,581.51
             192.62,584.60 189.43,597.39 187.35,602.00
             185.51,606.10 181.84,608.67 181.94,611.95
             182.08,616.30 186.14,615.74 189.00,615.00 Z
           M 108.00,598.00
           C 105.08,594.74 97.47,589.05 94.23,595.23
             92.55,598.42 95.09,602.91 99.04,602.31
             100.63,602.07 106.12,598.94 108.00,598.00 Z
           M 96.00,594.00
           C 96.00,594.00 96.00,595.00 96.00,595.00
             96.00,595.00 95.00,594.00 95.00,594.00
             95.00,594.00 96.00,594.00 96.00,594.00 Z
           M 127.00,606.00
           C 127.00,606.00 129.04,600.00 129.04,600.00
             130.38,593.80 123.47,592.52 120.12,593.89
             115.83,595.64 107.52,613.70 118.04,617.38
             124.03,619.48 132.16,610.71 127.00,606.00 Z
           M 146.00,595.00
           C 147.29,599.04 147.86,599.31 152.00,600.00
             150.13,596.49 149.74,596.32 146.00,595.00 Z
           M 251.00,609.00
           C 251.00,609.00 251.00,610.00 251.00,610.00
             251.00,610.00 252.00,609.00 252.00,609.00
             252.00,609.00 251.00,609.00 251.00,609.00 Z
           M 104.00,626.00
           C 105.31,622.04 106.00,621.88 110.00,621.00
             108.92,618.08 108.35,617.06 105.89,614.98
             102.70,612.27 94.57,608.50 91.29,612.80
             89.62,615.00 90.60,617.19 89.60,619.34
             88.61,621.50 85.56,623.28 86.30,625.67
             86.91,627.66 91.25,628.61 93.04,628.59
             93.04,628.59 104.00,626.00 104.00,626.00 Z
           M 162.00,638.00
           C 164.50,637.04 166.61,636.16 168.58,634.24
             171.35,631.54 173.71,624.73 171.22,621.30
             169.77,619.29 162.59,616.24 157.00,610.00
             151.90,612.88 153.20,615.07 154.41,620.00
             154.82,621.67 155.08,624.13 156.02,625.51
             157.31,627.41 159.60,627.85 160.70,630.22
             160.70,630.22 162.00,638.00 162.00,638.00 Z
           M 85.00,616.00
           C 85.00,616.00 77.00,615.00 77.00,615.00
             75.20,607.51 66.13,611.92 66.11,618.98
             66.10,624.60 76.03,625.83 78.83,624.67
             82.48,623.16 83.87,619.43 85.00,616.00 Z
           M 243.00,613.00
           C 239.46,613.30 232.00,614.45 229.31,616.72
             222.97,622.07 228.45,630.98 235.11,628.26
             237.23,627.40 239.10,622.17 240.28,619.99
             241.83,617.12 242.21,616.14 243.00,613.00 Z
           M 197.00,625.00
           C 197.95,627.01 199.92,631.97 201.50,633.22
             205.63,636.48 218.82,626.48 207.00,622.98
             205.55,622.74 204.50,622.62 203.00,622.98
             200.82,623.08 198.94,624.06 197.00,625.00 Z
           M 143.00,630.00
           C 143.00,630.00 151.00,631.00 151.00,631.00
             151.00,631.00 153.00,626.00 153.00,626.00
             147.59,625.68 146.47,624.43 143.00,630.00 Z
           M 49.00,654.00
           C 54.87,655.43 59.30,655.19 64.91,652.75
             67.38,651.67 69.48,649.82 72.04,649.31
             75.83,648.55 83.97,651.95 90.47,643.70
             93.91,639.34 93.09,633.88 87.28,632.49
             83.61,631.61 79.22,633.44 76.00,635.00
             76.00,635.00 76.00,633.00 76.00,633.00
             76.00,633.00 73.00,634.00 73.00,634.00
             70.89,627.98 64.37,629.85 60.18,632.81
             54.39,636.90 51.02,647.34 49.00,654.00 Z
           M 137.00,636.00
           C 137.00,636.00 140.00,634.00 140.00,634.00
             140.00,634.00 140.00,630.00 140.00,630.00
             136.23,631.52 136.13,632.09 137.00,636.00 Z
           M 116.00,633.00
           C 116.00,633.00 115.00,634.00 115.00,634.00
             115.00,634.00 116.00,636.00 116.00,636.00
             116.00,636.00 118.00,635.00 118.00,635.00
             118.00,635.00 117.00,633.00 117.00,633.00
             117.00,633.00 116.00,633.00 116.00,633.00 Z
           M 91.00,651.00
           C 101.69,656.79 100.23,650.87 110.00,648.00
             110.00,648.00 110.00,641.00 110.00,641.00
             101.92,639.06 93.80,643.00 91.00,651.00 Z
           M 155.00,672.00
           C 158.47,670.10 158.49,669.60 160.00,666.00
             160.00,666.00 155.00,665.00 155.00,665.00
             155.56,662.07 155.91,660.63 157.48,658.00
             161.44,651.40 164.81,650.59 172.00,651.46
             174.37,651.75 176.77,651.99 178.91,653.14
             184.22,655.98 183.12,658.80 191.00,660.00
             191.37,656.20 191.96,649.69 187.77,647.74
             187.77,647.74 180.09,646.27 180.09,646.27
             177.30,645.17 176.02,642.94 172.96,642.35
             169.14,641.61 160.17,645.85 157.76,648.62
             156.40,650.19 152.46,660.71 152.42,663.00
             152.36,666.01 153.95,669.17 155.00,672.00 Z
           M 75.00,667.76
           C 76.28,678.61 84.45,676.48 90.57,671.05
             92.55,669.30 95.92,666.85 95.28,663.91
             94.48,660.22 89.56,656.42 86.00,655.57
             81.70,654.54 78.95,656.32 75.00,657.21
             68.10,658.76 59.39,658.70 56.65,667.00
             56.04,668.84 55.62,672.97 55.48,675.00
             55.00,681.92 55.71,688.20 65.00,684.77
             67.36,683.90 71.62,681.62 72.15,678.91
             72.74,675.66 63.32,666.46 72.15,667.76
             72.15,667.76 75.00,667.76 75.00,667.76 Z
           M 103.00,662.00
           C 103.00,662.00 119.00,663.00 119.00,663.00
             120.72,653.04 107.09,656.33 106.34,656.80
             104.43,658.00 103.78,660.04 103.00,662.00 Z
           M 34.00,664.00
           C 33.33,670.23 33.50,670.15 36.01,675.91
             39.22,683.29 42.57,684.44 50.00,681.00
             50.00,681.00 52.00,661.00 52.00,661.00
             52.00,661.00 34.00,664.00 34.00,664.00 Z
           M 130.00,665.79
           C 130.00,665.79 139.30,675.81 139.30,675.81
             144.29,678.76 149.62,672.81 146.77,668.44
             146.25,667.65 145.66,667.22 144.77,666.91
             146.49,667.52 131.84,665.55 133.00,665.79
             131.01,665.52 131.13,665.79 130.00,665.79 Z
           M 92.92,700.00
           C 101.61,697.42 100.21,688.97 99.00,682.00
             99.00,682.00 110.00,683.00 110.00,683.00
             110.00,683.00 111.00,678.00 111.00,678.00
             101.65,670.87 100.07,666.53 91.88,674.73
             90.09,676.52 87.99,678.26 88.08,681.01
             88.16,683.91 91.65,688.06 92.92,691.00
             94.25,694.46 93.51,696.49 92.92,700.00 Z
           M 98.00,671.00
           C 98.00,671.00 98.00,672.00 98.00,672.00
             98.00,672.00 97.00,671.00 97.00,671.00
             97.00,671.00 98.00,671.00 98.00,671.00 Z
           M 121.00,670.00
           C 121.00,670.00 122.00,674.00 122.00,674.00
             122.00,674.00 123.00,670.00 123.00,670.00
             123.00,670.00 121.00,670.00 121.00,670.00 Z
           M 86.00,700.00
           C 88.51,688.32 85.33,693.57 85.00,683.12
             85.00,683.12 78.17,683.12 78.17,683.12
             74.23,683.98 66.41,688.82 64.28,692.18
             62.84,694.44 60.48,701.03 63.40,702.89
             65.89,704.47 70.73,702.48 73.28,701.73
             73.28,701.73 86.00,700.00 86.00,700.00 Z
           M 123.00,684.00
           C 123.00,684.00 123.00,685.00 123.00,685.00
             123.00,685.00 124.00,684.00 124.00,684.00
             124.00,684.00 123.00,684.00 123.00,684.00 Z
           M 107.00,704.00
           C 109.86,706.49 115.92,713.40 119.17,714.17
             121.92,714.82 123.96,713.12 127.00,712.41
             130.83,711.52 137.28,712.59 138.35,707.12
             138.79,706.06 138.67,704.10 138.35,703.13
             136.46,699.87 132.41,701.97 128.00,701.92
             118.16,701.80 112.95,693.31 107.00,704.00 Z
           M 40.00,705.00
           C 40.00,705.00 43.00,709.00 43.00,709.00
             43.00,709.00 44.00,705.00 44.00,705.00
             44.00,705.00 40.00,705.00 40.00,705.00 Z
           M 88.00,705.00
           C 88.00,705.00 84.00,716.00 84.00,716.00
             85.88,716.70 87.94,717.65 90.00,717.52
             96.63,717.10 95.22,710.81 103.00,708.00
             99.44,703.25 93.47,705.40 88.00,705.00 Z
           M 46.00,728.00
           C 46.00,728.00 59.00,726.84 59.00,726.84
             61.17,727.17 63.73,727.75 65.71,726.84
             69.80,724.23 66.72,719.78 74.00,718.00
             74.00,718.00 82.00,708.00 82.00,708.00
             75.32,706.12 70.45,708.07 64.00,709.49
             60.68,710.22 58.71,709.39 56.01,710.55
             49.93,713.18 46.65,721.85 46.00,728.00 Z
           M 110.00,716.00
           C 110.00,716.00 113.00,719.00 113.00,719.00
             113.00,719.00 110.00,716.00 110.00,716.00 Z
           M 108.00,717.00
           C 108.00,717.00 108.00,718.00 108.00,718.00
             108.00,718.00 109.00,717.00 109.00,717.00
             109.00,717.00 108.00,717.00 108.00,717.00 Z
           M 92.00,721.00
           C 92.00,721.00 92.00,731.00 92.00,731.00
             89.65,730.96 87.67,731.11 86.34,728.71
             85.15,726.56 86.43,722.42 81.94,721.71
             77.83,721.06 65.22,729.69 69.92,738.94
             70.72,740.52 71.59,741.73 73.21,742.53
             78.41,745.11 83.63,740.77 88.00,738.67
             92.51,736.50 100.00,734.98 105.00,735.00
             105.00,735.00 109.00,727.00 109.00,727.00
             103.13,723.03 99.13,721.03 92.00,721.00 Z
           M 151.00,724.00
           C 151.00,724.00 151.00,725.00 151.00,725.00
             151.00,725.00 152.00,724.00 152.00,724.00
             152.00,724.00 151.00,724.00 151.00,724.00 Z
           M 87.00,748.00
           C 91.86,747.98 92.91,746.49 96.00,743.00
             90.93,742.29 88.62,742.91 87.00,748.00 Z
           M 104.00,743.00
           C 104.00,743.00 102.00,751.00 102.00,751.00
             105.59,750.71 105.81,750.92 108.00,748.00
             108.00,748.00 110.00,750.00 110.00,750.00
             110.00,750.00 111.00,749.00 111.00,749.00
             111.00,749.00 104.00,743.00 104.00,743.00 Z
           M 114.00,748.00
           C 114.00,748.00 115.00,752.00 115.00,752.00
             115.00,752.00 119.00,749.00 119.00,749.00
             119.00,749.00 114.00,748.00 114.00,748.00 Z" />
</svg>
