<?xml version="1.0" encoding="UTF-8" standalone="no"?>
<!DOCTYPE svg PUBLIC "-//W3C//DTD SVG 20010904//EN"
              "http://www.w3.org/TR/2001/REC-SVG-20010904/DTD/svg10.dtd">

<svg xmlns="http://www.w3.org/2000/svg"
     width="3.72222in" height="10.7222in"
     viewBox="0 0 335 965">
  <path id="Selection"
        fill="pink" stroke="pink" stroke-width="1"
        d="M 168.75,81.25
           C 175.18,81.16 177.85,81.71 180.00,75.00
             189.98,73.33 185.59,69.10 189.14,62.55
             191.14,58.89 194.85,56.74 197.39,53.50
             198.99,51.45 201.44,46.80 204.43,46.78
             209.35,46.74 206.56,54.13 205.23,56.25
             201.63,61.95 193.20,65.29 195.39,73.46
             196.06,76.01 197.64,76.75 200.06,77.29
             201.35,77.46 203.69,77.48 205.00,77.29
             212.44,76.74 221.86,69.55 224.28,62.50
             225.13,59.96 225.04,50.18 224.28,47.53
             222.43,41.13 218.96,42.75 217.50,33.75
             217.50,33.75 223.75,32.50 223.75,32.50
             227.95,39.28 233.28,35.01 237.08,29.98
             241.41,24.24 239.78,16.29 233.39,12.75
             231.28,11.58 228.61,11.44 226.25,11.71
             217.33,12.70 209.44,21.82 201.46,26.20
             201.46,26.20 177.88,37.36 177.88,37.36
             175.23,39.33 172.24,43.46 169.84,46.04
             166.41,49.73 163.44,51.96 162.89,57.39
             162.49,61.24 167.36,77.08 168.75,81.25 Z
           M 32.50,17.50
           C 32.86,27.76 27.55,26.93 26.25,33.76
             25.51,37.63 27.86,42.45 28.85,46.25
             31.05,54.79 27.50,62.53 40.00,62.40
             41.69,62.38 43.38,62.18 44.99,61.63
             49.81,59.96 51.11,56.76 57.50,53.75
             57.50,53.75 53.75,42.50 53.75,42.50
             49.64,43.04 39.75,45.33 37.93,39.78
             36.75,36.23 41.55,34.58 42.89,31.10
             45.55,24.19 38.18,18.93 32.50,17.50 Z
           M 141.25,22.50
           C 140.35,25.53 139.74,28.00 137.13,30.10
             134.56,32.15 128.81,32.34 127.20,37.61
             125.88,41.91 129.16,45.94 130.00,50.00
             132.29,51.06 133.65,51.86 136.25,52.18
             138.78,52.49 151.39,51.10 153.54,50.03
             155.41,49.08 158.43,46.25 160.05,44.75
             162.55,42.45 164.56,40.81 165.53,37.41
             167.45,30.60 162.50,16.35 153.75,18.09
             148.66,19.10 148.30,21.88 141.25,22.50 Z
           M 91.25,38.75
           C 91.25,38.75 98.75,41.25 98.75,41.25
             96.29,54.29 103.14,61.48 113.53,54.09
             115.79,52.48 118.08,50.03 118.85,47.29
             120.25,42.29 114.78,27.73 110.91,24.45
             106.08,20.38 90.65,20.88 85.00,23.00
             79.44,25.11 63.85,36.96 63.13,42.55
             62.60,46.59 66.33,52.38 67.74,56.25
             69.03,59.78 69.74,65.66 72.88,67.89
             76.95,70.79 86.94,65.84 88.65,61.83
             90.76,58.21 88.44,53.76 88.65,50.00
             88.25,46.41 90.24,42.34 91.25,38.75 Z
           M 235.00,60.00
           C 235.00,60.00 241.41,61.93 241.41,61.93
             241.41,61.93 260.00,58.75 260.00,58.75
             259.99,55.56 260.33,44.13 258.71,41.88
             256.94,39.40 245.44,36.70 242.40,37.06
             239.95,37.35 237.55,38.73 236.04,40.66
             231.88,45.99 236.40,51.23 235.00,60.00 Z
           M 126.25,63.75
           C 124.16,65.13 122.54,66.40 119.95,66.76
             116.79,67.21 113.39,65.73 110.00,65.59
             101.35,65.23 91.51,69.61 90.00,78.75
             90.00,78.75 111.25,83.75 111.25,83.75
             111.41,79.58 115.55,70.88 120.88,72.49
             125.05,73.76 131.16,82.36 132.50,86.25
             139.63,86.25 152.31,85.18 158.75,82.50
             157.76,71.85 157.89,63.91 145.00,62.56
             145.00,62.56 138.80,62.56 138.80,62.56
             132.69,63.06 132.44,68.83 126.25,63.75 Z
           M 66.25,72.50
           C 64.09,70.86 61.24,68.19 58.64,67.53
             53.79,66.30 49.50,69.44 45.21,70.80
             38.68,72.86 31.23,68.15 28.29,77.53
             27.79,79.24 27.51,81.68 28.29,83.36
             29.63,86.40 35.70,87.30 38.75,88.28
             46.20,90.66 57.68,90.59 62.85,83.59
             65.18,80.44 65.71,76.26 66.25,72.50 Z
           M 216.25,83.75
           C 216.25,83.75 221.38,91.65 221.38,91.65
             221.38,91.65 228.60,96.60 228.60,96.60
             228.60,96.60 228.60,106.25 228.60,106.25
             228.60,106.25 228.60,117.46 228.60,117.46
             231.09,117.80 236.03,118.93 238.25,117.46
             240.18,115.70 238.79,111.94 238.25,109.59
             238.06,104.88 237.98,97.95 241.63,94.55
             244.46,91.90 262.83,85.13 266.78,84.96
             270.38,84.81 277.50,87.86 279.50,83.36
             282.26,77.18 270.78,66.73 265.00,66.50
             265.00,66.50 249.95,68.39 249.95,68.39
             249.95,68.39 242.50,70.91 242.50,70.91
             238.16,71.74 235.90,70.63 231.26,72.85
             231.26,72.85 216.25,83.75 216.25,83.75 Z
           M 83.75,80.00
           C 81.71,80.13 79.58,80.09 77.66,80.93
             73.43,82.78 70.55,89.33 72.78,93.58
             73.85,95.64 87.46,103.08 90.11,103.78
             92.00,104.29 93.13,104.15 95.00,103.78
             99.90,102.74 108.99,100.88 105.49,94.03
             101.13,85.48 89.89,91.38 86.84,89.20
             84.48,87.53 84.19,82.69 83.75,80.00 Z
           M 182.50,107.50
           C 182.50,107.50 163.68,113.90 163.68,113.90
             162.53,114.59 161.75,115.31 160.98,116.40
             156.61,122.46 160.48,127.06 166.26,129.55
             172.76,132.34 182.39,133.45 187.41,126.90
             192.98,119.43 187.38,111.38 187.41,103.75
             194.91,103.68 200.05,102.14 206.00,97.46
             209.81,94.51 210.65,89.29 206.00,86.98
             203.00,85.29 189.56,86.06 186.25,86.98
             186.25,86.98 178.75,90.39 178.75,90.39
             175.90,91.36 171.03,91.16 170.68,95.13
             170.28,99.61 176.33,100.79 182.50,107.50 Z
           M 135.08,107.50
           C 135.08,107.50 132.23,116.25 132.23,116.25
             130.34,125.18 138.39,127.08 144.93,124.13
             151.66,121.09 149.98,114.26 151.93,108.96
             151.93,108.96 156.05,101.21 156.05,101.21
             156.96,98.60 157.29,95.84 154.59,94.19
             150.95,91.96 138.46,94.78 135.08,97.16
             130.41,100.58 130.16,104.39 135.08,107.50 Z
           M 247.50,98.75
           C 246.86,103.94 245.50,112.84 252.64,114.25
             257.03,115.13 273.48,112.03 275.93,108.09
             277.53,105.53 277.15,89.01 263.75,93.51
             256.18,96.06 256.89,96.98 247.50,98.75 Z
           M 37.50,97.50
           C 37.50,97.50 25.00,94.51 25.00,94.51
             11.66,92.01 11.24,109.44 12.83,111.79
             14.46,114.20 19.61,113.83 22.15,113.43
             25.30,112.93 26.90,111.88 29.66,110.46
             36.76,106.81 36.44,105.31 37.50,97.50 Z
           M 56.25,126.25
           C 56.25,126.25 57.49,112.66 57.49,112.66
             59.48,108.81 64.69,108.21 65.38,103.64
             66.80,93.99 48.94,99.34 48.00,100.03
             44.46,102.66 47.26,107.56 47.29,111.04
             47.33,114.99 44.65,116.89 44.68,119.89
             44.71,125.40 52.25,126.03 56.25,126.25 Z
           M 198.75,122.50
           C 213.96,122.15 223.83,113.43 220.00,97.50
             216.04,99.19 201.29,109.13 199.70,112.75
             198.86,114.68 198.93,120.05 198.75,122.50 Z
           M 115.53,103.60
           C 111.06,106.28 103.60,109.70 102.39,115.05
             101.50,118.93 103.24,121.50 104.44,125.00
             106.46,130.88 108.04,137.01 116.20,133.45
             124.51,129.83 124.20,120.29 124.54,112.50
             124.83,105.76 122.78,101.51 115.53,103.60 Z
           M 88.75,123.75
           C 88.58,121.15 88.58,117.38 87.76,115.00
             87.09,113.06 86.10,111.38 84.44,110.11
             69.28,98.61 62.16,129.76 79.28,126.80
             79.28,126.80 88.75,123.75 88.75,123.75 Z
           M 282.45,118.23
           C 272.11,119.36 267.60,120.66 257.71,123.96
             257.71,123.96 249.95,127.45 249.95,127.45
             246.76,128.08 233.24,124.88 228.93,126.33
             225.03,127.64 224.08,132.50 224.64,136.14
             225.20,139.79 227.63,141.55 227.16,144.33
             226.43,148.66 217.45,157.13 215.23,161.60
             213.98,164.11 213.94,167.68 217.46,168.05
             219.18,168.23 221.53,166.79 223.33,166.34
             223.33,166.34 230.00,165.13 230.00,165.13
             233.76,163.69 243.01,155.31 245.50,151.95
             251.80,143.45 248.78,137.33 260.11,137.43
             272.61,137.54 268.88,134.81 277.51,132.89
             281.11,132.09 286.50,132.45 289.01,129.26
             292.05,125.40 288.70,119.08 282.45,118.23 Z
           M 23.75,122.31
           C 17.95,123.41 12.88,125.74 12.70,132.50
             12.65,134.55 13.06,136.50 14.50,138.05
             17.65,141.45 32.88,143.70 37.31,143.00
             42.50,142.19 40.59,135.81 39.24,132.50
             36.28,125.29 31.21,122.78 23.75,122.31 Z
           M 193.75,166.25
           C 195.88,165.65 198.89,165.01 200.69,163.78
             202.41,162.58 204.75,159.33 206.39,157.60
             211.20,152.55 218.70,148.30 215.96,140.05
             213.24,131.84 201.75,128.33 197.54,135.28
             195.13,139.25 197.86,143.34 195.33,151.46
             193.08,158.66 190.98,158.64 193.75,166.25 Z
           M 82.50,158.75
           C 89.13,157.60 92.16,152.35 93.75,146.25
             93.75,146.25 91.25,146.25 91.25,146.25
             93.48,142.46 94.39,140.09 98.75,138.75
             96.58,126.39 83.36,135.68 76.26,136.44
             71.61,136.94 69.99,133.73 66.16,133.15
             60.69,132.33 52.48,138.28 51.79,143.76
             50.69,152.64 63.11,157.24 69.65,160.69
             74.70,163.35 79.90,165.40 82.50,158.75 Z
           M 126.25,148.75
           C 119.43,145.90 112.10,143.36 106.06,149.76
             106.06,149.76 101.80,157.16 101.80,157.16
             99.31,160.10 96.94,160.04 92.50,165.00
             92.50,165.00 110.53,173.66 110.53,173.66
             110.53,173.66 117.50,180.00 117.50,180.00
             132.79,178.74 118.03,172.14 128.30,160.28
             131.75,156.30 144.15,152.00 149.48,152.40
             149.48,152.40 160.00,155.00 160.00,155.00
             159.94,150.73 159.09,144.38 163.75,142.50
             160.58,133.39 145.24,135.14 137.50,136.21
             134.96,136.56 131.45,136.61 129.50,138.45
             127.53,140.30 126.94,145.94 126.25,148.75 Z
           M 162.50,170.00
           C 167.14,171.89 174.80,173.95 177.94,168.40
             179.73,165.23 179.08,161.21 181.06,158.06
             183.15,154.78 189.89,150.11 187.43,142.69
             185.35,136.41 176.56,139.63 173.98,144.01
             171.28,148.58 174.13,153.20 171.31,157.24
             167.96,162.08 166.90,157.48 162.50,170.00 Z
           M 258.75,147.50
           C 258.75,147.50 258.75,153.75 258.75,153.75
             271.56,154.68 266.90,154.33 278.75,151.29
             281.21,150.66 284.60,150.24 286.23,148.05
             287.44,146.41 287.34,144.40 287.50,142.50
             270.19,140.28 274.08,146.65 258.75,147.50 Z
           M 22.50,167.50
           C 26.08,169.74 34.59,175.70 35.60,179.88
             36.36,183.05 31.40,189.96 37.21,195.50
             44.05,202.04 54.41,193.26 60.05,189.84
             62.28,188.49 66.24,186.38 67.83,184.41
             69.65,182.16 70.15,179.08 69.35,176.31
             65.28,162.38 48.55,180.66 41.78,174.25
             35.29,168.11 50.18,167.61 47.43,160.05
             45.08,153.61 31.25,152.30 26.54,155.79
             22.76,158.59 22.81,163.29 22.50,167.50 Z
           M 276.25,160.00
           C 274.63,168.46 278.74,167.09 271.25,173.75
             271.25,173.75 265.00,162.78 265.00,162.78
             265.00,162.78 251.30,162.78 251.30,162.78
             249.04,163.64 239.41,170.83 236.25,172.83
             231.88,175.61 225.65,179.95 231.25,185.00
             231.25,185.00 230.00,188.75 230.00,188.75
             232.89,191.71 234.79,196.16 238.81,197.09
             242.56,197.94 251.80,194.18 256.16,193.01
             256.16,193.01 277.50,189.61 277.50,189.61
             277.50,189.61 287.50,186.71 287.50,186.71
             292.49,185.64 296.64,186.40 300.88,182.59
             304.16,179.64 303.75,176.50 303.21,172.50
             302.90,170.06 302.45,165.45 300.89,163.59
             297.55,159.59 281.59,160.40 276.25,160.00 Z
           M 138.75,172.50
           C 144.83,169.98 145.66,168.11 148.75,162.50
             140.09,161.55 134.09,161.89 138.75,172.50 Z
           M 83.75,173.75
           C 83.75,173.75 79.79,187.50 79.79,187.50
             79.79,187.50 71.25,210.00 71.25,210.00
             75.88,212.58 91.18,224.81 92.84,212.50
             93.51,207.39 87.48,205.00 90.81,200.33
             93.43,196.69 99.28,196.51 101.96,194.66
             104.51,192.90 104.83,189.70 107.50,186.25
             102.11,174.99 94.90,175.01 83.75,173.75 Z
           M 190.00,188.75
           C 190.00,188.75 196.25,188.75 196.25,188.75
             196.25,188.75 201.25,181.25 201.25,181.25
             208.99,188.63 204.70,187.56 206.25,197.50
             193.23,201.13 184.26,193.98 178.75,211.25
             184.66,211.24 190.40,210.63 196.25,209.79
             196.25,209.79 214.71,205.44 214.71,205.44
             220.18,202.41 217.56,197.04 215.94,192.50
             214.18,187.54 213.18,181.84 208.61,178.83
             204.30,175.55 192.18,172.74 189.30,178.83
             188.09,181.69 189.46,185.93 190.00,188.75 Z
           M 157.50,205.00
           C 167.53,206.55 170.30,206.53 176.05,197.49
             178.65,193.40 179.28,192.26 180.00,187.50
             172.85,185.14 163.48,181.09 156.58,186.44
             154.93,187.71 153.80,189.21 153.71,191.36
             153.54,195.70 157.11,196.98 157.50,205.00 Z
           M 96.25,227.50
           C 96.25,227.50 102.50,223.75 102.50,223.75
             105.83,226.81 113.49,233.51 116.48,225.98
             117.80,222.76 115.71,219.94 116.48,216.06
             118.00,207.66 126.28,204.91 133.75,206.25
             132.71,208.70 130.36,213.50 130.65,216.06
             131.08,219.65 135.11,220.90 137.85,216.06
             143.00,206.95 135.44,206.56 142.50,192.50
             139.54,191.13 135.73,189.30 132.50,188.81
             124.20,187.56 114.01,192.94 111.70,201.25
             110.09,205.84 113.73,209.09 111.70,212.51
             110.79,214.65 105.94,217.08 103.81,218.56
             99.35,221.68 98.73,222.80 96.25,227.50 Z
           M 240.00,208.75
           C 240.00,208.75 245.60,221.25 245.60,221.25
             245.60,221.25 238.95,233.95 238.95,233.95
             238.95,233.95 238.95,243.75 238.95,243.75
             249.26,243.71 251.24,244.20 257.19,235.10
             257.19,235.10 260.03,230.73 260.03,230.73
             261.78,226.85 259.41,222.58 263.95,220.68
             267.14,219.30 270.65,221.46 275.00,220.68
             279.29,219.96 282.65,216.93 286.25,216.08
             289.91,214.89 294.70,216.20 298.75,216.08
             302.28,216.25 308.66,215.71 306.68,210.31
             305.66,207.54 301.28,205.88 298.91,204.00
             298.91,204.00 292.18,197.58 292.18,197.58
             289.03,195.90 277.14,198.20 273.91,199.80
             268.99,202.24 269.78,207.06 265.98,208.05
             263.74,208.63 260.86,206.65 256.25,206.33
             249.51,205.85 246.23,207.18 240.00,208.75 Z
           M 28.75,207.50
           C 27.25,213.28 27.99,214.48 29.79,220.00
             30.79,223.04 33.39,234.86 35.65,236.11
             38.40,237.64 44.49,234.79 47.50,233.94
             52.31,232.56 61.54,231.94 64.81,229.83
             71.54,225.51 68.48,216.56 58.75,214.13
             52.09,212.09 49.58,215.08 45.05,214.13
             45.05,214.13 28.75,207.50 28.75,207.50 Z
           M 93.75,207.50
           C 93.75,207.50 93.75,208.75 93.75,208.75
             93.75,208.75 95.00,207.50 95.00,207.50
             95.00,207.50 93.75,207.50 93.75,207.50 Z
           M 115.00,211.25
           C 115.00,211.25 115.00,212.50 115.00,212.50
             115.00,212.50 113.75,211.25 113.75,211.25
             113.75,211.25 115.00,211.25 115.00,211.25 Z
           M 232.50,218.90
           C 231.20,216.69 230.90,215.95 228.60,214.66
             220.53,210.14 216.76,219.51 226.28,218.90
             226.28,218.90 232.50,218.90 232.50,218.90 Z
           M 163.75,218.75
           C 163.75,218.75 166.25,223.75 166.25,223.75
             166.25,223.75 166.25,218.75 166.25,218.75
             166.25,218.75 163.75,218.75 163.75,218.75 Z
           M 210.00,221.25
           C 198.11,215.75 187.03,221.98 179.90,231.98
             177.50,235.35 173.59,240.15 175.75,244.81
             177.88,248.98 185.18,245.83 188.75,244.81
             196.98,243.14 206.86,239.03 209.25,229.89
             209.25,229.89 210.00,221.25 210.00,221.25 Z
           M 151.25,228.75
           C 151.25,228.75 150.00,236.25 150.00,236.25
             150.00,236.25 155.00,230.00 155.00,230.00
             155.00,230.00 151.25,228.75 151.25,228.75 Z
           M 73.75,236.25
           C 68.58,240.99 65.30,240.71 66.25,248.75
             66.25,248.75 58.75,251.25 58.75,251.25
             57.81,239.86 53.19,244.16 46.60,245.98
             44.14,246.65 40.36,246.26 38.76,248.43
             36.99,250.83 39.49,258.68 40.68,261.18
             43.31,266.71 54.53,267.40 60.00,266.54
             62.99,266.06 65.98,264.74 68.75,263.56
             73.75,261.44 81.25,257.50 81.25,257.50
             82.81,255.18 86.66,249.84 87.48,247.50
             89.13,242.80 87.00,235.03 81.15,234.63
             78.90,234.48 76.08,235.85 73.75,236.25 Z
           M 140.00,245.00
           C 140.00,245.00 130.00,233.75 130.00,233.75
             130.00,233.75 116.25,238.33 116.25,238.33
             112.16,239.74 100.78,242.04 100.93,247.41
             101.11,253.73 112.31,252.08 116.25,252.69
             122.19,253.60 123.26,257.01 126.60,257.90
             133.20,259.68 138.36,249.94 140.00,245.00 Z
           M 206.25,250.00
           C 217.34,253.80 227.74,249.35 222.50,236.25
             214.20,238.04 209.88,242.33 206.25,250.00 Z
           M 298.75,271.25
           C 298.94,267.84 299.48,264.50 298.08,261.25
             297.15,259.14 295.34,256.83 293.63,255.30
             287.49,249.89 277.65,252.74 275.15,259.01
             272.89,264.70 272.33,273.16 280.03,274.28
             282.71,274.66 285.36,273.89 288.03,273.63
             293.95,273.04 293.11,273.00 298.75,271.25 Z
           M 160.00,258.75
           C 153.76,258.60 141.48,261.26 138.91,267.76
             133.55,281.36 145.85,286.65 151.86,282.48
             155.16,280.18 155.45,273.69 160.88,268.76
             166.80,263.39 167.68,267.10 170.00,255.00
             170.00,255.00 168.75,253.75 168.75,253.75
             163.65,254.29 162.58,254.05 160.00,258.75 Z
           M 216.25,267.50
           C 216.25,267.50 228.75,274.04 228.75,274.04
             228.75,274.04 243.70,268.90 243.70,268.90
             243.70,268.90 258.75,275.00 258.75,275.00
             258.75,275.00 264.28,269.68 264.28,269.68
             267.18,265.65 267.06,257.71 262.31,254.88
             259.15,253.26 254.74,254.69 251.25,254.88
             251.25,254.88 241.25,254.88 241.25,254.88
             241.25,254.88 232.50,257.29 232.50,257.29
             224.23,259.65 220.13,258.60 216.25,267.50 Z
           M 182.50,256.25
           C 179.76,260.35 179.16,261.39 178.16,266.25
             178.16,266.25 175.00,278.53 175.00,278.53
             175.86,284.56 183.19,284.83 187.08,281.68
             187.08,281.68 198.76,266.20 198.76,266.20
             199.73,263.93 199.76,261.19 200.00,258.75
             200.00,258.75 182.50,256.25 182.50,256.25 Z
           M 197.50,288.75
           C 200.65,289.21 212.73,291.79 214.71,291.20
             217.80,290.31 218.94,286.86 217.95,284.00
             217.23,281.89 214.79,279.94 213.21,278.34
             207.16,272.16 203.46,273.04 199.31,281.25
             197.95,283.96 197.81,285.84 197.50,288.75 Z
           M 240.00,291.25
           C 242.08,290.95 244.23,290.75 246.20,289.96
             247.40,289.49 248.50,288.96 249.44,288.05
             258.18,279.60 239.00,275.05 237.36,282.68
             237.04,284.21 239.41,289.16 240.00,291.25 Z
           M 272.50,282.50
           C 264.75,283.05 262.06,284.73 260.49,292.50
             259.58,295.00 258.75,298.23 260.49,300.30
             263.31,302.85 273.50,304.10 273.65,291.25
             273.69,288.31 273.01,285.38 272.50,282.50 Z
           M 303.75,283.80
           C 297.93,282.40 298.43,283.53 293.23,283.80
             290.79,284.00 286.39,283.39 284.31,284.46
             279.94,286.73 283.35,293.53 286.46,295.34
             290.96,297.98 297.55,294.91 300.69,291.38
             302.84,288.96 303.10,286.75 303.75,283.80 Z
           M 295.00,293.75
           C 295.00,293.75 295.00,295.00 295.00,295.00
             295.00,295.00 293.75,293.75 293.75,293.75
             293.75,293.75 295.00,293.75 295.00,293.75 Z
           M 143.75,295.21
           C 142.71,300.60 145.49,311.01 152.61,311.30
             156.28,311.45 161.08,307.85 164.65,306.71
             164.65,306.71 176.25,305.00 176.25,305.00
             176.25,305.00 175.56,301.36 175.56,301.36
             172.40,291.61 164.53,298.43 160.00,297.94
             160.00,297.94 152.50,295.21 152.50,295.21
             152.50,295.21 143.75,295.21 143.75,295.21 Z
           M 195.00,318.75
           C 195.00,318.75 203.75,321.25 203.75,321.25
             203.54,308.23 209.75,315.43 213.75,305.00
             211.35,304.33 209.05,303.54 206.51,304.14
             201.58,305.29 196.51,314.26 195.00,318.75 Z
           M 235.00,315.00
           C 235.00,315.00 243.75,315.00 243.75,315.00
             241.20,308.14 237.33,307.74 235.00,315.00 Z
           M 253.75,311.25
           C 252.43,322.18 256.26,318.60 261.79,323.76
             266.69,328.35 263.74,334.08 268.13,337.08
             271.61,339.46 277.45,338.34 278.15,333.61
             278.59,330.58 274.68,318.05 272.73,315.70
             268.45,310.51 259.79,311.25 253.75,311.25 Z
           M 166.25,322.50
           C 170.58,328.96 173.48,328.43 175.09,331.53
             176.60,334.93 173.71,337.78 175.09,340.73
             177.49,345.26 188.96,346.08 191.74,338.68
             196.10,327.03 178.06,318.29 172.50,319.21
             169.79,319.66 168.36,321.01 166.25,322.50 Z
           M 290.00,322.50
           C 290.00,322.50 290.00,323.75 290.00,323.75
             290.00,323.75 291.25,322.50 291.25,322.50
             291.25,322.50 290.00,322.50 290.00,322.50 Z
           M 292.50,322.50
           C 292.50,322.50 292.50,323.75 292.50,323.75
             292.50,323.75 293.75,322.50 293.75,322.50
             293.75,322.50 292.50,322.50 292.50,322.50 Z
           M 233.75,338.75
           C 239.71,343.35 250.18,346.90 253.71,337.45
             255.51,332.61 253.91,327.21 248.73,328.94
             248.73,328.94 233.75,338.75 233.75,338.75 Z
           M 206.25,328.75
           C 206.25,328.75 205.00,333.75 205.00,333.75
             205.00,333.75 216.25,336.25 216.25,336.25
             213.74,331.23 211.24,330.81 206.25,328.75 Z
           M 293.75,365.00
           C 293.75,365.00 295.00,346.25 295.00,346.25
             292.00,344.68 288.69,342.86 285.39,345.04
             281.50,347.59 281.36,359.86 284.50,363.00
             286.75,365.26 290.80,364.96 293.75,365.00 Z
           M 217.50,376.25
           C 213.08,376.89 213.10,378.35 212.50,382.50
             217.28,383.09 229.30,383.95 228.93,376.14
             228.79,373.18 225.26,369.53 225.60,365.00
             225.85,361.75 228.06,359.19 228.68,356.28
             229.99,350.03 223.94,347.91 218.75,348.43
             213.65,348.93 211.78,352.81 208.03,353.39
             208.03,353.39 200.00,352.30 200.00,352.30
             194.95,352.45 182.95,355.78 180.21,360.28
             178.79,362.65 178.75,366.05 178.76,368.75
             178.78,370.84 178.75,374.00 180.03,375.75
             181.59,377.89 183.95,377.70 186.25,378.21
             189.70,378.96 195.03,381.63 198.26,379.86
             201.96,377.84 202.60,370.50 208.78,368.74
             214.43,367.11 216.73,371.66 217.50,376.25 Z
           M 267.50,358.75
           C 267.50,358.75 266.25,362.50 266.25,362.50
             273.98,361.14 273.44,355.56 273.75,348.75
             268.94,348.58 260.70,347.53 256.63,350.39
             247.98,356.45 263.84,359.01 267.50,358.75 Z
           M 240.00,352.50
           C 236.83,356.99 233.66,361.73 234.69,367.50
             234.69,367.50 236.09,372.29 236.09,372.29
             236.09,372.29 236.09,380.00 236.09,380.00
             246.26,376.98 245.81,372.98 244.23,363.96
             243.13,357.73 244.78,357.91 240.00,352.50 Z
           M 266.25,363.75
           C 266.25,363.75 266.25,372.50 266.25,372.50
             268.56,368.78 268.16,367.61 266.25,363.75 Z
           M 268.75,405.00
           C 268.75,405.00 272.50,403.75 272.50,403.75
             273.09,411.00 275.13,411.36 278.75,417.50
             280.83,417.08 282.96,416.74 284.94,415.94
             294.05,412.21 290.30,401.34 292.16,396.44
             294.98,389.03 302.73,398.39 305.30,389.91
             310.09,374.11 287.88,372.76 278.78,378.63
             270.08,384.21 276.11,387.91 274.80,392.29
             273.79,395.66 271.91,393.68 268.75,405.00 Z
           M 235.00,391.25
           C 235.00,391.25 240.88,406.14 240.88,406.14
             240.88,406.14 236.25,416.25 236.25,416.25
             249.30,415.80 246.01,410.74 251.28,404.44
             253.03,402.34 258.58,399.26 256.19,395.90
             254.04,392.88 249.66,395.24 247.50,394.95
             243.35,394.38 244.93,391.60 235.00,391.25 Z
           M 212.50,395.00
           C 216.16,400.01 219.11,399.45 225.00,400.00
             225.00,400.00 226.25,393.75 226.25,393.75
             226.25,393.75 212.50,395.00 212.50,395.00 Z
           M 186.25,395.00
           C 186.18,398.78 185.74,410.64 183.91,413.61
             182.05,416.65 174.14,420.54 176.54,425.85
             178.95,431.20 184.73,425.43 187.73,424.36
             192.08,422.84 203.09,422.10 204.14,412.50
             204.38,410.38 203.21,407.25 202.81,405.00
             202.19,401.48 202.76,397.45 198.56,396.09
             198.56,396.09 186.25,395.00 186.25,395.00 Z
           M 186.25,458.75
           C 186.25,458.75 192.50,458.75 192.50,458.75
             192.50,458.75 187.50,460.25 187.50,460.25
             192.08,462.33 198.89,463.85 203.38,460.25
             209.10,456.21 213.13,439.91 223.43,443.05
             223.43,443.05 228.75,446.25 228.75,446.25
             225.99,451.78 225.30,452.83 227.50,458.75
             230.99,457.88 237.90,457.26 239.98,454.36
             241.33,452.46 241.31,448.59 241.60,446.25
             242.51,439.05 245.50,429.88 235.00,431.25
             234.20,429.03 233.94,427.56 231.98,425.93
             228.31,422.85 214.20,422.06 210.00,424.29
             202.76,428.13 191.94,438.51 188.93,446.25
             188.93,446.25 186.25,458.75 186.25,458.75 Z
           M 261.25,424.85
           C 261.66,432.14 263.83,435.24 267.50,441.25
             267.50,441.25 252.50,441.25 252.50,441.25
             254.03,450.35 264.35,460.39 273.56,453.94
             278.25,450.65 278.56,444.05 272.50,442.50
             273.14,434.96 277.79,425.45 266.25,424.85
             266.25,424.85 261.25,424.85 261.25,424.85 Z
           M 123.75,441.25
           C 129.01,443.41 129.53,443.18 135.00,443.66
             144.34,444.50 145.64,442.74 148.75,433.75
             139.84,429.49 133.13,423.90 126.25,435.00
             124.88,437.23 124.46,438.83 123.75,441.25 Z
           M 155.00,457.50
           C 155.00,457.50 151.25,456.25 151.25,456.25
             151.25,456.25 150.00,463.75 150.00,463.75
             150.00,463.75 157.50,461.25 157.50,461.25
             157.50,461.25 156.25,465.00 156.25,465.00
             164.34,465.65 168.76,468.84 172.50,460.00
             172.50,460.00 165.00,460.00 165.00,460.00
             165.00,460.00 166.25,463.75 166.25,463.75
             166.25,463.75 161.25,462.50 161.25,462.50
             161.74,455.44 158.11,452.60 162.76,448.95
             165.31,447.24 166.25,447.64 168.75,448.95
             172.78,446.66 176.80,442.59 170.96,439.29
             168.96,438.16 165.99,437.88 163.75,438.30
             154.60,440.05 154.21,449.98 155.00,457.50 Z
           M 140.00,456.25
           C 136.29,455.59 135.11,455.28 131.25,455.20
             131.25,455.20 126.25,455.20 126.25,455.20
             122.29,455.35 115.49,457.95 119.79,462.84
             122.11,465.48 134.11,466.15 136.80,463.96
             139.00,462.19 139.44,458.84 140.00,456.25 Z
           M 261.25,467.50
           C 264.44,472.28 268.14,471.13 273.75,472.50
             273.75,472.50 273.75,467.50 273.75,467.50
             273.75,467.50 261.25,467.50 261.25,467.50 Z
           M 213.75,475.00
           C 216.25,476.96 218.40,478.94 221.36,480.20
             226.19,482.28 244.15,483.75 248.68,481.64
             251.74,480.20 252.25,479.00 253.75,476.25
             251.79,474.25 249.78,471.36 247.34,470.03
             241.31,466.73 234.18,470.88 228.75,471.01
             221.84,471.18 218.05,467.38 213.75,475.00 Z
           M 175.00,478.75
           C 175.00,478.75 176.25,485.00 176.25,485.00
             176.25,485.00 180.00,483.75 180.00,483.75
             180.00,483.75 180.00,480.00 180.00,480.00
             180.00,480.00 185.00,483.75 185.00,483.75
             185.00,483.75 190.00,492.50 190.00,492.50
             190.00,492.50 177.50,506.25 177.50,506.25
             177.50,506.25 178.75,513.75 178.75,513.75
             185.33,513.61 188.66,515.34 194.68,511.01
             199.50,507.55 198.13,504.83 205.00,501.25
             203.04,493.50 204.83,493.73 206.25,486.25
             199.56,482.80 200.45,480.50 201.25,473.75
             191.40,471.66 184.63,477.50 175.00,478.75 Z
           M 146.25,475.00
           C 144.23,483.54 146.15,493.55 153.75,498.75
             160.00,487.83 160.31,495.83 163.75,478.75
             163.75,478.75 146.25,475.00 146.25,475.00 Z
           M 120.00,476.25
           C 120.00,476.25 115.64,497.50 115.64,497.50
             115.36,499.79 115.31,503.13 117.93,504.14
             120.56,505.18 128.66,500.09 131.25,498.75
             131.25,498.75 132.50,491.25 132.50,491.25
             132.50,491.25 125.00,488.75 125.00,488.75
             128.54,484.45 128.49,482.95 128.75,477.50
             128.75,477.50 120.00,476.25 120.00,476.25 Z
           M 253.88,497.50
           C 253.88,497.50 266.25,496.43 266.25,496.43
             266.25,496.43 278.75,492.56 278.75,492.56
             276.30,478.25 256.65,486.59 253.88,492.56
             253.15,494.59 253.60,495.61 253.88,497.50 Z
           M 127.50,493.75
           C 127.50,493.75 125.00,492.50 125.00,492.50
             125.00,492.50 126.25,495.00 126.25,495.00
             126.25,495.00 123.75,491.25 123.75,491.25
             123.75,491.25 127.50,493.75 127.50,493.75 Z
           M 225.00,498.75
           C 225.00,498.75 240.00,500.00 240.00,500.00
             238.70,489.09 228.73,490.85 225.00,498.75 Z
           M 143.75,508.75
           C 143.75,508.75 145.00,513.75 145.00,513.75
             145.00,513.75 141.25,510.00 141.25,510.00
             134.80,512.91 131.40,509.40 127.50,515.00
             127.50,515.00 117.50,517.50 117.50,517.50
             118.95,524.26 119.56,524.64 123.75,530.00
             123.75,530.00 132.56,523.08 132.56,523.08
             132.56,523.08 151.25,521.25 151.25,521.25
             151.61,522.84 151.68,524.25 152.71,525.64
             158.34,533.18 168.33,518.85 160.86,513.78
             159.34,512.75 157.93,512.78 156.25,512.50
             156.25,512.50 160.00,515.00 160.00,515.00
             160.00,515.00 143.75,508.75 143.75,508.75 Z
           M 236.25,537.50
           C 236.25,537.50 237.50,543.75 237.50,543.75
             239.88,541.36 244.89,536.38 246.14,533.49
             250.78,522.86 245.83,511.96 233.75,511.25
             231.64,520.65 231.63,526.04 221.25,528.75
             221.49,519.81 220.51,522.51 225.00,513.75
             225.00,513.75 223.75,511.25 223.75,511.25
             219.05,511.13 213.95,512.20 210.38,515.53
             207.80,517.93 207.13,520.99 204.63,522.43
             201.35,524.31 197.44,522.01 194.25,524.01
             191.48,525.89 190.59,530.91 194.25,533.11
             194.25,533.11 199.79,535.31 199.79,535.31
             203.41,537.01 212.69,542.94 216.20,542.30
             221.25,541.39 224.30,533.21 229.84,533.79
             231.61,533.98 234.55,536.49 236.25,537.50 Z
           M 178.75,555.00
           C 178.75,555.00 182.50,557.50 182.50,557.50
             182.50,557.50 182.50,553.75 182.50,553.75
             185.54,555.50 191.70,560.40 194.85,560.23
             199.38,559.98 201.35,552.43 197.13,548.35
             189.78,541.28 182.36,545.73 173.75,545.10
             166.58,544.59 167.31,540.45 164.33,538.94
             161.00,537.24 148.16,543.91 146.30,546.86
             142.45,552.95 155.98,563.29 161.14,563.59
             165.78,563.86 166.63,558.60 170.33,556.71
             173.61,555.01 175.71,557.08 178.75,555.00 Z
           M 122.50,581.25
           C 127.19,579.43 129.06,580.16 133.75,577.36
             136.40,575.79 144.63,571.16 145.35,568.34
             146.43,564.15 138.08,555.05 133.75,555.56
             129.98,556.01 128.09,560.50 126.03,563.18
             120.36,570.49 111.25,573.29 122.50,581.25 Z
           M 240.00,557.50
           C 243.36,562.66 246.86,565.15 252.50,567.50
             254.74,557.30 248.83,555.44 240.00,557.50 Z
           M 237.50,560.00
           C 237.50,560.00 237.50,561.25 237.50,561.25
             237.50,561.25 238.75,560.00 238.75,560.00
             238.75,560.00 237.50,560.00 237.50,560.00 Z
           M 233.75,561.25
           C 233.75,561.25 230.00,565.00 230.00,565.00
             230.00,565.00 230.00,572.50 230.00,572.50
             235.53,570.43 239.60,565.89 233.75,561.25 Z
           M 237.50,562.50
           C 237.50,562.50 237.50,563.75 237.50,563.75
             237.50,563.75 238.75,562.50 238.75,562.50
             238.75,562.50 237.50,562.50 237.50,562.50 Z
           M 200.00,575.00
           C 200.00,575.00 201.25,585.00 201.25,585.00
             201.25,585.00 203.75,583.75 203.75,583.75
             203.75,583.75 205.00,590.00 205.00,590.00
             205.00,590.00 210.00,593.75 210.00,593.75
             217.95,589.86 221.66,582.06 212.45,576.79
             208.61,574.59 204.25,575.00 200.00,575.00 Z
           M 158.75,576.25
           C 154.91,576.64 153.55,576.66 149.95,578.41
             148.45,579.15 144.20,581.58 143.00,582.60
             134.14,590.11 150.03,602.10 158.05,591.18
             159.38,589.38 160.20,587.23 160.43,585.00
             160.73,581.93 159.65,579.13 158.75,576.25 Z
           M 257.63,580.00
           C 257.63,580.00 245.05,578.14 245.05,578.14
             238.34,578.41 224.70,591.21 230.76,597.70
             230.76,597.70 235.90,600.95 235.90,600.95
             243.80,605.73 242.63,602.43 250.00,599.28
             253.29,597.88 255.85,598.35 257.63,594.70
             260.19,590.04 258.45,584.80 257.63,580.00 Z
           M 97.50,582.50
           C 94.98,586.01 86.46,595.45 85.89,598.76
             84.96,604.00 93.94,610.69 98.76,610.19
             103.53,609.69 114.03,600.11 113.85,595.00
             113.75,592.26 110.16,586.43 108.75,583.75
             108.75,583.75 97.50,582.50 97.50,582.50 Z
           M 175.00,591.15
           C 175.68,593.93 176.19,596.23 177.78,598.58
             180.13,602.05 189.48,608.41 193.75,607.85
             196.09,607.55 198.03,606.15 200.00,605.00
             200.00,605.00 194.89,597.29 194.89,597.29
             193.83,595.26 193.55,592.79 192.15,591.15
             187.54,585.30 180.13,588.46 175.00,591.15 Z
           M 162.50,603.75
           C 162.50,603.75 160.00,602.50 160.00,602.50
             160.00,602.50 157.50,618.75 157.50,618.75
             157.50,618.75 158.75,620.00 158.75,620.00
             164.85,617.44 167.99,611.68 168.43,605.05
             168.74,600.34 165.86,598.06 162.50,603.75 Z
           M 256.25,613.75
           C 262.20,616.90 265.61,620.31 272.50,619.90
             272.50,619.90 285.00,619.90 285.00,619.90
             287.25,619.64 295.49,618.16 297.04,617.11
             301.00,614.58 300.56,607.80 297.04,605.20
             295.01,603.79 285.06,601.00 282.71,601.36
             282.71,601.36 276.14,604.34 276.14,604.34
             272.65,605.09 270.35,604.00 267.50,604.34
             262.51,605.64 259.09,609.88 256.25,613.75 Z
           M 147.50,606.31
           C 145.00,606.36 139.71,606.99 137.63,606.31
             133.38,605.11 133.06,601.29 127.46,601.45
             120.81,601.64 114.58,610.96 110.26,615.73
             108.19,618.01 105.58,621.29 108.30,624.25
             112.70,629.05 119.64,622.53 123.75,620.69
             130.49,618.01 133.31,621.26 137.39,620.69
             144.11,619.39 146.66,612.01 147.50,606.31 Z
           M 263.75,658.75
           C 263.75,658.75 268.75,655.00 268.75,655.00
             268.95,646.66 273.48,642.14 270.10,636.36
             266.68,630.51 252.14,618.63 245.00,619.98
             235.43,621.80 234.56,635.68 232.65,643.75
             232.03,646.35 230.53,650.91 231.65,653.40
             233.06,656.55 237.86,657.81 240.78,656.18
             244.36,654.16 248.35,643.59 254.99,643.43
             262.33,643.25 262.34,653.83 263.75,658.75 Z
           M 283.75,635.00
           C 283.75,635.00 285.00,638.75 285.00,638.75
             278.48,642.66 277.04,654.78 281.61,656.35
             283.95,657.15 287.34,655.73 289.65,655.15
             296.03,653.56 299.66,653.83 306.18,650.30
             318.88,643.44 301.08,630.03 299.74,629.51
             292.29,626.64 287.01,633.81 283.75,635.00 Z
           M 217.50,638.75
           C 221.34,637.41 221.16,637.59 222.50,633.59
             218.38,632.11 212.23,629.94 208.40,633.59
             206.46,635.20 206.00,638.35 203.38,640.51
             200.28,643.05 195.69,642.40 194.25,645.51
             192.78,648.70 196.13,651.05 198.80,651.60
             201.60,652.46 204.68,651.75 207.50,651.60
             216.46,650.53 221.30,649.13 217.50,638.75 Z
           M 196.25,640.00
           C 196.25,640.00 196.25,641.25 196.25,641.25
             196.25,641.25 197.50,640.00 197.50,640.00
             197.50,640.00 196.25,640.00 196.25,640.00 Z
           M 243.75,672.50
           C 245.83,682.08 247.64,680.58 256.25,681.25
             257.69,678.56 261.11,681.38 263.75,681.99
             263.75,681.99 271.20,683.01 271.20,683.01
             271.20,683.01 281.25,687.50 281.25,687.50
             282.91,684.90 284.05,682.85 286.51,680.85
             289.34,678.58 296.98,676.08 296.19,671.49
             295.31,666.38 284.98,667.69 281.25,667.65
             269.98,667.53 270.06,670.03 261.25,671.21
             252.51,672.40 252.01,669.46 243.75,672.50 Z
           M 191.25,680.00
           C 196.09,679.10 201.81,677.68 205.00,673.75
             199.08,674.44 193.59,673.51 191.25,680.00 Z
           M 305.00,685.00
           C 294.91,683.26 288.08,690.68 286.35,700.00
             285.60,702.59 284.90,706.99 286.35,709.28
             289.71,713.61 300.73,707.43 303.54,697.50
             304.78,693.10 304.75,689.49 305.00,685.00 Z
           M 201.25,707.50
           C 211.39,711.94 212.39,710.88 222.50,707.50
             222.50,707.50 209.49,689.30 209.49,689.30
             207.15,687.64 200.65,686.64 198.95,689.30
             197.45,692.01 201.44,698.44 201.25,707.50 Z
           M 237.50,707.50
           C 248.44,714.90 245.63,710.80 253.75,713.50
             257.93,714.89 261.46,717.63 266.23,716.90
             268.18,716.60 270.06,715.76 271.31,714.19
             272.89,712.20 275.45,701.44 274.95,698.96
             274.51,696.84 272.49,694.31 271.25,692.50
             260.56,692.75 267.56,691.60 255.00,693.50
             244.03,695.15 240.38,695.41 237.50,707.50 Z
           M 157.50,695.00
           C 157.50,695.00 156.25,698.75 156.25,698.75
             156.25,698.75 162.50,703.75 162.50,703.75
             162.50,703.75 170.00,698.75 170.00,698.75
             170.00,698.75 157.50,695.00 157.50,695.00 Z
           M 113.75,718.88
           C 116.13,718.53 118.88,717.99 121.14,718.88
             127.88,721.96 127.55,732.51 135.04,735.31
             142.40,738.05 148.71,726.30 147.86,720.14
             147.86,720.14 142.50,710.00 142.50,710.00
             142.50,710.00 138.75,711.25 138.75,711.25
             137.88,708.39 137.19,704.60 134.46,703.10
             130.56,700.53 123.15,702.51 118.86,703.10
             108.35,705.10 100.56,698.89 97.21,713.75
             96.88,715.73 96.50,717.98 97.21,719.95
             98.08,723.11 104.64,730.16 108.33,729.10
             112.15,728.01 113.30,722.05 113.75,718.88 Z
           M 310.00,721.25
           C 313.23,721.51 314.34,721.69 317.50,720.45
             318.93,719.89 320.96,718.81 322.13,717.80
             323.23,716.85 323.79,716.13 324.46,714.84
             331.33,701.70 311.30,704.78 309.29,711.33
             309.29,711.33 310.00,721.25 310.00,721.25 Z
           M 171.25,710.00
           C 168.69,712.06 160.05,718.16 158.94,720.26
             158.10,721.85 157.94,724.45 157.86,726.24
             157.45,736.24 167.11,737.33 175.00,737.50
             175.00,737.50 173.88,727.50 173.88,727.50
             173.53,719.63 176.54,717.44 171.25,710.00 Z
           M 173.75,710.00
           C 173.75,710.00 173.75,711.25 173.75,711.25
             173.75,711.25 175.00,710.00 175.00,710.00
             175.00,710.00 173.75,710.00 173.75,710.00 Z
           M 231.23,716.21
           C 226.06,716.46 207.90,722.40 204.98,726.63
             201.83,731.18 198.31,751.64 202.48,756.58
             204.03,758.43 212.58,760.34 214.98,760.21
             220.76,759.93 221.01,754.39 223.34,750.40
             223.34,750.40 228.21,743.53 228.21,743.53
             228.21,743.53 234.48,730.00 234.48,730.00
             237.56,723.74 239.65,718.80 231.23,716.21 Z
           M 283.75,745.00
           C 283.75,745.00 282.50,757.50 282.50,757.50
             288.05,757.50 295.19,758.18 299.61,754.19
             307.64,746.95 305.03,726.26 290.00,722.33
             281.91,720.21 274.54,723.39 271.01,731.08
             269.69,734.19 268.54,737.75 271.01,740.71
             273.53,743.89 279.91,744.48 283.75,745.00 Z
           M 236.25,768.75
           C 236.76,769.29 236.68,769.95 238.18,770.45
             240.45,771.19 252.45,767.79 254.29,766.14
             257.05,763.66 255.94,758.63 256.58,755.00
             257.66,748.79 265.46,732.43 260.50,726.89
             256.93,723.31 248.21,722.69 244.56,726.89
             240.78,730.75 236.79,746.74 234.19,752.50
             231.89,757.63 227.30,760.84 227.43,764.94
             227.60,770.38 232.68,769.68 236.25,768.75 Z
           M 135.00,747.50
           C 131.35,743.43 121.84,736.31 117.79,744.04
             115.69,748.03 118.86,753.64 123.80,752.89
             125.79,752.59 132.65,748.68 135.00,747.50 Z
           M 120.00,742.50
           C 120.00,742.50 120.00,743.75 120.00,743.75
             120.00,743.75 118.75,742.50 118.75,742.50
             118.75,742.50 120.00,742.50 120.00,742.50 Z
           M 158.75,757.50
           C 158.75,757.50 161.30,750.00 161.30,750.00
             162.98,742.25 154.34,740.65 150.15,742.36
             144.79,744.55 134.40,767.13 147.55,771.73
             155.04,774.35 165.20,763.39 158.75,757.50 Z
           M 182.50,743.75
           C 184.11,748.80 184.83,749.14 190.00,750.00
             187.66,745.61 187.18,745.40 182.50,743.75 Z
           M 313.75,761.25
           C 313.75,761.25 313.75,762.50 313.75,762.50
             313.75,762.50 315.00,761.25 315.00,761.25
             315.00,761.25 313.75,761.25 313.75,761.25 Z
           M 130.00,782.50
           C 131.64,777.55 132.50,777.35 137.50,776.25
             136.15,772.60 135.44,771.33 132.36,768.73
             128.38,765.34 118.21,760.63 114.11,766.00
             112.03,768.75 113.25,771.49 112.00,774.18
             110.76,776.88 106.95,779.10 107.88,782.09
             108.64,784.58 114.06,785.76 116.30,785.74
             116.30,785.74 130.00,782.50 130.00,782.50 Z
           M 202.50,797.50
           C 205.63,796.30 208.26,795.20 210.73,792.80
             214.19,789.43 217.14,780.91 214.03,776.63
             212.21,774.11 203.24,770.30 196.25,762.50
             189.88,766.10 191.50,768.84 193.01,775.00
             193.53,777.09 193.85,780.16 195.03,781.89
             196.64,784.26 199.50,784.81 200.88,787.78
             200.88,787.78 202.50,797.50 202.50,797.50 Z
           M 106.25,770.00
           C 106.25,770.00 96.25,768.75 96.25,768.75
             94.00,759.39 82.66,764.90 82.64,773.73
             82.63,780.75 95.04,782.29 98.54,780.84
             103.10,778.95 104.84,774.29 106.25,770.00 Z
           M 303.75,766.25
           C 299.33,766.63 290.00,768.06 286.64,770.90
             278.71,777.59 285.56,788.73 293.89,785.33
             296.54,784.25 298.88,777.71 300.35,774.99
             302.29,771.40 302.76,770.18 303.75,766.25 Z
           M 246.25,781.25
           C 247.44,783.76 249.90,789.96 251.88,791.53
             257.04,795.60 273.53,783.10 258.75,778.73
             256.94,778.43 255.63,778.28 253.75,778.73
             251.03,778.85 248.68,780.08 246.25,781.25 Z
           M 178.75,787.50
           C 178.75,787.50 188.75,788.75 188.75,788.75
             188.75,788.75 191.25,782.50 191.25,782.50
             184.49,782.10 183.09,780.54 178.75,787.50 Z
           M 61.25,817.50
           C 68.59,819.29 74.13,818.99 81.14,815.94
             84.23,814.59 86.85,812.28 90.05,811.64
             94.79,810.69 104.96,814.94 113.09,804.63
             117.39,799.18 116.36,792.35 109.10,790.61
             104.51,789.51 99.03,791.80 95.00,793.75
             95.00,793.75 95.00,791.25 95.00,791.25
             95.00,791.25 91.25,792.50 91.25,792.50
             88.61,784.98 80.46,787.31 75.23,791.01
             67.99,796.13 63.78,809.18 61.25,817.50 Z
           M 171.25,795.00
           C 171.25,795.00 175.00,792.50 175.00,792.50
             175.00,792.50 175.00,787.50 175.00,787.50
             170.29,789.40 170.16,790.11 171.25,795.00 Z
           M 145.00,791.25
           C 145.00,791.25 143.75,792.50 143.75,792.50
             143.75,792.50 145.00,795.00 145.00,795.00
             145.00,795.00 147.50,793.75 147.50,793.75
             147.50,793.75 146.25,791.25 146.25,791.25
             146.25,791.25 145.00,791.25 145.00,791.25 Z
           M 113.75,813.75
           C 127.11,820.99 125.29,813.59 137.50,810.00
             137.50,810.00 137.50,801.25 137.50,801.25
             127.40,798.83 117.25,803.75 113.75,813.75 Z
           M 193.75,840.00
           C 198.09,837.63 198.11,837.00 200.00,832.50
             200.00,832.50 193.75,831.25 193.75,831.25
             194.45,827.59 194.89,825.79 196.85,822.50
             201.80,814.25 206.01,813.24 215.00,814.33
             217.96,814.69 220.96,814.99 223.64,816.43
             230.28,819.98 228.90,823.50 238.75,825.00
             239.21,820.25 239.95,812.11 234.71,809.68
             234.71,809.68 225.11,807.84 225.11,807.84
             221.63,806.46 220.03,803.68 216.20,802.94
             211.43,802.01 200.21,807.31 197.20,810.78
             195.50,812.74 190.58,825.89 190.53,828.75
             190.45,832.51 192.44,836.46 193.75,840.00 Z
           M 93.75,834.70
           C 95.35,848.26 105.56,845.60 113.21,838.81
             115.69,836.63 119.90,833.56 119.10,829.89
             118.10,825.28 111.95,820.53 107.50,819.46
             102.13,818.18 98.69,820.40 93.75,821.51
             85.13,823.45 74.24,823.38 70.81,833.75
             70.05,836.05 69.53,841.21 69.35,843.75
             68.75,852.40 69.64,860.25 81.25,855.96
             84.20,854.88 89.53,852.03 90.19,848.64
             90.93,844.58 79.15,833.08 90.19,834.70
             90.19,834.70 93.75,834.70 93.75,834.70 Z
           M 128.75,827.50
           C 128.75,827.50 148.75,828.75 148.75,828.75
             150.90,816.30 133.86,820.41 132.93,821.00
             130.54,822.50 129.73,825.05 128.75,827.50 Z
           M 42.50,830.00
           C 41.66,837.79 41.88,837.69 45.01,844.89
             49.03,854.11 53.21,855.55 62.50,851.25
             62.50,851.25 65.00,826.25 65.00,826.25
             65.00,826.25 42.50,830.00 42.50,830.00 Z
           M 162.50,832.24
           C 162.50,832.24 174.13,844.76 174.13,844.76
             180.36,848.45 187.03,841.01 183.46,835.55
             182.81,834.56 182.08,834.03 180.96,833.64
             183.11,834.40 164.80,831.94 166.25,832.24
             163.76,831.90 163.91,832.24 162.50,832.24 Z
           M 116.15,875.00
           C 127.01,871.78 125.26,861.21 123.75,852.50
             123.75,852.50 137.50,853.75 137.50,853.75
             137.50,853.75 138.75,847.50 138.75,847.50
             127.06,838.59 125.09,833.16 114.85,843.41
             112.61,845.65 109.99,847.83 110.10,851.26
             110.20,854.89 114.56,860.08 116.15,863.75
             117.81,868.08 116.89,870.61 116.15,875.00 Z
           M 122.50,838.75
           C 122.50,838.75 122.50,840.00 122.50,840.00
             122.50,840.00 121.25,838.75 121.25,838.75
             121.25,838.75 122.50,838.75 122.50,838.75 Z
           M 151.25,837.50
           C 151.25,837.50 152.50,842.50 152.50,842.50
             152.50,842.50 153.75,837.50 153.75,837.50
             153.75,837.50 151.25,837.50 151.25,837.50 Z
           M 107.50,875.00
           C 110.64,860.40 106.66,866.96 106.25,853.90
             106.25,853.90 97.71,853.90 97.71,853.90
             92.79,854.98 83.01,861.03 80.35,865.23
             78.55,868.05 75.60,876.29 79.25,878.61
             82.36,880.59 88.41,878.10 91.60,877.16
             91.60,877.16 107.50,875.00 107.50,875.00 Z
           M 153.75,855.00
           C 153.75,855.00 153.75,856.25 153.75,856.25
             153.75,856.25 155.00,855.00 155.00,855.00
             155.00,855.00 153.75,855.00 153.75,855.00 Z
           M 133.75,880.00
           C 137.33,883.11 144.90,891.75 148.96,892.71
             152.40,893.53 154.95,891.40 158.75,890.51
             163.54,889.40 171.60,890.74 172.94,883.90
             173.49,882.58 173.34,880.13 172.94,878.91
             170.58,874.84 165.51,877.46 160.00,877.40
             147.70,877.25 141.19,866.64 133.75,880.00 Z
           M 50.00,881.25
           C 50.00,881.25 53.75,886.25 53.75,886.25
             53.75,886.25 55.00,881.25 55.00,881.25
             55.00,881.25 50.00,881.25 50.00,881.25 Z
           M 110.00,881.25
           C 110.00,881.25 105.00,895.00 105.00,895.00
             107.35,895.88 109.93,897.06 112.50,896.90
             120.79,896.38 119.03,888.51 128.75,885.00
             124.30,879.06 116.84,881.75 110.00,881.25 Z
           M 57.50,910.00
           C 57.50,910.00 73.75,908.55 73.75,908.55
             76.46,908.96 79.66,909.69 82.14,908.55
             87.25,905.29 83.40,899.73 92.50,897.50
             92.50,897.50 102.50,885.00 102.50,885.00
             94.15,882.65 88.06,885.09 80.00,886.86
             75.85,887.78 73.39,886.74 70.01,888.19
             62.41,891.48 58.31,902.31 57.50,910.00 Z
           M 137.50,895.00
           C 137.50,895.00 141.25,898.75 141.25,898.75
             141.25,898.75 137.50,895.00 137.50,895.00 Z
           M 135.00,896.25
           C 135.00,896.25 135.00,897.50 135.00,897.50
             135.00,897.50 136.25,896.25 136.25,896.25
             136.25,896.25 135.00,896.25 135.00,896.25 Z
           M 115.00,901.25
           C 115.00,901.25 115.00,913.75 115.00,913.75
             112.06,913.70 109.59,913.89 107.93,910.89
             106.44,908.20 108.04,903.03 102.43,902.14
             97.29,901.33 81.53,912.11 87.40,923.68
             88.40,925.65 89.49,927.16 91.51,928.16
             98.01,931.39 104.54,925.96 110.00,923.34
             115.64,920.63 125.00,918.73 131.25,918.75
             131.25,918.75 136.25,908.75 136.25,908.75
             128.91,903.79 123.91,901.29 115.00,901.25 Z
           M 188.75,905.00
           C 188.75,905.00 188.75,906.25 188.75,906.25
             188.75,906.25 190.00,905.00 190.00,905.00
             190.00,905.00 188.75,905.00 188.75,905.00 Z
           M 108.75,935.00
           C 114.83,934.98 116.14,933.11 120.00,928.75
             113.66,927.86 110.78,928.64 108.75,935.00 Z
           M 130.00,928.75
           C 130.00,928.75 127.50,938.75 127.50,938.75
             131.99,938.39 132.26,938.65 135.00,935.00
             135.00,935.00 137.50,937.50 137.50,937.50
             137.50,937.50 138.75,936.25 138.75,936.25
             138.75,936.25 130.00,928.75 130.00,928.75 Z
           M 142.50,935.00
           C 142.50,935.00 143.75,940.00 143.75,940.00
             143.75,940.00 148.75,936.25 148.75,936.25
             148.75,936.25 142.50,935.00 142.50,935.00 Z" />
</svg>
