<?xml version="1.0" encoding="UTF-8" standalone="no"?>
<!DOCTYPE svg PUBLIC "-//W3C//DTD SVG 20010904//EN"
              "http://www.w3.org/TR/2001/REC-SVG-20010904/DTD/svg10.dtd">

<svg xmlns="http://www.w3.org/2000/svg"
     width="2.625in" height="10.7222in"
     viewBox="0 0 189 772">
  <path id="Selection #1"
        fill="none" stroke="black" stroke-width="1"
        d="M 135.00,23.06
           C 133.33,22.88 132.76,22.66 131.00,23.06
             131.00,23.06 116.21,30.57 116.21,30.57
             116.21,30.57 110.81,36.83 110.81,36.83
             108.55,39.31 106.53,40.55 105.57,44.01
             104.57,47.65 105.79,49.66 106.55,53.00
             107.36,56.57 107.43,62.64 111.39,64.42
             116.01,66.50 122.79,60.78 124.41,56.87
             125.20,54.97 124.87,52.70 126.31,50.04
             127.92,47.09 130.19,46.01 132.26,43.63
             133.70,41.97 136.52,36.72 139.25,37.60
             144.21,39.20 136.24,48.89 135.00,51.00
             135.00,51.00 133.00,50.00 133.00,50.00
             129.08,59.42 132.33,65.48 143.00,61.04
             149.12,58.50 154.70,52.82 154.98,46.00
             155.11,42.93 155.09,38.86 153.69,36.09
             151.46,31.65 150.01,33.16 149.00,27.00
             153.84,27.65 156.46,29.90 159.99,28.19
             172.09,22.34 166.45,5.77 153.00,9.90
             148.75,11.20 145.90,14.01 142.58,16.70
             139.65,19.08 137.09,19.75 135.00,23.06 Z
           M 88.00,18.00
           C 87.28,20.41 86.80,22.45 84.61,24.02
             82.29,25.67 78.50,25.22 76.95,29.12
             75.42,32.99 78.26,36.38 79.00,39.99
             83.80,42.22 93.20,42.37 98.00,39.99
             99.70,39.13 101.55,37.45 102.95,36.15
             105.32,33.94 107.01,32.35 107.60,29.02
             108.54,23.76 104.69,17.30 102.00,13.00
             102.00,13.00 88.00,18.00 88.00,18.00 Z
           M 1.00,14.00
           C 1.00,14.00 0.00,27.00 0.00,27.00
             0.00,27.00 0.00,43.00 0.00,43.00
             0.03,44.59 -0.07,46.95 0.99,48.26
             3.25,51.06 13.87,51.71 18.00,43.00
             18.00,43.00 20.00,44.00 20.00,44.00
             20.00,44.00 21.00,43.00 21.00,43.00
             20.28,39.92 19.40,35.21 15.79,34.33
             13.30,33.72 8.09,35.64 5.88,32.50
             3.71,29.41 8.35,27.61 9.36,24.79
             11.43,19.05 5.71,15.17 1.00,14.00 Z
           M 22.00,15.00
           C 22.00,15.00 22.00,16.00 22.00,16.00
             22.00,16.00 23.00,15.00 23.00,15.00
             23.00,15.00 22.00,15.00 22.00,15.00 Z
           M 48.00,31.00
           C 48.00,31.00 54.00,33.00 54.00,33.00
             51.85,43.63 57.74,49.10 65.95,43.23
             68.10,41.69 69.80,39.68 70.25,37.00
             70.89,33.17 66.65,22.03 63.73,19.56
             59.86,16.30 47.52,16.70 43.00,18.40
             38.20,20.22 25.35,29.81 25.36,35.01
             25.36,37.92 27.71,41.30 28.79,44.00
             30.07,47.19 30.34,52.28 33.28,54.31
             36.58,56.60 44.18,52.82 45.82,49.74
             47.74,46.67 45.72,43.20 45.82,40.00
             45.65,37.34 47.32,33.92 48.00,31.00 Z
           M 162.80,48.00
           C 162.80,48.00 168.13,50.07 168.13,50.07
             168.13,50.07 183.00,47.00 183.00,47.00
             183.00,47.00 184.00,33.00 184.00,33.00
             178.19,30.80 164.91,26.08 162.80,35.09
             161.69,38.59 163.77,42.11 162.80,48.00 Z
           M 76.00,51.00
           C 74.23,52.07 73.10,52.88 70.96,53.16
             68.40,53.49 49.31,49.04 47.00,63.00
             47.00,63.00 64.00,67.00 64.00,67.00
             64.21,61.74 67.80,58.65 72.00,56.00
             72.00,56.00 81.00,69.00 81.00,69.00
             84.11,69.00 97.51,68.10 99.69,66.69
             104.41,63.63 100.29,53.46 96.73,51.43
             94.93,50.41 87.10,49.53 85.07,50.03
             80.69,51.11 80.70,54.85 76.00,51.00 Z
           M 0.00,56.94
           C 0.00,56.94 0.00,69.00 0.00,69.00
             7.92,70.85 13.77,74.16 21.96,69.70
             27.36,66.76 30.17,57.64 23.76,54.52
             18.93,52.17 13.53,56.13 10.28,56.94
             10.28,56.94 0.00,56.94 0.00,56.94 Z
           M 148.00,66.00
           C 148.00,66.00 152.52,74.05 152.52,74.05
             152.52,74.05 158.05,77.43 158.05,77.43
             158.05,77.43 157.55,85.00 157.55,85.00
             157.55,85.00 157.00,94.16 157.00,94.16
             158.77,94.14 163.27,94.88 164.68,94.16
             167.31,93.25 166.36,90.54 166.03,88.47
             165.56,85.57 165.44,79.67 166.97,77.21
             169.19,73.65 184.82,68.22 189.00,68.00
             189.00,68.00 189.00,53.00 189.00,53.00
             189.00,53.00 175.00,54.68 175.00,54.68
             175.00,54.68 169.00,56.73 169.00,56.73
             169.00,56.73 160.01,58.23 160.01,58.23
             160.01,58.23 148.00,66.00 148.00,66.00 Z
           M 42.00,64.00
           C 40.40,64.06 38.64,63.96 37.13,64.60
             33.75,66.02 31.48,71.53 33.22,74.86
             34.62,77.55 37.47,77.95 39.96,79.12
             45.25,81.61 45.60,84.62 52.00,82.76
             55.23,81.82 61.68,80.88 60.04,76.09
             57.53,68.78 46.68,72.36 45.17,71.75
             42.55,70.69 42.39,66.41 42.00,64.00 Z
           M 121.00,86.00
           C 121.00,86.00 113.00,89.25 113.00,89.25
             108.68,90.60 104.66,89.85 102.56,95.02
             100.72,99.54 104.36,102.06 108.00,103.64
             113.34,105.94 119.83,106.73 124.42,102.19
             129.17,97.48 125.69,88.43 125.00,83.00
             130.81,82.94 135.18,81.83 139.80,78.05
             142.78,75.65 143.58,71.46 139.80,69.58
             137.40,68.23 126.65,68.85 124.00,69.58
             124.00,69.58 118.00,72.31 118.00,72.31
             115.72,73.09 111.82,72.93 111.54,76.10
             111.21,79.91 116.11,80.71 121.00,86.00 Z
           M 83.06,86.00
           C 83.06,86.00 80.78,93.00 80.78,93.00
             79.19,100.53 86.56,102.09 91.86,98.84
             96.16,96.19 95.13,91.01 96.54,87.17
             97.47,84.64 99.47,82.84 100.14,80.00
             100.59,78.08 100.47,76.47 98.67,75.33
             95.66,73.41 85.85,75.76 83.06,77.73
             79.33,80.46 79.13,83.51 83.06,86.00 Z
           M 173.00,79.00
           C 172.57,82.52 171.73,86.60 174.09,89.47
             176.21,92.46 185.91,91.85 188.01,89.47
             189.56,87.34 189.00,76.92 189.00,74.00
             189.00,74.00 173.00,79.00 173.00,79.00 Z
           M 0.00,77.00
           C 0.00,77.00 0.00,88.00 0.00,88.00
             4.52,84.90 4.29,83.24 5.00,78.00
             5.00,78.00 0.00,77.00 0.00,77.00 Z
           M 11.00,80.00
           C 11.00,80.00 14.00,90.00 14.00,90.00
             14.00,90.00 9.00,98.00 9.00,98.00
             11.36,98.99 16.09,101.44 18.57,100.38
             22.46,98.73 19.36,93.30 20.99,90.21
             22.49,87.38 27.07,86.32 27.68,82.92
             28.98,75.70 14.43,79.02 11.00,80.00 Z
           M 134.00,98.00
           C 146.17,97.72 154.06,90.74 151.00,78.00
             147.77,79.38 135.86,87.23 134.62,90.19
             134.07,91.53 134.13,96.17 134.00,98.00 Z
           M 74.00,82.00
           C 69.08,82.06 69.02,81.82 64.83,84.48
             62.00,86.29 58.43,87.74 57.19,91.10
             56.18,93.82 58.68,112.13 68.91,106.43
             70.74,105.41 72.30,103.84 73.15,101.91
             74.01,99.96 73.91,98.06 74.03,96.00
             74.03,96.00 74.68,87.00 74.68,87.00
             74.68,87.00 74.00,82.00 74.00,82.00 Z
           M 34.21,87.04
           C 25.16,94.84 33.22,106.60 43.71,99.47
             49.54,95.51 44.26,83.88 34.21,87.04 Z
           M 189.00,110.00
           C 189.00,110.00 189.00,97.00 189.00,97.00
             176.45,99.21 178.50,101.79 173.99,101.98
             169.66,102.32 160.22,98.83 156.54,101.98
             151.53,106.15 157.59,113.27 156.54,116.30
             155.32,119.52 147.45,127.23 146.83,130.08
             146.32,131.23 146.33,132.56 146.83,133.58
             148.75,136.13 151.60,133.62 153.66,133.08
             155.55,132.58 157.76,133.01 160.89,131.32
             163.80,129.74 171.04,122.80 172.69,119.91
             174.25,117.16 175.40,112.31 178.04,110.72
             180.15,109.46 186.32,110.00 189.00,110.00 Z
           M 0.00,99.00
           C 0.00,99.00 0.00,115.00 0.00,115.00
             1.87,114.77 5.78,114.86 6.96,113.37
             9.22,110.51 5.54,102.93 3.25,100.84
             2.14,99.82 1.29,99.60 0.00,99.00 Z
           M 130.00,133.00
           C 130.00,133.00 137.00,132.00 137.00,132.00
             139.69,122.88 149.62,121.61 148.11,113.00
             146.91,106.23 137.92,102.64 133.56,107.43
             130.79,110.47 132.33,113.57 132.13,117.00
             131.72,124.08 127.00,124.82 130.00,133.00 Z
           M 48.00,117.00
           C 48.00,117.00 54.00,111.00 54.00,111.00
             52.27,101.17 41.73,108.52 36.00,108.95
             32.64,109.21 31.00,106.98 28.00,106.53
             23.31,105.84 15.67,110.48 16.32,116.96
             16.46,118.34 16.87,119.39 17.74,120.47
             20.24,123.61 33.82,131.14 37.91,130.36
             41.45,129.69 52.30,121.56 48.00,117.00 Z
           M 76.00,110.99
           C 76.00,110.99 76.00,119.00 76.00,119.00
             70.54,116.72 64.68,114.69 59.85,119.81
             59.85,119.81 56.44,125.73 56.44,125.73
             54.45,128.08 52.55,128.03 49.00,132.00
             55.14,134.69 65.57,137.84 69.00,144.00
             75.34,143.47 76.56,141.47 73.00,136.00
             75.60,133.57 75.87,129.97 78.47,127.43
             80.41,125.54 82.57,125.17 85.00,124.12
             94.97,120.44 93.32,121.79 103.00,124.12
             102.95,120.58 102.27,115.50 106.00,114.00
             105.54,112.68 105.64,112.02 104.41,110.99
             99.09,106.47 82.02,108.53 76.00,110.99 Z
           M 105.00,136.00
           C 108.71,137.51 114.84,139.16 117.35,134.72
             118.79,132.17 118.24,128.94 119.88,126.45
             121.27,124.34 127.28,119.91 125.17,114.15
             123.39,109.27 116.36,111.52 114.18,115.21
             112.04,118.83 114.31,122.35 111.90,125.79
             109.04,129.89 108.09,126.22 105.00,136.00 Z
           M 182.00,118.00
           C 182.00,118.00 182.00,123.00 182.00,123.00
             182.00,123.00 189.00,124.00 189.00,124.00
             189.00,124.00 189.00,117.00 189.00,117.00
             189.00,117.00 182.00,118.00 182.00,118.00 Z
           M 0.00,124.00
           C 0.00,132.47 -2.04,138.36 5.00,144.00
             3.97,145.69 3.02,146.99 2.61,149.00
             1.44,154.76 5.22,158.72 11.00,158.03
             14.89,157.57 25.84,150.91 28.56,148.25
             31.54,145.59 31.64,140.36 28.56,137.92
             22.35,133.30 11.83,145.21 7.94,138.70
             5.42,134.48 12.43,133.51 13.19,130.70
             13.50,129.55 13.08,128.15 12.53,127.14
             10.07,122.67 4.21,123.34 0.00,124.00 Z
           M 86.00,138.00
           C 90.86,135.98 91.53,134.49 94.00,130.00
             87.07,129.24 82.27,129.51 86.00,138.00 Z
           M 160.00,148.00
           C 160.00,148.00 159.00,151.00 159.00,151.00
             160.96,153.01 162.83,156.48 165.13,157.40
             168.46,158.73 178.46,154.74 182.58,153.76
             184.44,153.31 186.78,152.95 188.01,151.30
             189.47,149.34 189.23,137.70 188.78,135.00
             188.42,132.82 187.89,131.93 187.00,130.22
             187.00,130.22 176.04,130.22 176.04,130.22
             174.23,130.91 166.53,136.66 164.00,138.26
             160.50,140.49 155.52,143.96 160.00,148.00 Z
           M 41.00,139.00
           C 40.65,146.57 39.36,149.30 36.04,156.00
             34.66,158.78 31.85,163.54 32.76,166.74
             33.79,170.40 43.11,175.64 46.67,173.88
             49.47,172.49 50.36,168.75 51.00,166.00
             47.18,164.58 44.67,162.04 49.15,158.93
             49.15,158.93 56.57,155.75 56.57,155.75
             61.59,152.18 60.77,145.51 55.91,142.39
             54.21,141.30 51.94,140.55 50.00,140.02
             46.33,139.02 44.61,139.28 41.00,139.00 Z
           M 127.00,151.00
           C 134.03,150.45 133.62,147.22 136.89,147.33
             141.10,147.48 139.33,153.69 140.00,158.00
             129.76,161.02 122.40,155.21 118.00,169.00
             122.73,168.99 127.32,168.50 132.00,167.83
             132.00,167.83 146.77,164.35 146.77,164.35
             151.14,161.93 149.05,157.63 147.75,154.00
             146.34,150.03 145.54,145.47 141.89,143.08
             138.62,140.57 127.81,138.00 126.02,143.08
             125.36,145.22 126.57,148.91 127.00,151.00 Z
           M 101.00,164.00
           C 101.00,164.00 105.00,166.00 105.00,166.00
             107.55,164.92 110.38,164.34 112.47,162.42
             114.44,160.62 119.04,154.05 118.29,151.33
             116.88,146.28 101.29,145.04 98.39,151.33
             96.52,155.40 101.02,157.48 101.00,164.00 Z
           M 52.00,183.00
           C 52.00,183.00 54.00,180.00 54.00,180.00
             54.00,180.00 57.00,179.00 57.00,179.00
             57.00,179.00 60.00,181.68 60.00,181.68
             60.00,181.68 62.00,182.93 62.00,182.93
             70.54,186.00 67.71,176.89 68.19,173.01
             68.50,170.54 70.05,168.28 71.00,166.00
             71.00,166.00 82.00,165.00 82.00,165.00
             81.17,166.96 79.29,170.80 79.52,172.85
             79.86,175.73 83.14,176.71 85.20,172.85
             88.05,167.52 86.02,164.03 86.58,160.00
             86.86,157.95 88.26,155.08 89.00,153.00
             89.00,153.00 80.00,150.92 80.00,150.92
             73.41,150.40 66.00,154.33 64.33,161.00
             63.11,164.67 65.96,167.29 64.33,170.01
             63.63,171.72 59.75,173.66 58.05,174.85
             54.22,177.52 53.52,178.67 52.00,183.00 Z
           M 74.00,165.00
           C 74.00,165.00 74.00,166.00 74.00,166.00
             74.00,166.00 73.00,165.00 73.00,165.00
             73.00,165.00 74.00,165.00 74.00,165.00 Z
           M 167.00,167.00
           C 167.00,167.00 171.48,177.00 171.48,177.00
             171.48,177.00 169.00,185.00 169.00,185.00
             169.00,185.00 167.00,184.00 167.00,184.00
             167.00,184.00 166.00,195.00 166.00,195.00
             173.59,194.98 176.08,195.79 180.19,189.02
             180.19,189.02 183.02,184.58 183.02,184.58
             184.17,182.02 183.21,180.27 184.19,178.27
             186.36,173.82 188.89,177.87 189.00,168.00
             178.36,163.83 177.91,164.24 167.00,167.00 Z
           M 0.00,167.00
           C 0.00,172.59 -0.25,177.44 0.76,183.00
             1.12,184.97 1.48,187.79 3.43,188.88
             5.65,190.11 9.66,188.11 12.00,187.49
             17.18,186.10 32.51,186.10 29.38,177.04
             26.22,167.85 13.10,171.67 11.04,171.40
             7.84,170.99 6.86,168.64 0.00,167.00 Z
           M 67.00,169.00
           C 67.00,169.00 67.00,170.00 67.00,170.00
             67.00,170.00 66.00,169.00 66.00,169.00
             66.00,169.00 67.00,169.00 67.00,169.00 Z
           M 151.00,176.00
           C 151.00,176.00 161.00,175.00 161.00,175.00
             157.82,169.96 151.65,167.85 151.00,176.00 Z
           M 106.00,175.00
           C 106.00,175.00 105.00,179.00 105.00,179.00
             107.71,177.87 107.45,177.87 108.00,175.00
             108.00,175.00 106.00,175.00 106.00,175.00 Z
           M 143.00,177.00
           C 132.96,172.35 123.99,178.00 118.34,186.39
             116.72,188.79 113.38,193.38 115.34,196.35
             117.01,199.01 122.59,196.79 125.00,196.35
             131.75,194.86 139.49,192.04 142.13,184.83
             142.86,182.83 142.87,179.23 143.00,177.00 Z
           M 96.00,183.00
           C 96.00,183.00 95.00,189.00 95.00,189.00
             95.00,189.00 99.00,184.00 99.00,184.00
             99.00,184.00 96.00,183.00 96.00,183.00 Z
           M 34.00,189.00
           C 34.00,189.00 28.85,193.30 28.85,193.30
             28.85,193.30 23.00,201.00 23.00,201.00
             20.49,191.47 17.05,195.40 11.42,196.83
             9.66,197.28 7.22,196.97 6.04,198.60
             4.59,200.60 6.56,206.87 7.55,208.94
             9.67,213.38 18.59,214.10 23.00,213.28
             25.39,212.84 27.77,211.79 30.00,210.85
             34.00,209.15 36.95,208.82 37.00,204.00
             37.00,204.00 41.00,206.00 41.00,206.00
             41.00,206.00 44.98,198.00 44.98,198.00
             46.28,194.22 44.62,188.02 39.92,187.70
             38.12,187.58 35.86,188.68 34.00,189.00 Z
           M 79.00,208.00
           C 79.00,208.00 87.00,196.00 87.00,196.00
             87.00,196.00 79.00,187.00 79.00,187.00
             79.00,187.00 60.02,193.35 60.02,193.35
             57.63,194.26 54.42,195.57 55.65,198.82
             57.48,203.66 65.76,201.07 69.99,202.59
             73.08,203.71 73.79,205.76 79.00,208.00 Z
           M 140.00,200.00
           C 144.89,201.68 151.94,201.95 154.03,195.95
             154.85,193.71 154.14,191.29 154.03,189.00
             146.73,190.05 143.16,193.30 140.00,200.00 Z
           M 87.00,199.00
           C 87.00,199.00 87.00,200.00 87.00,200.00
             87.00,200.00 88.00,199.00 88.00,199.00
             88.00,199.00 87.00,199.00 87.00,199.00 Z
           M 103.00,207.00
           C 98.28,206.72 88.94,208.90 86.49,213.39
             85.20,215.74 85.16,221.22 85.00,224.00
             86.31,224.78 87.56,225.62 89.00,226.16
             98.53,229.73 97.97,221.72 102.30,216.48
             105.57,212.54 109.16,212.87 110.22,208.00
             111.27,203.17 106.39,200.99 103.00,207.00 Z
           M 148.00,215.00
           C 148.00,215.00 158.00,219.24 158.00,219.24
             158.00,219.24 171.42,215.32 171.42,215.32
             171.42,215.32 182.00,220.00 182.00,220.00
             182.00,220.00 186.42,215.74 186.42,215.74
             188.44,212.94 188.94,206.47 185.71,203.99
             182.89,202.44 179.13,203.73 176.00,203.99
             176.00,203.99 168.00,203.99 168.00,203.99
             168.00,203.99 161.00,205.76 161.00,205.76
             154.26,207.38 149.75,206.98 148.00,215.00 Z
           M 136.00,207.00
           C 133.24,206.51 122.66,205.18 120.48,206.37
             117.56,207.96 117.69,214.32 116.62,217.28
             115.96,219.10 114.69,220.76 115.00,222.82
             115.62,227.04 120.68,227.93 123.81,225.95
             125.87,224.66 129.64,218.93 131.57,216.58
             135.03,212.36 134.23,211.64 136.00,207.00 Z
           M 133.00,231.00
           C 135.52,231.37 145.18,233.43 146.77,232.96
             149.29,232.23 150.14,229.43 149.36,227.12
             148.74,225.27 146.93,223.93 145.57,222.59
             140.68,217.78 137.77,218.43 134.45,225.00
             133.36,227.17 133.25,228.67 133.00,231.00 Z
           M 167.00,233.00
           C 168.66,232.76 170.38,232.60 171.96,231.97
             172.92,231.59 173.80,231.17 174.55,230.44
             181.54,223.68 166.20,220.04 164.89,226.14
             164.63,227.37 166.53,231.33 167.00,233.00 Z
           M 188.00,226.00
           C 181.47,232.23 180.78,241.14 185.92,241.14
             190.68,241.14 189.11,228.80 188.00,226.00 Z
           M 115.22,245.00
           C 115.20,243.95 115.52,243.52 115.22,242.04
             115.00,233.28 105.57,238.63 103.00,238.35
             101.01,238.14 94.14,234.12 90.75,236.99
             87.56,239.70 92.49,250.39 99.01,248.77
             103.45,247.66 105.60,244.21 115.22,245.00 Z
           M 131.00,255.00
           C 131.00,255.00 138.00,256.00 138.00,256.00
             138.32,246.81 142.89,252.10 146.00,244.00
             144.08,243.46 142.24,242.83 140.21,243.31
             136.26,244.23 132.21,251.41 131.00,255.00 Z
           M 163.00,252.00
           C 163.00,252.00 170.00,252.00 170.00,252.00
             167.96,246.51 164.86,246.19 163.00,252.00 Z
           M 178.00,249.00
           C 176.79,258.99 181.88,254.70 185.69,260.48
             186.99,262.46 187.55,267.48 188.00,270.00
             189.25,266.85 190.06,252.12 187.40,250.02
             185.66,248.64 180.28,249.00 178.00,249.00 Z
           M 113.04,254.99
           C 103.63,258.21 113.78,262.74 114.97,265.22
             116.55,268.52 111.50,274.19 120.00,275.43
             128.14,276.62 131.15,270.00 127.72,263.33
             125.63,259.27 117.38,255.31 113.04,254.99 Z
           M 162.00,269.98
           C 165.45,275.51 175.33,277.10 178.11,269.98
             179.53,266.28 178.16,261.76 173.98,263.15
             170.93,264.17 169.10,267.74 162.00,269.98 Z
           M 140.00,263.00
           C 140.00,263.00 139.00,267.00 139.00,267.00
             139.00,267.00 148.00,269.00 148.00,269.00
             145.80,265.34 143.79,264.70 140.00,263.00 Z
           M 145.00,307.00
           C 148.87,306.78 158.41,306.79 158.14,300.96
             158.03,298.51 155.21,295.63 155.48,292.00
             155.77,288.26 160.84,283.21 156.56,280.01
             155.64,279.32 154.10,278.98 152.98,278.79
             146.35,277.67 145.35,281.60 142.12,282.58
             139.84,283.27 138.31,281.74 135.00,281.84
             130.83,281.96 121.26,284.48 119.02,288.22
             118.14,289.69 118.09,291.35 118.02,293.00
             117.58,303.66 120.42,301.27 126.00,303.16
             128.51,304.00 130.99,305.82 133.61,304.13
             136.47,302.29 137.12,296.39 142.02,294.99
             144.74,294.20 148.29,295.90 147.85,298.77
             147.48,301.19 145.46,300.39 145.00,307.00 Z
           M 188.00,288.00
           C 188.00,288.00 188.00,278.00 188.00,278.00
             185.83,278.42 175.63,280.21 178.82,284.45
             179.81,285.75 186.16,287.43 188.00,288.00 Z
           M 166.00,282.00
           C 161.46,292.56 161.33,289.71 165.00,300.00
             165.00,300.00 162.00,301.00 162.00,301.00
             162.00,301.00 162.00,303.00 162.00,303.00
             171.28,304.27 173.62,296.87 169.00,290.00
             171.20,286.40 169.92,285.49 168.00,282.00
             168.00,282.00 166.00,282.00 166.00,282.00 Z
           M 188.00,289.00
           C 188.00,289.00 188.00,290.00 188.00,290.00
             188.00,290.00 189.00,289.00 189.00,289.00
             189.00,289.00 188.00,289.00 188.00,289.00 Z
           M 188.00,291.00
           C 188.00,291.00 188.00,298.00 188.00,298.00
             188.00,298.00 188.00,291.00 188.00,291.00 Z
           M 163.00,313.00
           C 163.00,313.00 167.89,324.39 167.89,324.39
             167.89,324.39 164.00,333.00 164.00,333.00
             174.07,332.65 171.90,328.42 176.02,323.55
             177.49,321.81 181.87,319.39 179.92,316.58
             178.42,314.41 175.71,315.87 173.72,315.69
             170.05,315.37 170.68,313.27 163.00,313.00 Z
           M 145.00,316.00
           C 148.09,320.23 155.61,322.05 156.00,315.00
             156.00,315.00 145.00,316.00 145.00,316.00 Z
           M 124.00,316.00
           C 124.00,316.00 122.00,333.00 122.00,333.00
             120.31,333.34 119.91,333.06 118.39,334.41
             112.40,339.74 119.00,346.88 123.00,339.00
             128.70,339.58 136.64,337.35 138.27,331.00
             138.84,328.81 137.65,326.21 137.25,324.00
             136.88,321.93 137.06,319.19 135.40,317.64
             133.83,316.17 126.47,316.18 124.00,316.00 Z
           M 121.00,333.00
           C 121.00,333.00 121.00,334.00 121.00,334.00
             121.00,334.00 120.00,333.00 120.00,333.00
             120.00,333.00 121.00,333.00 121.00,333.00 Z
           M 124.00,367.00
           C 124.00,367.00 129.00,367.00 129.00,367.00
             129.00,367.00 125.00,368.00 125.00,368.00
             128.12,369.59 134.23,371.10 137.40,369.01
             140.81,366.75 146.69,350.62 154.53,354.83
             155.41,355.30 157.20,357.21 158.00,358.00
             152.04,365.50 159.84,368.51 165.69,364.69
             168.30,362.98 167.94,359.74 168.28,357.00
             168.96,351.62 171.36,343.24 163.00,345.00
             162.36,343.22 162.15,342.05 160.58,340.74
             157.65,338.28 146.36,337.65 143.00,339.43
             137.46,342.37 128.22,351.05 126.03,357.00
             126.03,357.00 124.00,367.00 124.00,367.00 Z
           M 184.00,340.00
           C 184.00,340.00 188.00,352.00 188.00,352.00
             189.63,347.90 189.19,343.17 188.00,339.00
             188.00,339.00 184.00,340.00 184.00,340.00 Z
           M 94.00,347.00
           C 94.00,347.00 86.00,342.97 86.00,342.97
             78.81,340.74 73.55,349.48 75.15,352.57
             76.37,354.92 79.79,354.72 82.00,354.87
             89.68,355.39 91.52,355.40 94.00,347.00 Z
           M 99.07,366.00
           C 99.07,366.00 96.00,365.00 96.00,365.00
             96.00,365.00 95.00,371.00 95.00,371.00
             105.25,371.84 109.60,376.02 113.00,368.00
             113.00,368.00 106.00,368.00 106.00,368.00
             106.00,368.00 106.00,369.00 106.00,369.00
             106.00,369.00 108.00,371.00 108.00,371.00
             100.74,366.35 102.60,355.71 110.00,359.00
             120.89,354.79 108.02,346.10 101.48,352.72
             99.93,354.29 99.51,355.91 99.07,358.01
             98.68,360.76 98.69,363.25 99.07,366.00 Z
           M 177.00,353.00
           C 178.12,359.71 182.37,363.72 189.00,365.00
             189.00,365.00 189.00,353.00 189.00,353.00
             189.00,353.00 177.00,353.00 177.00,353.00 Z
           M 87.00,365.00
           C 84.25,364.33 82.85,364.08 80.00,364.06
             80.00,364.06 75.02,364.06 75.02,364.06
             71.91,364.46 67.91,366.91 70.83,370.27
             72.97,372.74 81.99,373.18 84.49,371.18
             86.38,369.67 86.63,367.20 87.00,365.00 Z
           M 101.00,369.00
           C 101.00,369.00 101.00,370.00 101.00,370.00
             101.00,370.00 100.00,369.00 100.00,369.00
             100.00,369.00 101.00,369.00 101.00,369.00 Z
           M 184.00,374.00
           C 184.00,374.00 189.00,377.00 189.00,377.00
             189.00,377.00 189.00,373.00 189.00,373.00
             189.00,373.00 184.00,374.00 184.00,374.00 Z
           M 146.00,380.00
           C 154.30,386.58 158.69,385.96 168.83,386.55
             171.99,386.74 177.53,385.10 176.83,380.96
             176.61,379.66 175.58,378.21 174.65,377.31
             169.81,372.64 162.44,376.50 158.00,376.73
             152.46,377.01 149.46,373.87 146.00,380.00 Z
           M 115.00,383.00
           C 115.00,383.00 116.00,388.00 116.00,388.00
             116.00,388.00 119.00,387.00 119.00,387.00
             119.00,387.00 119.00,384.00 119.00,384.00
             119.00,384.00 127.00,395.00 127.00,395.00
             127.00,395.00 117.00,405.00 117.00,405.00
             117.00,405.00 118.00,410.86 118.00,410.86
             118.00,410.86 127.00,410.86 127.00,410.86
             127.00,410.86 139.00,401.00 139.00,401.00
             137.20,394.26 138.76,395.30 140.00,389.00
             137.86,387.84 136.81,387.52 136.02,384.95
             135.43,383.05 136.18,380.43 134.39,379.04
             130.89,376.32 120.82,382.24 115.00,383.00 Z
           M 92.00,380.00
           C 90.38,386.83 91.92,394.84 98.00,399.00
             103.19,389.92 103.37,396.97 106.00,383.00
             106.00,383.00 92.00,380.00 92.00,380.00 Z
           M 70.00,381.00
           C 70.00,381.00 68.91,391.00 68.91,391.00
             68.91,391.00 67.51,398.00 67.51,398.00
             67.29,399.83 67.25,402.50 69.34,403.31
             71.49,404.15 78.00,400.12 80.00,399.00
             80.00,399.00 82.00,393.00 82.00,393.00
             82.00,393.00 76.00,391.00 76.00,391.00
             79.53,383.38 78.19,381.21 70.00,381.00 Z
           M 188.00,387.00
           C 182.75,390.26 177.42,391.00 178.00,398.00
             178.00,398.00 188.00,398.00 188.00,398.00
             189.11,394.08 189.53,390.85 188.00,387.00 Z
           M 155.00,399.00
           C 155.00,399.00 167.00,400.00 167.00,400.00
             166.26,391.11 158.63,393.02 155.00,399.00 Z
           M 87.00,410.00
           C 79.75,408.26 75.34,410.55 69.00,414.00
             70.16,419.41 70.65,419.71 74.00,424.00
             74.00,424.00 81.82,418.14 81.82,418.14
             81.82,418.14 96.00,417.00 96.00,417.00
             96.29,418.28 96.35,419.43 97.17,420.57
             102.32,427.70 110.83,411.80 101.94,410.49
             100.58,410.29 99.30,410.73 98.00,411.00
             95.32,407.03 90.04,405.66 87.00,410.00 Z
           M 151.00,434.00
           C 151.77,432.59 152.33,431.35 153.41,430.11
             159.67,422.92 162.17,429.93 165.00,435.00
             166.90,433.09 170.91,429.10 171.91,426.79
             174.36,421.20 173.18,412.17 166.89,409.60
             165.36,408.97 163.62,409.06 162.00,409.00
             160.13,417.28 160.47,420.25 152.00,423.00
             152.00,423.00 151.00,421.00 151.00,421.00
             151.70,418.69 154.85,411.62 153.13,409.86
             151.06,407.75 145.00,410.84 143.30,412.42
             141.07,414.49 140.65,417.33 137.86,418.31
             135.88,419.01 133.26,418.04 131.25,418.83
             128.54,419.88 126.98,423.93 129.42,426.07
             129.42,426.07 141.04,431.44 141.04,431.44
             146.68,434.13 144.79,434.16 151.00,434.00 Z
           M 126.00,444.00
           C 129.40,453.96 137.85,445.13 133.39,439.41
             125.54,429.33 110.23,443.36 108.00,430.00
             104.25,430.49 92.72,434.69 91.25,438.26
             89.50,442.50 99.43,449.86 102.96,450.70
             107.59,451.80 108.00,447.00 111.26,445.44
             114.04,443.97 116.43,445.53 118.83,445.44
             118.83,445.44 126.00,444.00 126.00,444.00 Z
           M 77.00,451.00
           C 77.00,451.00 75.00,450.00 75.00,450.00
             75.00,450.00 70.00,455.00 70.00,455.00
             70.00,455.00 71.00,457.00 71.00,457.00
             65.90,460.52 70.28,463.20 74.00,465.00
             74.00,465.00 74.00,463.00 74.00,463.00
             77.81,463.95 78.49,463.94 82.00,461.95
             84.24,460.67 90.66,457.12 91.28,454.68
             92.13,451.31 85.46,444.04 82.00,444.45
             78.66,444.85 77.68,448.29 77.00,451.00 Z
           M 167.00,446.00
           C 169.51,450.10 172.49,452.39 177.00,454.00
             179.12,445.88 173.81,444.41 167.00,446.00 Z
           M 162.00,449.00
           C 162.00,449.00 159.00,452.00 159.00,452.00
             159.00,452.00 159.00,458.00 159.00,458.00
             163.72,456.34 167.07,452.93 162.00,449.00 Z
           M 136.00,459.00
           C 133.06,467.15 138.48,469.45 143.00,475.00
             144.58,474.23 145.38,474.04 146.72,472.71
             151.21,468.26 149.30,463.37 143.98,460.93
             143.98,460.93 136.00,459.00 136.00,459.00 Z
           M 97.00,461.67
           C 94.09,462.83 88.96,465.24 87.58,468.24
             85.01,473.83 92.74,477.56 97.00,476.31
             103.70,474.35 107.71,460.23 97.00,461.67 Z
           M 157.00,474.00
           C 157.57,475.30 157.87,476.37 158.84,477.49
             160.41,479.31 166.67,483.07 169.04,482.56
             173.01,481.69 172.21,479.09 180.00,479.00
             183.01,472.08 184.41,464.54 175.00,462.86
             173.13,462.61 171.01,462.25 169.17,462.86
             163.02,464.58 160.59,469.91 157.00,474.00 Z
           M 49.00,485.00
           C 54.50,494.12 65.05,480.66 65.96,477.96
             67.15,474.43 63.69,470.06 62.00,467.00
             59.13,467.08 54.61,466.25 52.33,467.60
             50.65,468.60 48.94,471.23 47.69,472.80
             44.07,477.38 40.07,483.25 49.00,485.00 Z
           M 115.00,472.75
           C 115.54,475.14 115.95,476.98 117.22,478.86
             118.82,481.23 126.16,486.44 129.00,486.45
             131.26,486.46 133.15,485.10 135.00,484.00
             135.00,484.00 130.91,477.82 130.91,477.82
             129.99,476.07 129.80,474.01 128.41,472.75
             124.54,468.36 119.04,470.80 115.00,472.75 Z
           M 101.00,495.00
           C 101.00,495.00 102.00,496.00 102.00,496.00
             108.61,493.23 110.81,485.59 109.00,479.00
             101.12,482.45 101.99,487.44 101.00,495.00 Z
           M 68.00,502.00
           C 70.34,499.20 72.29,497.00 76.00,496.24
             79.99,495.01 82.04,496.94 84.91,496.24
             90.26,495.52 92.57,489.66 93.00,484.78
             90.69,485.03 87.13,485.32 85.04,484.78
             81.31,483.19 80.10,479.45 75.01,481.19
             72.03,482.21 64.58,490.57 62.43,493.28
             61.21,494.83 60.11,496.71 61.13,498.69
             62.21,500.80 65.89,501.41 68.00,502.00 Z
           M 188.00,483.00
           C 188.00,483.00 180.00,489.00 180.00,489.00
             180.00,489.00 180.00,491.00 180.00,491.00
             180.00,491.00 188.00,497.00 188.00,497.00
             189.49,493.25 189.49,486.75 188.00,483.00 Z
           M 169.00,526.00
           C 170.46,521.42 176.73,510.55 182.57,516.33
             185.04,518.78 185.03,523.61 186.00,527.00
             186.00,527.00 189.00,526.00 189.00,526.00
             189.00,526.00 189.00,514.00 189.00,514.00
             188.99,509.03 189.54,507.16 185.67,503.58
             182.22,500.38 177.02,495.41 172.00,495.72
             163.62,496.23 162.89,507.57 161.35,514.00
             160.79,516.30 159.18,520.58 160.20,522.72
             161.65,525.75 166.15,525.86 169.00,526.00 Z
           M 149.00,512.00
           C 149.00,512.00 154.00,508.00 154.00,508.00
             150.61,506.03 145.24,503.54 141.72,506.75
             140.17,508.16 139.80,510.68 137.70,512.41
             135.22,514.44 131.55,513.92 130.40,516.41
             129.22,518.98 131.92,520.82 134.04,521.21
             136.63,522.14 139.43,521.50 142.00,521.21
             147.83,519.86 151.95,519.00 149.00,512.00 Z
           M 132.00,512.00
           C 132.00,512.00 132.00,513.00 132.00,513.00
             132.00,513.00 133.00,512.00 133.00,512.00
             133.00,512.00 132.00,512.00 132.00,512.00 Z
           M 170.00,538.00
           C 171.91,546.84 174.12,544.51 180.17,545.01
             180.17,545.01 189.00,546.00 189.00,546.00
             189.00,546.00 189.00,536.00 189.00,536.00
             189.00,536.00 170.00,538.00 170.00,538.00 Z
           M 139.00,537.00
           C 132.04,541.00 129.87,538.80 128.00,544.00
             128.00,544.00 139.00,541.00 139.00,541.00
             139.00,541.00 139.00,537.00 139.00,537.00 Z
           M 181.00,543.00
           C 181.00,543.00 181.00,544.00 181.00,544.00
             181.00,544.00 180.00,543.00 180.00,543.00
             180.00,543.00 181.00,543.00 181.00,543.00 Z
           M 132.00,554.00
           C 136.58,558.28 135.51,562.27 137.00,568.00
             146.63,568.63 143.32,569.22 153.00,566.00
             150.75,561.93 150.25,562.11 147.90,558.83
             147.90,558.83 143.96,552.48 143.96,552.48
             140.28,548.35 134.77,549.67 132.00,554.00 Z
           M 189.00,574.00
           C 189.00,574.00 189.00,560.00 189.00,560.00
             188.83,550.30 184.04,553.74 178.91,554.74
             174.74,555.55 171.90,554.88 168.39,558.39
             164.92,561.87 164.52,565.88 169.06,568.57
             171.93,570.27 174.59,569.69 179.00,571.32
             183.78,573.09 183.63,573.51 189.00,574.00 Z
           M 101.00,556.00
           C 101.00,556.00 100.00,559.00 100.00,559.00
             100.00,559.00 105.00,563.00 105.00,563.00
             105.00,563.00 111.00,559.00 111.00,559.00
             111.00,559.00 101.00,556.00 101.00,556.00 Z
           M 54.00,564.00
           C 53.81,571.89 49.20,574.62 56.73,581.14
             58.07,582.29 59.79,583.81 61.71,583.28
             65.40,582.26 66.47,573.54 71.90,575.36
             75.17,576.46 76.46,581.68 78.91,584.89
             81.93,588.86 84.40,588.88 89.00,589.00
             91.85,581.96 96.30,578.01 90.48,570.89
             88.38,568.31 88.23,568.03 85.00,568.00
             83.75,557.47 75.63,562.18 68.00,562.75
             59.87,563.36 64.74,561.24 54.00,564.00 Z
           M 115.00,590.00
           C 115.00,590.00 116.00,586.00 116.00,586.00
             116.00,586.00 114.31,582.89 114.31,582.89
             114.31,582.89 115.00,568.00 115.00,568.00
             111.40,568.77 103.89,572.90 102.15,576.21
             101.48,577.48 101.35,579.56 101.29,580.99
             101.21,583.04 101.11,584.56 102.58,586.20
             105.49,589.45 110.95,589.91 115.00,590.00 Z
           M 114.00,569.00
           C 114.00,569.00 114.00,570.00 114.00,570.00
             114.00,570.00 113.00,569.00 113.00,569.00
             113.00,569.00 114.00,569.00 114.00,569.00 Z
           M 157.00,572.81
           C 152.49,574.52 140.54,578.17 138.51,582.13
             136.29,586.46 133.60,601.25 136.98,605.26
             138.28,606.81 141.11,607.08 143.00,607.49
             144.71,607.87 147.06,608.63 148.78,608.08
             151.89,607.09 151.85,603.47 153.67,600.32
             153.67,600.32 157.05,595.68 157.05,595.68
             157.05,595.68 164.56,580.00 164.56,580.00
             166.33,574.45 161.76,572.28 157.00,572.81 Z
           M 172.13,580.02
           C 166.14,585.03 165.54,596.32 161.87,602.96
             160.03,606.28 156.47,608.37 156.85,611.96
             157.75,620.38 176.05,615.20 178.40,613.07
             180.73,610.96 179.48,607.49 180.61,603.00
             182.59,595.13 190.44,580.33 177.00,579.20
             174.57,579.00 174.29,579.28 172.13,580.02 Z
           M 83.00,598.00
           C 81.58,596.24 81.00,595.31 78.96,594.09
             77.86,593.43 76.27,592.81 75.00,592.64
             65.22,591.34 67.33,606.44 77.28,601.39
             77.28,601.39 83.00,598.00 83.00,598.00 Z
           M 95.12,593.87
           C 91.23,596.41 87.08,605.26 87.57,610.00
             88.17,615.68 93.61,619.61 98.95,616.69
             105.87,612.89 103.02,606.00 103.18,603.58
             103.18,603.58 104.31,598.05 104.31,598.05
             104.02,593.29 98.61,593.03 95.12,593.87 Z
           M 120.00,595.00
           C 122.03,599.79 123.00,599.84 128.00,600.00
             125.16,596.35 124.59,595.75 120.00,595.00 Z
           M 79.00,627.00
           C 79.78,622.44 80.54,621.98 85.00,621.00
             83.92,618.08 83.35,617.06 80.89,614.98
             77.89,612.43 70.35,608.92 66.87,612.16
             64.74,614.15 65.40,616.68 64.76,618.54
             63.73,621.52 57.65,625.58 64.06,628.26
             68.69,630.20 73.11,626.95 79.00,627.00 Z
           M 137.00,629.00
           C 137.00,629.00 136.00,638.00 136.00,638.00
             141.97,636.65 145.75,634.36 146.96,628.00
             147.56,626.05 147.75,623.97 146.96,622.14
             145.51,619.72 141.38,617.91 139.04,616.16
             137.22,614.79 133.08,610.73 130.85,610.75
             127.31,610.78 128.22,615.88 128.70,618.00
             130.28,625.03 129.01,627.09 137.00,629.00 Z
           M 60.00,616.00
           C 60.00,616.00 53.00,615.00 53.00,615.00
             50.08,607.52 40.89,611.88 41.06,618.98
             41.18,624.00 50.14,626.20 53.83,624.67
             57.48,623.16 58.87,619.43 60.00,616.00 Z
           M 172.00,623.94
           C 174.36,631.06 176.04,638.04 184.11,631.49
             185.01,630.76 186.37,629.73 186.84,628.65
             187.88,626.24 185.83,624.80 183.94,623.94
             179.28,621.57 176.62,622.68 172.00,623.94 Z
           M 117.00,629.00
           C 121.45,631.50 124.51,631.09 129.00,629.00
             124.94,623.05 121.54,625.20 117.00,629.00 Z
           M 24.00,654.00
           C 36.86,657.12 41.76,650.72 46.09,649.71
             49.36,648.95 62.90,651.85 67.13,640.96
             70.34,632.70 59.30,629.40 52.00,635.00
             52.00,635.00 48.00,634.00 48.00,634.00
             45.88,627.95 39.39,629.88 35.17,632.81
             29.05,637.07 26.11,647.04 24.00,654.00 Z
           M 112.00,637.00
           C 112.00,637.00 116.00,630.00 116.00,630.00
             111.09,631.13 110.76,632.22 112.00,637.00 Z
           M 159.00,638.00
           C 163.68,637.22 164.43,636.46 166.00,632.00
             160.11,631.03 159.79,632.62 159.00,638.00 Z
           M 90.00,636.00
           C 90.00,636.00 94.00,635.00 94.00,635.00
             94.00,635.00 94.00,632.00 94.00,632.00
             91.04,633.19 91.08,632.99 90.00,636.00 Z
           M 66.00,651.00
           C 74.87,656.25 76.81,651.48 85.00,648.00
             84.89,646.39 84.97,642.90 83.98,641.70
             80.40,637.41 71.09,643.25 68.42,646.26
             66.89,647.98 66.71,648.95 66.00,651.00 Z
           M 130.00,672.00
           C 133.51,670.13 133.68,669.74 135.00,666.00
             135.00,666.00 131.00,665.00 131.00,665.00
             132.96,655.68 135.02,650.19 146.00,651.35
             147.98,651.55 151.19,651.91 152.96,652.68
             156.40,654.18 162.59,662.64 165.79,658.41
             166.69,657.22 166.53,655.38 166.34,654.00
             165.11,644.96 159.83,648.31 155.04,645.99
             155.04,645.99 149.72,642.57 149.72,642.57
             146.15,641.19 142.15,642.77 139.00,644.43
             137.27,645.34 133.96,647.07 132.73,648.49
             130.68,650.87 126.98,661.47 127.33,664.83
             127.52,666.76 129.18,670.11 130.00,672.00 Z
           M 50.00,667.93
           C 50.00,667.93 49.00,671.00 49.00,671.00
             51.15,672.81 53.04,675.42 56.05,675.59
             61.05,675.88 70.69,668.05 70.67,664.90
             70.65,662.54 67.08,658.59 65.25,657.17
             59.88,653.11 55.34,655.98 50.00,657.17
             50.00,657.17 44.00,657.79 44.00,657.79
             39.00,658.86 33.34,662.05 31.24,667.00
             30.49,669.52 29.56,681.36 31.24,683.44
             32.21,685.09 35.10,685.71 37.00,685.61
             40.35,685.42 47.31,681.87 47.14,678.00
             47.22,674.54 38.77,668.14 47.14,667.93
             47.14,667.93 50.00,667.93 50.00,667.93 Z
           M 78.00,662.00
           C 87.12,666.07 89.97,659.73 92.00,664.00
             100.27,657.77 88.08,655.15 83.09,656.15
             79.92,656.79 79.06,659.34 78.00,662.00 Z
           M 9.00,664.00
           C 8.39,669.58 9.02,675.25 12.70,679.85
             15.05,682.81 20.42,684.26 23.39,681.26
             25.19,679.44 24.55,676.36 24.79,674.00
             24.79,674.00 28.00,661.00 28.00,661.00
             19.09,661.00 17.47,661.40 9.00,664.00 Z
           M 131.00,663.00
           C 131.00,663.00 131.00,664.00 131.00,664.00
             131.00,664.00 130.00,663.00 130.00,663.00
             130.00,663.00 131.00,663.00 131.00,663.00 Z
           M 105.00,665.00
           C 107.03,668.59 107.85,668.13 110.12,670.78
             112.91,674.04 113.75,679.47 119.83,675.82
             123.44,673.66 124.05,667.12 117.96,666.64
             117.96,666.64 105.00,665.00 105.00,665.00 Z
           M 96.00,669.00
           C 96.00,669.00 94.00,675.00 94.00,675.00
             97.25,672.92 97.35,672.81 98.00,669.00
             98.00,669.00 96.00,669.00 96.00,669.00 Z
           M 70.00,695.00
           C 70.00,695.00 68.00,700.00 68.00,700.00
             75.36,697.78 72.92,694.83 77.00,690.00
             73.70,680.79 77.06,681.96 85.03,683.00
             85.31,681.19 85.74,679.97 85.03,678.12
             84.07,675.43 76.81,670.21 73.93,670.27
             70.95,670.34 68.96,672.69 66.94,674.55
             65.20,676.15 63.28,677.48 63.04,680.05
             62.73,683.28 68.27,691.74 70.00,695.00 Z
           M 60.00,682.00
           C 52.31,682.83 41.63,686.30 38.34,694.04
             37.50,696.00 35.87,701.33 37.83,703.01
             39.16,704.09 42.35,703.38 43.91,703.01
             43.91,703.01 50.09,701.26 50.09,701.26
             54.41,700.48 59.82,702.24 61.81,696.89
             63.49,692.38 60.11,691.31 60.00,682.00 Z
           M 98.00,684.00
           C 98.00,684.00 98.00,685.00 98.00,685.00
             98.00,685.00 99.00,684.00 99.00,684.00
             99.00,684.00 98.00,684.00 98.00,684.00 Z
           M 31.00,691.00
           C 31.00,691.00 33.00,694.00 33.00,694.00
             33.00,694.00 34.00,693.00 34.00,693.00
             34.00,693.00 33.00,691.00 33.00,691.00
             33.00,691.00 31.00,691.00 31.00,691.00 Z
           M 82.00,704.00
           C 84.86,706.49 90.92,713.40 94.17,714.17
             96.93,714.82 98.99,713.10 102.00,712.41
             106.23,711.44 112.23,712.89 113.35,707.13
             113.79,706.06 113.67,704.11 113.35,703.12
             111.38,699.71 105.09,701.66 102.00,701.66
             93.22,701.66 88.13,692.98 82.00,704.00 Z
           M 15.00,705.00
           C 15.00,705.00 18.00,709.00 18.00,709.00
             18.00,709.00 19.00,705.00 19.00,705.00
             19.00,705.00 15.00,705.00 15.00,705.00 Z
           M 59.00,716.00
           C 71.90,721.41 68.03,712.70 78.00,708.00
             77.16,706.88 77.04,706.24 75.59,705.57
             73.14,704.44 64.95,704.57 62.99,706.57
             61.35,708.25 59.80,713.62 59.00,716.00 Z
           M 21.00,728.00
           C 21.00,728.00 34.00,726.84 34.00,726.84
             36.18,727.17 38.72,727.75 40.71,726.84
             44.73,724.28 42.08,719.75 49.00,718.00
             49.00,718.00 57.00,708.00 57.00,708.00
             49.97,706.02 44.78,708.31 38.00,709.47
             34.44,710.08 32.51,709.03 29.09,711.52
             24.03,715.22 21.62,722.01 21.00,728.00 Z
           M 83.00,717.00
           C 83.00,717.00 88.00,719.00 88.00,719.00
             88.00,719.00 87.00,716.00 87.00,716.00
             87.00,716.00 83.00,717.00 83.00,717.00 Z
           M 66.00,731.00
           C 57.24,727.88 63.07,720.30 55.00,721.74
             50.88,722.48 44.55,728.99 43.74,733.01
             43.36,734.89 44.01,737.27 44.80,738.98
             45.74,740.99 46.84,742.50 49.05,743.17
             53.53,744.53 58.29,741.08 62.00,739.23
             66.08,737.20 75.42,734.88 80.00,735.00
             80.00,735.00 84.00,727.00 84.00,727.00
             80.98,724.77 71.02,718.79 67.62,721.77
             65.82,723.34 66.07,728.67 66.00,731.00 Z
           M 127.00,721.00
           C 127.00,721.00 127.00,722.00 127.00,722.00
             127.00,722.00 128.00,721.00 128.00,721.00
             128.00,721.00 127.00,721.00 127.00,721.00 Z
           M 126.00,724.00
           C 126.00,724.00 126.00,725.00 126.00,725.00
             126.00,725.00 127.00,724.00 127.00,724.00
             127.00,724.00 126.00,724.00 126.00,724.00 Z
           M 71.00,742.90
           C 69.37,742.77 68.76,742.53 67.02,742.90
             59.77,743.90 62.22,751.03 68.32,745.82
             68.32,745.82 71.00,742.90 71.00,742.90 Z
           M 79.00,743.00
           C 79.00,743.00 77.00,751.00 77.00,751.00
             81.86,751.47 82.64,751.83 86.00,748.00
             86.00,748.00 79.00,743.00 79.00,743.00 Z
           M 89.00,748.00
           C 90.26,751.59 91.61,752.49 94.00,749.00
             94.00,749.00 89.00,748.00 89.00,748.00 Z" />
</svg>
