<svg xmlns="http://www.w3.org/2000/svg" xmlns:xlink="http://www.w3.org/1999/xlink" version="1.1" viewBox="10.5 356.5 1538 91"><defs/><g><path fill="none" stroke="#02063B" paint-order="fill stroke markers" d=" M 20 436.1634462968011 L 21 436.80575604106247 L 22 437.3121500528336 L 23 437.6806508743354 L 24 437.909819517746 L 25 437.99876108441697 L 26 437.94712825943395 L 27 437.7551226678735 L 28 437.42349408746173 L 29 436.9535375207082 L 30 436.34708813794896 L 31 435.60651411104556 L 32 434.73470736572455 L 33 433.7350722886696 L 34 432.61151243346427 L 35 431.3684152772987 L 36 430.01063508796517 L 37 428.54347396804627 L 38 426.9726611503178 L 39 425.3043306252172 L 40 423.5449971877424 L 41 421.70153099731675 L 42 419.7811307499632 L 43 417.7912955675508 L 44 415.73979571388395 L 45 413.63464225198874 L 46 411.48405576108314 L 47 409.2964342353912 L 48 407.0803202901552 L 49 404.84436780290605 L 50 402.5973081202565 L 51 400.3479159621799 L 52 398.1049751569161 L 53 395.8772443403102 L 54 393.67342275352723 L 55 391.5021162727013 L 56 389.3718038031737 L 57 387.2908041695488 L 58 385.2672436308621 L 59 383.30902414771253 L 60 381.42379252527564 L 61 379.61891055269257 L 62 377.9014262554415 L 63 376.27804637294867 L 64 374.7551101689146 L 65 373.33856467662486 L 66 372.03394147591246 L 67 370.846335092457 L 68 369.780383103771 L 69 368.84024802955855 L 70 368.02960107716535 L 71 367.3516078055926 L 72 366.8089157640565 L 73 366.40364415336563 L 74 366.13737555048675 L 75 366.011149728616 L 76 366.0254595968864 L 77 366.1802492755687 L 78 366.4749143142801 L 79 366.9083040523504 L 80 367.478726112127 L 81 368.18395300767367 L 82 369.0212308430552 L 83 369.98729006624245 L 84 371.0783582366427 L 85 372.29017475639955 L 86 373.6180075079365 L 87 375.0566713327747 L 88 376.6005482794659 L 89 378.2436095415724 L 90 379.97943900002764 L 91 381.8012582779434 L 92 383.7019532100267 L 93 385.674101623243 L 94 387.7100023202431 L 95 389.80170515237387 L 96 391.94104206483865 L 97 394.1196589927766 L 98 396.32904848370686 L 99 398.56058291894874 L 100 400.80554820428796 L 101 403.0551777983279 L 102 405.3006869456464 L 103 407.5333069810775 L 104 409.7443195711614 L 105 411.9250907590498 L 106 414.0671046799231 L 107 416.16199681525967 L 108 418.2015866561022 L 109 420.17790964776987 L 110 422.08324829127383 L 111 423.9101622799859 L 112 425.65151755387643 L 113 427.3005141578662 L 114 428.85071279550556 L 115 430.29605997428905 L 116 431.6309116444142 L 117 432.85005523867534 L 118 433.9487300274267 L 119 434.92264570913017 L 120 435.7679991638906 L 121 436.48148930455795 L 122 437.0603299674017 L 123 437.5022607920207 L 124 437.80555604800236 L 125 437.96903137386255 L 126 437.99204840195216 L 127 437.87451725126914 L 128 437.61689687844176 L 129 437.22019328551266 L 130 436.68595559152277 L 131 436.01626998323434 L 132 435.21375156861626 L 133 434.28153416490363 L 134 433.22325806110825 L 135 432.04305580276815 L 136 430.74553605444567 L 137 429.3357656029907 L 138 427.81924957184685 L 139 426.201909923662 L 140 424.4900623351509 L 141 422.69039153451286 L 142 420.80992519771104 L 143 418.8560065055483 L 144 416.83626546870323 L 145 414.7585891327019 L 146 412.63109077917375 L 147 410.46207824366036 L 148 408.2600214736956 L 149 406.0335194538418 L 150 403.7912666268388 L 151 401.5420189419915 L 152 399.29455966337486 L 153 397.05766507137577 L 154 394.840070191506 L 155 392.65043468431446 L 156 390.49730902959817 L 157 388.38910113696136 L 158 386.33404351310884 L 159 384.34016111408306 L 160 382.4152400079827 L 161 380.5667969705334 L 162 378.8020501322394 L 163 377.1278907917383 L 164 375.55085650542736 L 165 374.07710555844585 L 166 372.7123929167031 L 167 371.46204775386 L 168 370.33095264101985 L 169 369.3235244803927 L 170 368.4436972573865 L 171 367.6949066784787 L 172 367.08007675485555 L 173 366.6016083842115 L 174 366.2613699752945 L 175 366.06069015181015 L 176 366.0003525641747 L 177 366.0805928293765 L 178 366.30109761089716 L 179 366.66100584228366 L 180 367.1589120895946 L 181 367.79287203958944 L 182 368.56041009223037 L 183 369.4585290278473 L 184 370.48372171121656 L 185 371.63198478684893 L 186 372.89883431200707 L 187 374.2793232664061 L 188 375.76806087022186 L 189 377.35923363497074 L 190 379.0466280650577 L 191 380.823654921344 L 192 382.6833749519843 L 193 384.6185259900576 L 194 386.62155131217276 L 195 388.684629147312 L 196 390.7997032206794 L 197 392.9585142132815 L 198 395.15263201439114 L 199 397.3734886409495 L 200 399.6124116953568 L 201 401.86065823099875 L 202 404.1094488932668 L 203 406.35000220274924 L 204 408.57356884672083 L 205 410.7714658450217 L 206 412.9351104569088 L 207 415.05605369647526 L 208 417.12601332575906 L 209 419.1369061967055 L 210 421.080879815687 L 211 422.95034300732283 L 212 424.7379955578566 L 213 426.43685672233454 L 214 428.0402924842653 L 215 429.54204146131246 L 216 430.93623935585833 L 217 432.21744185496084 L 218 433.380645890279 L 219 434.4213091749477 L 220 435.3353679411106 L 221 436.11925280884697 L 222 436.76990272452355 L 223 437.28477691414366 L 224 437.66186480501534 L 225 437.8996938769944 L 226 437.9973354126443 L 227 437.954408123858 L 228 437.7710796407795 L 229 437.4480658572119 L 230 436.9866281350675 L 231 436.38856837877654 L 232 435.6562219988886 L 233 434.7924487923448 L 234 433.80062177503186 L 235 432.684614010227 L 236 431.44878348436896 L 237 430.09795608921434 L 238 428.6374067768332 L 239 427.0728389610342 L 240 425.4103622456562 L 241 423.65646856669525 L 242 421.8180068414341 L 243 419.9021562235664 L 244 417.9163980687554 L 245 415.8684867201 L 246 413.7664192275909 L 247 411.6184041198018 L 248 409.43282934976065 L 249 407.21822954017273 L 250 404.98325265590154 L 251 402.73662623385127 L 252 400.48712330212174 L 253 398.24352812152154 L 254 396.0146018832176 L 255 393.809048496471 L 256 391.63548060005763 L 257 389.50238593009834 L 258 387.41809417563053 L 259 385.3907444513512 L 260 383.4282535145481 L 261 381.53828485033154 L 262 379.72821874588965 L 263 378.00512347062454 L 264 376.3757276747116 L 265 374.84639411386433 L 266 373.4230948029099 L 267 372.11138769519863 L 268 370.9163949789154 L 269 369.84278307504417 L 270 368.8947444150941 L 271 368.0759810697441 L 272 367.38969029233596 L 273 366.83855203366875 L 274 366.4247184768481 L 275 366.1498056330573 L 276 366.01488703106816 L 277 366.02048952513417 L 278 366.1665912376358 L 279 366.4526216445125 L 280 366.8774638031463 L 281 367.43945871399967 L 282 368.1364117989724 L 283 368.96560147118265 L 284 369.92378976270527 L 285 371.00723496876725 L 286 372.2117062590249 L 287 373.53250019886565 L 288 374.96445911621964 L 289 376.5019912421589 L 290 378.1390925466351 L 291 379.86937018408855 L 292 381.6860674573732 L 293 383.5820902025147 L 294 385.5500344912684 L 295 387.5822155433012 L 296 389.67069773509394 L 297 391.8073255883817 L 298 393.98375561712146 L 299 396.1914889086272 L 300 398.42190431164147 L 301 400.6662921017468 L 302 402.9158879926532 L 303 405.1619073605485 L 304 407.3955795478663 L 305 409.60818211251615 L 306 411.7910748888332 L 307 413.9357337272403 L 308 416.0337837808696 L 309 418.0770322091604 L 310 420.0575001707261 L 311 421.9674539805592 L 312 423.7994353099056 L 313 425.54629031087916 L 314 427.201197552084 L 315 428.75769465615855 L 316 430.2097035352208 L 317 431.55155412567126 L 318 432.77800652967005 L 319 433.884271476826 L 320 434.8660290261946 L 321 435.7194454355555 L 322 436.4411881320933 L 323 437.02843872602364 L 324 437.4789040163443 L 325 437.79082494573674 L 326 437.9629834696469 L 327 437.994707312723 L 328 437.88587259403675 L 329 437.63690431083563 L 330 437.24877467893754 L 331 436.7229993362489 L 332 436.06163142423134 L 333 435.2672535704278 L 334 434.34296780335757 L 335 433.29238343916114 L 336 432.11960298729804 L 337 430.82920613033497 L 338 429.42623184038365 L 339 427.91615870202247 L 340 426.30488351854086 L 341 424.5986982850486 L 342 422.8042656183699 L 343 420.92859273966684 L 344 418.9790041113911 L 345 416.96311283541434 L 346 414.8887909240289 L 347 412.7641385599078 L 348 410.597452465065 L 349 408.39719350233327 L 350 406.17195363587615 L 351 403.9304223797516 L 352 401.6813528655455 L 353 399.4335276615803 L 354 397.19572447717366 L 355 394.9766818858712 L 356 392.78506520150404 L 357 390.6294326403235 L 358 388.51820190135015 L 359 386.4596172954389 L 360 384.46171755142166 L 361 382.5323044250434 L 362 380.6789122332728 L 363 378.9087784329558 L 364 377.2288153587013 L 365 375.6455832303629 L 366 374.1652645355201 L 367 372.7936398869973 L 368 371.53606544969387 L 369 370.3974520248751 L 370 369.38224587359844 L 371 368.49441135415896 L 372 367.73741544135527 L 373 367.11421418802695 L 374 366.6272411817317 L 375 366.2783980416377 L 376 366.06904699274173 L 377 366.0000055464096 L 378 366.0715433080117 L 379 366.28338092411997 L 380 366.6346911733768 L 381 367.1241021967769 L 382 367.7497028547475 L 383 368.5090501901072 L 384 369.39917896776154 L 385 370.41661325388276 L 386 371.5573799893568 L 387 372.81702450449427 L 388 374.19062791442025 L 389 375.67282632721435 L 390 377.25783178979395 L 391 378.9394548897471 L 392 380.71112892485553 L 393 382.5659355459263 L 394 384.49663177279746 L 395 386.4956782780203 L 396 388.5552688277719 L 397 390.6673607650311 L 398 392.82370641598214 L 399 395.0158852970043 L 400 397.23533699648016 L 401 399.4733946030201 L 402 401.72131854956535 L 403 403.9703307412107 L 404 406.2116488334771 L 405 408.4365205271789 L 406 410.6362577459649 L 407 412.8022705630705 L 408 414.9261007447981 L 409 416.9994547797383 L 410 419.01423626475497 L 411 420.9625775212658 L 412 422.836870318359 L 413 424.6297955827722 L 414 426.33435197971676 L 415 427.94388325294045 L 416 429.4521042172657 L 417 430.85312530210297 L 418 432.14147555009816 L 419 433.31212398110375 L 420 434.3604992380488 L 421 435.2825074379904 L 422 436.0745481586389 L 423 436.73352849792997 L 424 437.25687515174104 L 425 437.64254446258866 L 426 437.8890304000674 L 427 437.99537044186627 L 428 437.96114933239767 L 429 437.7865007043618 L 430 437.4721065569136 L 431 437.0191945924708 L 432 436.4295334225621 L 433 435.7054256614371 L 434 434.84969893440706 L 435 433.8656948360282 L 436 432.7572558812468 L 437 431.52871050046053 L 438 430.1848561370902 L 439 428.7309405136661 L 440 427.1726411395835 L 441 425.5160431405504 L 442 423.7676154963014 L 443 421.93418577937064 L 444 420.02291349356693 L 445 418.0412621162648 L 446 415.99696995368487 L 447 413.8980199229737 L 448 411.7526083790833 L 449 409.5691131081803 L 450 407.35606061257045 L 451 405.12209281488924 L 452 402.8759333115793 L 453 400.62635330743274 L 454 398.38213736422443 L 455 396.1520490971858 L 456 393.94479695327533 L 457 391.7690002048794 L 458 389.633155291738 L 459 387.5456026425294 L 460 385.51449410567477 L 461 383.5477611165444 L 462 381.65308372537237 L 463 379.8378606068247 L 464 378.1091801683332 L 465 376.47379287001604 L 466 374.9380848642756 L 467 373.5080530580098 L 468 372.1892816948192 L 469 370.986920548655 L 470 369.9056648140623 L 471 368.94973677154553 L 472 368.12286929965364 L 473 367.42829129816937 L 474 366.86871507932426 L 475 366.44632577627794 L 476 366.1627728102196 L 477 366.0191634494136 L 478 366.0160584853406 L 479 366.1534700428188 L 480 366.430861532657 L 481 366.84714974702354 L 482 367.40070908934996 L 483 368.08937792225083 L 484 368.9104670086712 L 485 369.8607700133002 L 486 370.93657602324134 L 487 372.1336840390483 L 488 373.44741937953773 L 489 374.87265193631913 L 490 376.4038162067586 L 491 378.0349330271473 L 492 379.75963292120775 L 493 381.57118097276265 L 494 383.4625031254381 L 495 385.4262138067026 L 496 387.45464476836963 L 497 389.5398750309427 L 498 391.67376181487083 L 499 393.8479723379283 L 500 396.05401635455115 L 501 398.28327931006424 L 502 400.527055980333 L 503 402.77658446547724 L 504 405.0230804049029 L 505 407.2577712800419 L 506 409.47193067084964 L 507 411.6569123322886 L 508 413.8041839577297 L 509 415.90536049742786 L 510 417.952236901961 L 511 419.93682016277296 L 512 421.85136052470085 L 513 423.6883817486028 L 514 425.4407103059122 L 515 427.10150339111283 L 516 428.6642756427483 L 517 430.1229244686196 L 518 431.4717538762771 L 519 432.7054967157492 L 520 433.8193352476499 L 521 434.8089199563487 L 522 435.67038653473526 L 523 436.4003709742567 L 524 436.99602270129844 L 525 437.4550157086134 L 526 437.7755576383306 L 527 437.95639678107415 L 528 437.9968269638616 L 529 437.8966903076944 L 530 437.65637784407204 L 531 437.27682798802203 L 532 436.75952287360997 L 533 436.1064825662371 L 534 435.3202571743286 L 535 434.40391689121446 L 536 433.3610400060903 L 537 432.1956989308749 L 538 430.9124442975284 L 539 429.51628718793205 L 540 428.0126795657209 L 541 426.407492986482 L 542 424.70699566945615 L 543 422.91782802027524 L 544 421.04697670032084 L 545 419.10174734396077 L 546 417.0897360302033 L 547 415.0187996201713 L 548 412.89702507622735 L 549 410.73269788255925 L 550 408.53426969054124 L 551 406.3103253152163 L 552 404.06954921177726 L 553 401.820691562955 L 554 399.5725341097422 L 555 397.3338558588826 L 556 395.1133988010376 L 557 392.9198337735 L 558 390.76172660075946 L 559 388.6475046451417 L 560 386.5854238981386 L 561 384.58353674093826 L 562 382.6496605000488 L 563 380.79134692080555 L 564 379.0158526779672 L 565 377.3301110385561 L 566 375.7407047875988 L 567 374.25384052249194 L 568 372.87532441637137 L 569 371.610539545131 L 570 370.46442486662653 L 571 369.4414559341502 L 572 368.5456274194918 L 573 367.78043751383007 L 574 367.14887426737135 L 575 366.6534039210776 L 576 366.2959612760478 L 577 366.07794213816163 L 578 366.0001978674867 L 579 366.0630320537364 L 580 366.26619933075796 L 581 366.6089063346825 L 582 367.08981480199367 L 583 367.7070467954182 L 584 368.4581920372306 L 585 369.3403173213363 L 586 370.34997796737844 L 587 371.48323127214127 L 588 372.7356519057215 L 589 374.102349192347 L 590 375.57798620836115 L 591 377.1568006227953 L 592 378.832627199148 L 593 380.5989218705017 L 594 382.4487872939638 L 595 384.3749997846431 L 596 386.3700375239849 L 597 388.4261099323112 L 598 390.5351880908679 L 599 392.68903609458056 L 600 394.87924321308736 L 601 397.09725673446144 L 602 399.3344153633678 L 603 401.58198304323616 L 604 403.83118307037506 L 605 406.0732323668118 L 606 408.2993757780241 L 607 410.5009202616311 L 608 412.6692688335379 L 609 414.79595413897414 L 610 416.87267151733363 L 611 418.89131143169607 L 612 420.8439911363951 L 613 422.72308545897175 L 614 424.52125657630916 L 615 426.2314826686755 L 616 427.8470853397792 L 617 429.3617556957638 L 618 430.7695789813034 L 619 432.06505767659576 L 620 433.2431329650592 L 621 434.2992044879033 L 622 435.22914830843155 L 623 436.0293330159257 L 624 436.69663390622713 L 625 437.2284451836396 L 626 437.62269013650575 L 627 437.8778292467214 L 628 437.9928662015213 L 629 437.9673517840587 L 630 437.8013856275878 L 631 437.49561582639797 L 632 437.0512364050192 L 633 436.46998265558227 L 634 435.75412436153977 L 635 434.90645693421044 L 636 433.9302904967577 L 637 432.8294369582297 L 638 431.6081951281358 L 639 430.27133392968784 L 640 428.82407377725656 L 641 427.2720661907656 L 642 425.62137172662693 L 643 423.8784363113978 L 644 422.0500660705756 L 645 420.14340075082316 L 646 418.16588583941115 L 647 416.1252434897494 L 648 414.02944236654315 L 649 411.886666528328 L 650 409.70528346889637 L 651 407.4938114424133 L 652 405.2608861998163 L 653 403.01522726639257 L 654 400.76560389221964 L 655 398.5208008084313 L 656 396.2895839230305 L 657 394.0806660902062 L 658 391.90267308682434 L 659 389.7641099289536 L 660 387.67332765995985 L 661 385.63849073986034 L 662 383.6675451632821 L 663 381.7681874305231 L 664 379.9478344928831 L 665 378.2135947896277 L 666 376.57224048968493 L 667 375.03018104647094 L 668 373.593438169111 L 669 372.26762230779457 L 670 371.05791074508744 L 671 369.96902737875394 L 672 369.00522427503716 L 673 368.1702650644317 L 674 367.46741024478655 L 675 366.8994044491313 L 676 366.46846572794243 L 677 366.17627688770403 L 678 366.0239789195844 L 679 366.01216654388986 L 680 366.1408858876946 L 681 366.4096343047158 L 682 366.81736233813615 L 683 367.36247781871066 L 684 368.0428520821533 L 685 368.85582828152536 L 686 369.79823176216627 L 687 370.8663824586517 L 688 372.0561092653705 L 689 373.3627663246028 L 690 374.78125116849503 L 691 376.3060246440877 L 692 377.93113254358906 L 693 379.65022885542913 L 694 381.45660054529924 L 695 383.34319377040714 L 696 385.3026414245822 L 697 387.32729190666754 L 698 389.4092389998584 L 699 391.54035274531014 L 700 393.71231118945286 L 701 395.9166328810426 L 702 398.14470999104657 L 703 400.38784192603157 L 704 402.6372693037949 L 705 404.8842081585646 L 706 407.1198842421977 L 707 409.3355672874316 L 708 411.52260509939066 L 709 413.67245734222223 L 710 415.77672888892533 L 711 417.8272026041419 L 712 419.8158714318946 L 713 421.7349696629689 L 714 423.5770032598416 L 715 425.33477912073675 L 716 427.00143316853433 L 717 428.5704571548444 L 718 430.03572407457784 L 719 431.39151209177015 L 720 432.63252688322825 L 721 433.7539223127495 L 722 434.7513193551797 L 723 435.6208231964127 L 724 436.3590384425559 L 725 436.9630823788712 L 726 437.43059622671393 L 727 437.7597543545131 L 728 437.94927140682375 L 729 437.99840732361224 L 730 437.90697023017515 L 731 437.67531718640544 L 732 437.3043527924817 L 733 436.7955256564235 L 734 436.1508227373081 L 735 435.37276158623786 L 736 434.4643805153571 L 737 433.4292267333081 L 738 432.27134249345715 L 739 430.995249308982 L 740 429.60593029645935 L 741 428.1088107169014 L 742 426.50973679022775 L 743 424.81495286590143 L 744 423.03107703887827 L 745 421.16507530608754 L 746 419.2242343643629 L 747 417.21613315604753 L 748 415.148613273386 L 749 413.0297483372749 L 750 410.8678124699455 L 751 408.6712479846939 L 752 406.4486324188281 L 753 404.20864503856836 L 754 401.9600329466985 L 755 399.7115769253165 L 756 397.47205714706837 L 757 395.25021888876205 L 758 393.0547383812485 L 759 390.8941889289258 L 760 388.7770074311691 L 761 386.71146143641903 L 762 384.70561685758196 L 763 382.7673064748128 L 764 380.9040993486761 L 765 379.1232712631263 L 766 377.4317763137274 L 767 375.83621975205864 L 768 374.342832192348 L 769 372.95744528105735 L 770 371.6854689244277 L 771 370.5318701629112 L 772 369.50115377498435 L 773 368.5973446860844 L 774 367.82397225136185 L 775 367.18405647362397 L 776 366.6800962102885 L 777 366.3140594153989 L 778 366.08737545480597 L 779 366.00092952452474 L 780 366.05505919406295 L 781 366.2495530882195 L 782 366.58365171249994 L 783 367.05605041892613 L 784 367.664904500659 L 785 368.40783639553894 L 786 369.28194497041534 L 787 370.28381685000943 L 788 371.4095397460716 L 789 372.6547177347834 L 790 374.01448842274607 L 791 375.4835419345224 L 792 377.05614164758697 L 793 378.7261465937142 L 794 380.4870354393279 L 795 382.3319319511693 L 796 384.2536318478408 L 797 386.2446309323707 L 798 388.2971543959417 L 799 390.4031871783529 L 800 392.55450526665857 L 801 394.74270780976246 L 802 396.95924992356174 L 803 399.1954760585365 L 804 401.44265379948524 L 805 403.6920079654197 L 806 405.9347548764585 L 807 408.1621366539093 L 808 410.3654554195974 L 809 412.53610726089454 L 810 414.6656158288126 L 811 416.74566543796584 L 812 418.76813353914395 L 813 420.72512243769313 L 814 422.6089901338445 L 815 424.4123801645596 L 816 426.1282503303615 L 817 427.74990019497267 L 818 429.27099725037544 L 819 430.6856016451203 L 820 431.98818937931844 L 821 433.1736738757436 L 822 434.2374258428068 L 823 435.1752913518411 L 824 435.9836080581043 L 825 436.65921950215653 L 826 437.199487435767 L 827 437.60230212421686 L 828 437.86609058476796 L 829 437.989822729127 L 830 437.97301538591813 L 831 437.8157341874569 L 832 437.5185933134575 L 833 437.08275309267395 L 834 436.5099154718414 L 835 435.8023173696103 L 836 434.9627219414272 L 837 433.99440778947167 L 838 432.9011561597848 L 839 431.687236176585 L 840 430.3573881714282 L 841 428.91680517231583 L 842 427.3711126250305 L 843 425.7263464258913 L 844 423.98892935170744 L 845 422.16564597897263 L 846 420.2636161902388 L 847 418.2902673711271 L 848 416.253305406546 L 849 414.160684589376 L 850 412.0205765591255 L 851 409.841338391854 L 852 407.6314799659684 L 853 405.3996307313306 L 854 403.15450601143965 L 855 400.90487297028073 L 856 398.65951637673686 L 857 396.4272043002549 L 858 394.21665387172146 L 859 392.03649724325385 L 860 389.8952478798303 L 861 387.801267314392 L 862 385.7627324962353 L 863 383.7876038602 L 864 381.8835942413418 L 865 380.05813875647607 L 866 378.3183657702061 L 867 376.67106905881184 L 868 375.1226812806987 L 869 373.67924885700455 L 870 372.3464083604541 L 871 371.12936450466333 L 872 370.0328698198441 L 873 369.0612060942755 L 874 368.218167654012 L 875 367.50704654612167 L 876 366.9306196833127 L 877 366.49113800014874 L 878 366.19031766319745 L 879 366.0293333694371 L 880 366.00881375908966 L 881 366.1288389607945 L 882 366.3889402787075 L 883 366.7881020227484 L 884 367.3247654748488 L 885 367.99683497571306 L 886 368.80168610832266 L 887 369.7361759462288 L 888 370.79665532661267 L 889 371.9789831001884 L 890 373.27854230230207 L 891 374.6902581820804 L 892 376.2086180192239 L 893 377.82769265106157 L 894 379.54115962580465 L 895 381.3423278915854 L 896 383.22416392487116 L 897 385.17931919622373 L 898 387.20015886614914 L 899 389.27879159898265 L 900 391.4071003783858 L 901 393.5767742041212 L 902 395.7793405463308 L 903 398.0061984305836 L 904 400.24865202449683 L 905 402.4979445947753 L 906 404.74529270206716 L 907 406.9819205001073 L 908 409.1990940052086 L 909 411.38815520228167 L 910 413.54055585419815 L 911 415.64789088247414 L 912 417.7019311889217 L 913 419.6946557901009 L 914 421.618283139089 L 915 423.46530151225403 L 916 425.2284983423754 L 917 426.9009883835643 L 918 428.4762405980015 L 919 429.94810365950025 L 920 431.31082997430366 L 921 432.55909812531496 L 922 433.68803365211767 L 923 434.693228085639 L 924 435.57075616312756 L 925 436.3171911562199 L 926 436.92961825224194 L 927 437.4056459364897 L 928 437.74341533104337 L 929 437.9416074536454 L 930 437.99944836829854 L 931 437.9167122074688 L 932 437.6937220540936 L 933 437.33134867994994 L 934 436.83100714530894 L 935 436.19465127315596 L 936 435.42476601955366 L 937 434.52435776994156 L 938 433.4969425992656 L 939 432.3465325417803 L 940 431.0776199241412 L 941 429.6951598229651 L 942 428.20455071536225 L 943 426.6116133979985 L 944 424.92256825700895 L 945 423.1440109775233 L 946 421.2828867876565 L 947 419.3464633375414 L 948 417.34230231931105 L 949 415.27822993885206 L 950 413.16230635463864 L 951 411.0027942029859 L 952 408.80812633263207 L 953 406.5868728746446 L 954 404.34770777624163 L 955 402.0993749292138 L 956 399.85065402521406 L 957 397.61032627124945 L 958 395.3871400992557 L 959 393.18977700365787 L 960 391.0268176403202 L 961 388.90670831926883 L 962 386.8377280220316 L 963 384.8279560723928 L 964 382.88524058680616 L 965 381.01716782766835 L 966 379.23103257912675 L 967 377.53380966110325 L 968 375.9321266927718 L 969 374.43223821184745 L 970 373.0400012507502 L 971 371.7608524650191 L 972 370.59978690328836 L 973 369.5613385017295 L 974 368.6495623791276 L 975 367.8680190017292 L 976 367.2197602796979 L 977 366.70731764947027 L 978 366.33269218855116 L 979 366.09734680134824 L 980 366.0022005065622 L 981 366.047624848438 L 982 366.23344244589265 L 983 366.55892768518464 L 984 367.0228095534201 L 985 367.6232766018306 L 986 368.3579840194422 L 987 369.2240627895121 L 988 370.2181308929774 L 989 371.33630651516734 L 990 372.5742232042064 L 991 373.92704692191563 L 992 375.38949492062795 L 993 376.9558563722052 L 994 378.6200146686993 L 995 380.3754713075758 L 996 382.21537126822705 L 997 384.1325297806809 L 998 386.11946038197374 L 999 388.1684041506283 L 1000 390.2713600050758 L 1001 392.4201159477082 L 1002 394.6062811325534 L 1003 396.82131863134896 L 1004 399.0565787700642 L 1005 401.3033329056926 L 1006 403.5528075114155 L 1007 405.79621843703666 L 1008 408.02480521090104 L 1009 410.2298652493489 L 1010 412.4027878401188 L 1011 414.5350877669947 L 1012 416.61843844439386 L 1013 418.64470443250514 L 1014 420.6059732060075 L 1015 422.4945860523119 L 1016 424.3031679786702 L 1017 426.02465651136407 L 1018 427.6523292745135 L 1019 429.1798302408108 L 1020 430.60119455167154 L 1021 431.9108718098792 L 1022 433.1037477537679 L 1023 434.1751642283045 L 1024 435.12093737508445 L 1025 435.93737397020936 L 1026 436.62128584624713 L 1027 437.1700023419576 L 1028 437.5813807311679 L 1029 437.85381459007147 L 1030 437.9862400702796 L 1031 437.97814005312597 L 1032 437.8295461690042 L 1033 437.54103867385186 L 1034 437.1137441832634 L 1035 436.5493312730804 L 1036 435.8500039636386 L 1037 435.0184931131155 L 1038 434.05804575358803 L 1039 432.9724124114413 L 1040 431.7658324616437 L 1041 430.4430175730781 L 1042 429.0091333095759 L 1043 427.4697789585005 L 1044 425.8309656656505 L 1045 424.09909296186356 L 1046 422.28092377298555 L 1047 420.3835580107898 L 1048 418.4144048479736 L 1049 416.3811537854977 L 1050 414.29174462524895 L 1051 412.15433646528436 L 1052 409.9772758387276 L 1053 407.769064120736 L 1054 405.538324330812 L 1055 403.293767460097 L 1056 401.0441584551372 L 1057 398.7982819909549 L 1058 396.56490816708055 L 1059 394.3527582605017 L 1060 392.170470669263 L 1061 390.02656717970706 L 1062 387.9294196890805 L 1063 385.88721751345486 L 1064 383.90793540862245 L 1065 381.9993024288456 L 1066 380.1687717450652 L 1067 378.42349154042773 L 1068 376.77027709678293 L 1069 375.2155841811541 L 1070 373.76548383610606 L 1071 372.42563867245383 L 1072 371.2012807568884 L 1073 370.09719118086866 L 1074 369.1176813905612 L 1075 368.2665763507354 L 1076 367.5471996083581 L 1077 366.96236031421336 L 1078 366.5143422532292 L 1079 366.204894926346 L 1080 366.03522671875317 L 1081 366.00600018117024 L 1082 366.11732944260115 L 1083 366.36877976466246 L 1084 366.75936923922757 L 1085 367.287572622757 L 1086 367.9513272923417 L 1087 368.7480413002015 L 1088 369.6746034951855 L 1089 370.7273956717509 L 1090 371.9023066989782 L 1091 373.19474857444936 L 1092 374.5996743402992 L 1093 376.1115977914778 L 1094 377.7246148992637 L 1095 379.43242686636995 L 1096 381.22836472361246 L 1097 383.1054153720922 L 1098 385.05624896919596 L 1099 387.07324755147545 L 1100 389.148534782631 L 1101 391.2740067104364 L 1102 393.4413634124992 L 1103 395.64214140727967 L 1104 397.86774670380527 L 1105 400.1094883610215 L 1106 402.35861242573054 L 1107 404.60633611659154 L 1108 406.84388212069337 L 1109 409.06251286877387 L 1110 411.253564655241 L 1111 413.4084814697576 L 1112 415.5188484082785 L 1113 417.57642453307113 L 1114 419.5731750534007 L 1115 421.50130270121616 L 1116 423.3532781793151 L 1117 425.1218695630882 L 1118 426.80017054103007 L 1119 428.38162738373774 L 1120 429.860064536084 L 1121 431.2297087326278 L 1122 432.48521154209215 L 1123 433.62167025287425 L 1124 434.63464701802894 L 1125 435.52018618496606 L 1126 436.2748297421896 L 1127 436.895630822758 L 1128 437.38016521173694 L 1129 437.7265408127066 L 1130 437.9334050363577 L 1131 437.99995008232383 L 1132 437.92591609362455 L 1133 437.71159217140143 L 1134 437.3578152459841 L 1135 436.8659668086955 L 1136 436.2379675171575 L 1137 435.4762696951643 L 1138 434.5838477564103 L 1139 433.5641865894683 L 1140 432.42126794937434 L 1141 431.1595549089592 L 1142 429.78397443064483 L 1143 428.2998981267614 L 1144 426.71312128351593 L 1145 425.02984023052403 L 1146 423.2566281442751 L 1147 421.40040938001886 L 1148 419.46843243230626 L 1149 417.4682416297734 L 1150 415.4076476746997 L 1151 413.29469714238263 L 1152 411.1376410594333 L 1153 408.94490268369424 L 1154 406.72504461159764 L 1155 404.4867353414096 L 1156 402.23871542293006 L 1157 399.9897633258325 L 1158 397.7486611599281 L 1159 395.52416038121464 L 1160 393.32494761762837 L 1161 391.1596107479474 L 1162 389.0366053663092 L 1163 386.96422176329634 L 1164 384.95055255252913 L 1165 383.0034610691828 L 1166 381.13055066383157 L 1167 379.3391350115278 L 1168 377.6362095520569 L 1169 376.02842417289537 L 1170 374.52205724154175 L 1171 373.1229910886265 L 1172 371.8366890375365 L 1173 370.668174070254 L 1174 369.6220092127199 L 1175 368.7022797163147 L 1176 367.9125771050395 L 1177 367.25598515069146 L 1178 366.7350678308012 L 1179 366.35185931635516 L 1180 366.10785602840144 L 1181 366.00401079455776 L 1182 366.04072912824006 L 1183 366.2178676451411 L 1184 366.5347346231431 L 1185 366.990092703478 L 1186 367.58216372258687 L 1187 368.3086356558105 L 1188 369.1666716457964 L 1189 370.1529210803656 L 1190 371.26353267658226 L 1191 372.4941695199303 L 1192 373.84002599987247 L 1193 375.29584657565607 L 1194 376.8559462990876 L 1195 378.51423301413337 L 1196 380.2642311466589 L 1197 382.099106991407 L 1198 384.0116953974706 L 1199 385.99452774805377 L 1200 388.03986112526053 L 1201 390.13970854602337 L 1202 392.2858701511014 L 1203 394.4699652253551 L 1204 396.68346492425957 L 1205 398.91772557885986 L 1206 401.1640224491134 L 1207 403.41358379381313 L 1208 405.657625124049 L 1209 407.8873835064493 L 1210 410.0941517822481 L 1211 412.26931256855374 L 1212 414.4043719090444 L 1213 416.4909924426863 L 1214 418.5210259609497 L 1215 420.4865452263887 L 1216 422.3798749283345 L 1217 424.19362165481846 L 1218 425.92070276368827 L 1219 427.5543740401736 L 1220 429.0882560329008 L 1221 430.5163589655136 L 1222 431.8331061266217 L 1223 433.0333556467398 L 1224 434.1124205771773 L 1225 435.06608719247316 L 1226 435.8906314449032 L 1227 436.5828335068071 L 1228 437.13999034394647 L 1229 437.5599262707954 L 1230 437.84100144654644 L 1231 437.9821182786532 L 1232 437.98272570890634 L 1233 437.8428213653036 L 1234 437.56295157131285 L 1235 437.1442092124904 L 1236 436.58822946878615 L 1237 435.8971834292013 L 1238 435.0737696137318 L 1239 434.121203435706 L 1240 433.0432046456638 L 1241 431.8439828058111 L 1242 430.5282208517688 L 1243 429.10105680581 L 1244 427.56806371299245 L 1245 425.93522787853726 L 1246 424.2089254914351 L 1247 422.3958977255642 L 1248 420.50322441555124 L 1249 418.5382964101683 L 1250 416.5087867112264 L 1251 414.4226205106681 L 1252 412.2879442428622 L 1253 410.1130937729519 L 1254 407.90656184548016 L 1255 405.6769649204033 L 1256 403.4330095260001 L 1257 401.1834582600646 L 1258 398.9370955721493 L 1259 396.70269346047803 L 1260 394.48897721748017 L 1261 392.3045913577107 L 1262 390.1580658612057 L 1263 388.0577828640929 L 1264 386.0119439265297 L 1265 384.0285380057858 L 1266 382.11531025953644 L 1267 380.27973180118727 L 1268 378.52897052533643 L 1269 376.8698631172995 L 1270 375.30888835599956 L 1271 373.85214181447435 L 1272 372.5053120567939 L 1273 371.2736584243395 L 1274 370.16199049818823 L 1275 369.1746493178018 L 1276 368.3154904293604 L 1277 367.5878688299371 L 1278 366.99462586630654 L 1279 366.5380781395461 L 1280 366.2200084587585 L 1281 366.0416588792406 L 1282 366.0037258522836 L 1283 366.106357505546 L 1284 366.34915306461824 L 1285 366.7311644180379 L 1286 367.25089981964504 L 1287 367.9063297138189 L 1288 368.69489466084895 L 1289 369.6135153314925 L 1290 370.65860453168943 L 1291 371.826081210478 L 1292 373.11138639641183 L 1293 374.50950100024556 L 1294 376.01496541437126 L 1295 377.62190083246895 L 1296 379.3240322061197 L 1297 381.11471274873526 L 1298 382.9869498911178 L 1299 384.93343258729243 L 1300 386.9465598639858 L 1301 389.0184705022637 L 1302 391.14107373542294 L 1303 393.3060808432622 L 1304 395.5050375193569 L 1305 397.729356884945 L 1306 399.97035302050483 L 1307 402.2192748840847 L 1308 404.4673404839348 L 1309 406.7057711719967 L 1310 408.9258259243363 L 1311 411.1188354746555 L 1312 413.27623616759104 L 1313 415.38960339960585 L 1314 417.45068451688536 L 1315 419.45143104177413 L 1316 421.3840301019088 L 1317 423.2409349393177 L 1318 425.0148943803488 L 1319 426.6989811513478 L 1320 428.286618929514 L 1321 429.7716080232993 L 1322 431.1481495820715 L 1323 432.4108682405019 L 1324 433.5548331092517 L 1325 434.57557702998963 L 1326 435.46911401954924 L 1327 436.2319548351082 L 1328 436.8611205996067 L 1329 437.35415443419856 L 1330 437.70913105231085 L 1331 437.9246642778463 L 1332 437.99991245817176 L 1333 437.9345817507533 L 1334 437.7289272706053 L 1335 437.3837520940717 L 1336 436.90040412283014 L 1337 436.28077082036447 L 1338 435.5272718414605 L 1339 434.64284958350595 L 1340 433.6309576964913 L 1341 432.49554759658054 L 1342 431.24105303591597 L 1343 429.8723727889104 L 1344 428.39485152263853 L 1345 426.8142589260258 L 1346 425.1367671793369 L 1347 423.3689268519442 L 1348 421.5176413224939 L 1349 419.59013982136065 L 1350 417.59394920065745 L 1351 415.5368645420393 L 1352 413.4269187170761 L 1353 411.27235101906103 L 1354 409.08157498874664 L 1355 406.86314555964833 L 1356 404.6257256512119 L 1357 402.3780523402985 L 1358 400.12890274308666 L 1359 397.88705974062117 L 1360 395.6612776818509 L 1361 393.460248198083 L 1362 391.2925662623492 L 1363 389.1666966262198 L 1364 387.09094076512974 L 1365 385.073404461295 L 1366 383.12196615080643 L 1367 381.2442461585053 L 1368 379.4475769407779 L 1369 377.7389744524705 L 1370 376.1251107497354 L 1371 374.6122879357948 L 1372 373.2064135513625 L 1373 371.91297750582373 L 1374 370.7370306392564 L 1375 369.683164999009 L 1376 368.75549590785386 L 1377 367.95764589373954 L 1378 367.29273054389705 L 1379 366.76334633853816 L 1380 366.3715605116559 L 1381 366.11890297852 L 1382 366.00636036139036 L 1383 366.0343721367785 L 1384 366.2028289193009 L 1385 366.5110728888269 L 1386 366.95790035925194 L 1387 367.54156647886623 L 1388 368.2597920439632 L 1389 369.1097723990814 L 1390 370.0881883891238 L 1391 371.19121932058755 L 1392 372.41455788129036 L 1393 373.7534269603325 L 1394 375.20259830261216 L 1395 376.7564129250505 L 1396 378.4088032147987 L 1397 380.15331662313685 L 1398 381.9831408625383 L 1399 383.8911305085067 L 1400 385.8698349023061 L 1401 387.9115272456232 L 1402 390.00823477355004 L 1403 392.15176988806 L 1404 394.333762130403 L 1405 396.54569086756777 L 1406 398.7789185651714 L 1407 401.0247245168463 L 1408 403.27433889841177 L 1409 405.5189770138501 L 1410 407.7498735993561 L 1411 409.95831705150505 L 1412 412.1356834458775 L 1413 414.27347021329933 L 1414 416.363329342193 L 1415 418.3970999773835 L 1416 420.3668402880635 L 1417 422.2648584804726 L 1418 424.0837428341875 L 1419 425.8163906447313 L 1420 427.45603595948296 L 1421 428.99627599857706 L 1422 430.43109615762233 L 1423 431.75489349460327 L 1424 432.9624986092483 L 1425 434.0491958294279 L 1426 435.0107416257527 L 1427 435.84338118246535 L 1428 436.54386305991557 L 1429 437.1094518913623 L 1430 437.5379390645225 L 1431 437.8276513461547 L 1432 437.977457415999 L 1433 437.9867722845586 L 1434 437.85555957747096 L 1435 437.58433167754947 L 1436 437.17414772393886 L 1437 436.6266094762 L 1438 435.94385505947287 L 1439 435.1285506151438 L 1440 434.1838798896201 L 1441 433.1135318018688 L 1442 431.921686038267 L 1443 430.6129967310158 L 1444 429.1925742838538 L 1445 427.6659654160398 L 1446 426.0391315025329 L 1447 424.3184252949508 L 1448 422.5105661142107 L 1449 420.6226136117247 L 1450 418.6619402016126 L 1451 416.636202271582 L 1452 414.5533102848985 L 1453 412.4213978901958 L 1454 410.2487901597519 L 1455 408.0439710802599 L 1456 405.81555042304166 L 1457 403.572230123075 L 1458 401.3227702981237 L 1459 399.0759550406654 L 1460 396.8405581161982 L 1461 394.62530870187413 L 1462 392.43885729924943 L 1463 390.28974195426076 L 1464 388.1863549163389 L 1465 386.13690986685396 L 1466 384.1494098448657 L 1467 382.2316159954271 L 1468 380.39101726247895 L 1469 378.63480114468433 L 1470 376.96982562839986 L 1471 375.4025924073858 L 1472 373.93922149383104 L 1473 372.58542731983664 L 1474 371.3464964226807 L 1475 370.227266801003 L 1476 369.2321090225247 L 1477 368.364909157074 L 1478 367.62905360156736 L 1479 367.0274158562015 L 1480 366.56234530349695 L 1481 366.2356580340094 L 1482 366.04862975453506 L 1483 366.0019908065028 L 1484 366.0959233140066 L 1485 366.33006047261483 L 1486 366.70348798173376 L 1487 367.21474761493164 L 1488 367.8618429142819 L 1489 368.64224698648854 L 1490 369.55291237035044 L 1491 370.59028293703204 L 1492 371.75030777667035 L 1493 373.02845701709134 L 1494 374.41973951286377 L 1495 375.9187223356155 L 1496 377.5195519895021 L 1497 379.21597726898324 L 1498 381.00137366964645 L 1499 382.8687692567549 L 1500 384.81087189050356 L 1501 386.82009770166906 L 1502 388.8886007064566 L 1503 391.00830344489896 L 1504 393.17092852316443 L 1505 395.36803093660313 L 1506 397.5910310473089 L 1507 399.8312480874221 L 1508 402.0799340573422 L 1509 404.328307886479 L 1510 406.5675897231454 L 1511 408.78903521969016 L 1512 410.9839696789888 L 1513 413.14382192894965 L 1514 415.260157792758 L 1515 417.32471302415564 L 1516 419.32942557914583 L 1517 421.26646709810257 L 1518 423.1282734753475 L 1519 424.9075743968204 L 1520 426.59742173050034 L 1521 428.1912166587124 L 1522 429.6827354463694 L 1523 431.0661537445244 L 1524 432.33606933432844 L 1525 433.48752322257985 L 1526 434.5160190064863 L 1527 435.4175404320217 L 1528 436.1885670773121 L 1529 436.82608809980763 L 1530 437.32761399355866 L 1531 437.6911863106827 L 1532 437.91538530906206 L 1533 437.9993354964059 L 1534 437.9427090490292 L 1535 437.7457270919971 L 1536 437.4091588356364 L 1537 436.9343185717856 L 1538 436.3230605415133 L 1539 435.57777169434667" stroke-linecap="round" stroke-linejoin="round" stroke-miterlimit="10" stroke-width="19"/></g></svg>